<svg width="35" height="21" viewBox="0 0 35 21" fill="none" xmlns="http://www.w3.org/2000/svg">
<path d="M34.9935 13.5601C34.9616 10.9745 33.1544 8.70483 30.6232 8.03676C29.6361 7.77585 28.6335 7.8562 27.6336 7.84988C27.4153 7.84807 27.2848 7.78668 27.1615 7.60612C26.3451 6.41261 25.548 5.20466 24.6841 4.04637C23.1327 1.96541 21.0178 0.884751 18.4063 0.826069C16.5736 0.78454 14.7382 0.78454 12.9046 0.826069C10.2948 0.884751 8.17447 1.95638 6.62212 4.03734C5.72998 5.23085 4.91637 6.48213 4.0571 7.70092C3.96031 7.83814 3.80781 7.96724 3.65167 8.02863C2.22077 8.59559 1.15604 9.55347 0.53419 10.9447C0.285814 11.5017 0.174411 12.1192 0 12.7097C0 13.5881 0 14.4665 0 15.345C0.359779 16.626 1.28205 17.1253 2.51206 17.0377C2.81157 17.016 3.11474 17.0341 3.41242 17.0341C3.48365 19.3308 5.17205 20.4638 6.65865 20.5406C7.5234 20.5857 8.30505 20.3429 8.97804 19.8048C9.85466 19.1033 10.2674 18.1734 10.272 17.0341C10.419 17.0341 10.5413 17.0341 10.6637 17.0341C11.712 17.0341 18.0675 17.0449 20.6827 17.0305C20.7074 17.0323 20.732 17.0332 20.7576 17.0332C21.9876 17.0359 23.2176 17.0341 24.4485 17.0341C24.5709 17.0341 24.6923 17.0341 24.8403 17.0341C24.8476 17.9766 25.1261 18.7919 25.7644 19.4635C26.4109 20.1433 27.2099 20.5072 28.1522 20.5424C28.9668 20.5731 29.7037 20.3356 30.3465 19.8391C31.2606 19.134 31.677 18.1834 31.6907 17.0639C31.7446 17.0485 31.7665 17.0368 31.7875 17.0368C32.5965 17.035 33.4047 17.0368 34.2137 17.0314C34.7296 17.0278 34.9926 16.7696 34.9953 16.2613C34.999 15.3621 35.0045 14.4611 34.9935 13.5601ZM33.6156 15.6826C32.938 15.6826 32.2906 15.6745 31.6441 15.6871C31.4295 15.6907 31.3062 15.6366 31.1866 15.4406C29.8425 13.245 26.6958 13.2387 25.348 15.428C25.222 15.632 25.0905 15.6889 24.864 15.6871C23.8194 15.6799 22.7747 15.6808 21.7301 15.6817H21.7264C20.3257 15.6835 11.6189 15.6781 10.2181 15.6862C10.0163 15.6871 9.89666 15.6402 9.78434 15.4569C8.41371 13.2261 5.2798 13.2351 3.89456 15.4596C3.8279 15.5661 3.66171 15.6654 3.53661 15.6727C3.07091 15.6979 2.60338 15.6871 2.13585 15.6817C1.63909 15.6754 1.37428 15.4181 1.3688 14.9315C1.36241 14.3907 1.36424 13.8499 1.36789 13.31C1.38159 11.4105 2.54311 9.83514 4.35296 9.20589C4.59951 9.12012 4.85154 8.92692 5.00312 8.71567C5.86513 7.51313 6.6897 6.28351 7.54166 5.07376C8.89494 3.15169 10.7641 2.18118 13.1338 2.16944C14.7966 2.16131 16.4594 2.16583 18.1232 2.16854C20.5348 2.17305 22.4259 3.15982 23.792 5.12341C24.6239 6.31963 25.4603 7.51404 26.2757 8.72108C26.5104 9.06866 26.7935 9.21672 27.2135 9.20228C27.8619 9.17971 28.512 9.18603 29.1613 9.19867C30.5766 9.22756 31.7281 9.79632 32.6376 10.8679C33.8494 12.2944 33.6311 13.9926 33.6156 15.6826Z" fill="white"/>
<path d="M20.0408 9.19494C18.8911 9.19494 17.7424 9.19674 16.5927 9.19403C16.0065 9.19313 15.759 8.9566 15.7563 8.377C15.7508 7.0264 15.7508 5.67671 15.7563 4.32612C15.759 3.76187 16.0083 3.50547 16.5672 3.52172C17.5196 3.54971 18.4848 3.52082 19.4208 3.66707C20.6699 3.86298 21.6735 4.55724 22.4232 5.56386C23.0359 6.38812 23.603 7.24579 24.1892 8.0881C24.3499 8.31832 24.3965 8.56297 24.2632 8.81937C24.1244 9.0875 23.8897 9.19494 23.5911 9.19494C22.4086 9.19404 21.2251 9.19494 20.0408 9.19494Z" fill="white"/>
<path d="M10.6518 9.19515C9.69577 9.19515 8.73879 9.19064 7.78273 9.19786C7.46404 9.19967 7.19284 9.12744 7.0376 8.82771C6.88419 8.53069 6.97733 8.27068 7.16088 8.01158C7.6631 7.30107 8.15346 6.58334 8.64656 5.86742C9.87292 4.08709 11.6134 3.39645 13.7364 3.52284C14.1446 3.54722 14.3811 3.82347 14.3857 4.28481C14.3948 5.12893 14.3884 5.97305 14.3884 6.81807C14.3884 7.33628 14.393 7.85359 14.3866 8.3718C14.3802 8.95591 14.1373 9.19425 13.5547 9.19515C12.5877 9.19696 11.6198 9.19515 10.6518 9.19515Z" fill="white"/>
</svg>
