<svg width="21" height="27" viewBox="0 0 21 27" fill="none" xmlns="http://www.w3.org/2000/svg">
<path d="M9.52032 3.80967C9.52032 3.05619 9.74376 2.31963 10.1624 1.69313C10.581 1.06663 11.176 0.57834 11.8721 0.289995C12.5682 0.00165066 13.3342 -0.0737935 14.0732 0.0732034C14.8122 0.2202 15.491 0.583036 16.0238 1.11583C16.5566 1.64862 16.9195 2.32744 17.0665 3.06644C17.2135 3.80544 17.138 4.57144 16.8497 5.26757C16.5613 5.96369 16.073 6.55868 15.4465 6.97729C14.82 7.39591 14.0835 7.61934 13.33 7.61934C12.32 7.61817 11.3516 7.21642 10.6374 6.50222C9.92324 5.78803 9.52149 4.8197 9.52032 3.80967ZM19.9969 14.2863C16.6044 14.2863 15.0384 12.6041 13.3801 10.8227C12.9603 10.3717 12.5262 9.90526 12.0714 9.48536C7.64013 5.39306 0.573795 12.3618 0.275093 12.6604C0.0982138 12.8393 -0.000681367 13.0809 3.53389e-06 13.3325C0.000688435 13.5841 0.100898 13.8252 0.278749 14.0032C0.456599 14.1811 0.69764 14.2815 0.949235 14.2823C1.20083 14.2832 1.44254 14.1844 1.62157 14.0077C2.72305 12.9504 3.94399 12.0251 5.25969 11.2505C6.96475 10.2797 8.38766 9.93074 9.51163 10.2032L7.40501 15.0484L7.40215 15.055L2.93234 25.3356C2.88248 25.4503 2.8557 25.5737 2.85354 25.6988C2.85137 25.8238 2.87386 25.9481 2.91972 26.0645C2.96557 26.1808 3.0339 26.287 3.1208 26.377C3.20769 26.4669 3.31146 26.5389 3.42616 26.5887C3.65783 26.6894 3.92 26.694 4.15501 26.6014C4.39002 26.5088 4.57862 26.3266 4.67931 26.0949L8.67863 16.8964L12.3776 19.5385V25.7153C12.3776 25.9679 12.4779 26.2101 12.6565 26.3887C12.8351 26.5673 13.0774 26.6677 13.33 26.6677C13.5826 26.6677 13.8248 26.5673 14.0035 26.3887C14.1821 26.2101 14.2824 25.9679 14.2824 25.7153V19.0483C14.2824 18.8967 14.2462 18.7473 14.1769 18.6125C14.1075 18.4777 14.0069 18.3614 13.8836 18.2733L9.4552 15.1101L11.1404 11.2342C11.4187 11.5126 11.6967 11.81 11.9859 12.1207C13.6742 13.9341 15.7753 16.1911 19.9969 16.1911C20.2495 16.1911 20.4918 16.0907 20.6704 15.9121C20.849 15.7335 20.9493 15.4913 20.9493 15.2387C20.9493 14.9861 20.849 14.7438 20.6704 14.5652C20.4918 14.3866 20.2495 14.2863 19.9969 14.2863Z" fill="white"/>
</svg>
