<svg width="74" height="118" viewBox="0 0 74 118" fill="none" xmlns="http://www.w3.org/2000/svg">
<path opacity="0.2" fill-rule="evenodd" clip-rule="evenodd" d="M-35.9843 50.5813C-35.7149 48.1419 -35.4455 45.7787 -35.4071 43.8538C-36.2536 45.55 -36.3883 47.8941 -35.9843 50.5813ZM3.91959 13.4751C3.26542 12.3125 2.1495 11.6455 0.706497 11.3787C1.53382 12.4078 2.64974 13.0939 3.91959 13.4751ZM40.8027 6.30923C15.252 -7.35547 -22.7856 1.73527 -37.2349 28.1689C-46.5663 32.6476 -46.4893 59.3481 -45.6428 66.0756C-42.8722 87.7829 -28.6731 104.726 -8.66341 113.111C19.7157 124.984 53.0202 114.845 67.0654 86.8871C82.7076 55.9939 71.0096 22.5087 40.8027 6.30923ZM62.1207 34.8965C63.2559 37.3169 64.5065 39.9088 65.6994 42.272C70.1631 51.115 55.6753 47.6273 51.0769 47.9132C43.8812 48.3515 36.8201 49.5331 29.8552 51.1912C23.9485 52.6015 18.4073 56.1844 12.5776 57.5566C7.92152 60.6631 -4.21896 71.6215 -8.471 72.6697C-10.1834 70.7258 -11.5687 68.5722 -12.6076 66.209C-18.1103 54.0499 -11.5879 51.2674 -0.851948 43.7204C4.95855 39.6229 11.1346 35.9637 17.7147 33.1622C30.5093 27.7687 55.3867 20.4123 62.1207 34.8965ZM64.872 51.6486C63.6792 55.5365 61.582 67.0476 57.33 67.3906C50.1919 67.9814 42.7075 68.6866 36.012 70.4781C28.9124 72.3648 21.4665 74.9377 15.3289 79.0352C6.20915 85.0766 3.76566 86.1057 -4.623 76.4051C-7.8938 72.6316 16.9259 59.4815 21.4857 57.8425C35.3771 52.8683 49.6147 49.9334 64.872 51.6486ZM42.265 13.3226C43.3809 14.1231 55.7907 21.4795 55.2135 23.2519C50.2881 26.7205 35.8196 24.262 28.7392 25.9772C24.3333 27.0636 20.4275 28.4739 16.1563 29.8842C12.3082 31.142 8.44099 32.8572 4.9393 34.8965C0.514095 37.4884 -3.66099 40.1565 -7.66292 43.3583C-9.62541 44.9401 -17.687 54.5073 -18.2257 51.9154C-19.4571 45.9311 -21.9198 42.4244 -17.3984 37.0691C-11.434 29.9795 -2.64127 26.9683 3.65022 20.7744C11.808 18.8876 19.5233 14.5424 27.7195 12.6747C33.3761 11.3787 37.2433 12.5031 42.265 13.3226ZM22.6017 5.85183C24.1986 6.3664 31.048 6.55698 31.7984 8.04352C29.8936 8.48186 20.3121 10.2162 20.2159 5.68031C21.0047 5.73748 21.8128 5.79466 22.6017 5.85183ZM-20.2267 17.8775C-17.8794 16.3529 -5.64272 10.2162 0.706497 11.3787C0.0523376 10.5592 -0.409428 9.53006 -0.640308 8.2341C0.744976 7.75765 2.11102 7.26214 3.4963 6.78568C6.57471 5.96618 20.4083 3.9079 20.5045 10.3305C17.3684 11.9314 9.2106 15.0569 3.93883 13.4751C4.40059 14.3137 4.61222 15.3809 4.51603 16.7912C1.14902 19.1544 -7.16268 25.3483 -11.2993 25.901C-12.7808 26.0916 -22.5932 20.1645 -22.6894 19.345C-21.8813 18.8495 -21.054 18.354 -20.2267 17.8775ZM-36.119 34.1723C-33.4253 24.8909 -20.7846 15.7049 -14.6086 28.4358C-17.206 31.4851 -18.8222 35.1061 -21.2272 38.0792C-23.6706 41.1285 -36.8501 35.5254 -36.119 34.1723ZM10.4804 113.283C8.21012 113.149 5.97827 112.787 3.76567 112.196C-8.3748 109.261 -22.3816 102.496 -29.789 92.1662C-33.4831 87.0205 -38.6009 78.654 -40.1786 72.2314C-41.2368 67.848 -43.7188 37.1644 -36.042 39.9088C-35.5225 40.5758 -35.3686 42.0052 -35.4071 43.8538C-34.4835 42.0242 -32.7327 40.9188 -29.789 40.9188C-29.4619 41.5096 -25.3638 42.5578 -24.7288 42.6531C-24.5942 46.7125 -23.0357 50.8672 -21.8813 54.6788C-20.6307 58.7192 -19.0723 62.7786 -17.0136 66.514C-12.5691 74.5946 -4.54604 87.2873 5.49727 89.0979C5.67043 93.1763 9.90324 97.5216 9.26831 101.848C0.456375 104.878 -20.8424 86.9824 -23.536 80.7313C-25.1136 77.1484 -34.4258 61.1967 -35.9843 50.6194C-36.523 55.403 -37.1772 60.4535 -36.5038 62.9691C-33.9448 72.5554 -28.3075 81.1697 -21.7082 88.4689C-16.8019 93.9196 -8.83657 100.209 -1.48687 102.21C4.01578 103.677 14.2707 104.821 10.4804 113.283ZM20.4083 113.359C12.3275 114.502 14.2515 107.889 12.9624 102.267C12.1158 98.5888 8.07544 91.3658 8.7296 87.7066C9.34528 84.3524 24.2178 77.2628 25.1798 81.0553C27.3347 89.6506 30.0091 98.2839 30.5093 107.184C30.7979 112.539 25.1991 112.673 20.4083 113.359ZM42.7268 106.098C41.0336 107.07 36.3198 110.424 34.4535 109.471C32.5873 99.6561 27.9312 87.3826 27.0076 77.7011C31.1827 75.2998 38.4555 73.1462 43.0923 73.7942C42.8422 80.3883 46.1707 88.6405 46.9403 95.3871C47.6522 101.695 47.9601 103.067 42.7268 106.098ZM50.442 99.5417C49.7109 98.4173 45.074 73.2605 45.4781 72.4029C46.5555 72.2505 47.633 72.098 48.6912 71.9455C57.0798 69.8301 60.2544 70.0778 62.5632 78.7684C64.3526 85.4387 56.772 97.9218 50.442 99.5417ZM64.2371 77.8726C63.91 76.1193 65.7186 54.7551 69.5666 54.7551C71.4329 58.7763 69.7783 64.2079 68.7393 68.2292C68.316 69.8872 64.8336 81.0553 64.2371 77.8726Z" fill="#D89D4E"/>
</svg>
