<svg width="141" height="159" viewBox="0 0 141 159" fill="none" xmlns="http://www.w3.org/2000/svg">
<g opacity="0.2">
<path d="M167.941 77.2804C165.744 59.0139 160.761 39.5016 148.247 25.5322C136.391 12.2768 122.422 3.64041 104.645 1.0929C104.547 1.0789 104.449 1.0789 104.365 1.0789C104.281 1.05091 104.184 1.02291 104.1 1.02291C70.184 -3.34426 26.0364 5.72602 8.95962 38.8297C-5.73759 67.3003 -2.57419 108.215 20.0875 131.73C44.1489 156.701 85.679 165.394 118.139 154.196C148.961 143.544 171.903 110.146 167.941 77.2804ZM160.901 62.5552C146.735 65.6066 132.43 67.3563 117.943 67.8042C116.529 63.3531 114.15 59.2238 110.538 55.5985C108.201 53.261 105.597 51.4553 102.798 50.0836C105.919 35.8063 108.299 20.9411 114.08 7.47568C123.906 10.4711 132.556 15.6501 140.227 23.1947C151.565 34.3506 157.457 47.1861 160.901 62.5552ZM81.1579 109.95C65.7608 107.557 53.4572 92.9434 52.8693 77.4904C52.2114 60.1197 68.0564 50.9514 83.6494 50.3635C92.4957 50.4615 101.02 52.1832 107.571 58.58C114.584 65.4247 116.193 74.9148 115.157 84.3491C113.366 100.754 97.4088 112.47 81.1579 109.95ZM65.9428 6.25792C67.6505 20.2273 69.946 34.0986 72.8435 47.872C62.0655 50.8954 52.7993 57.8661 49.7339 68.4341C34.8687 67.8742 20.1575 65.0467 5.29231 64.5708C6.04817 59.5318 7.23794 54.5487 8.87563 49.7476C17.512 24.3005 40.7476 10.975 65.9428 6.25792ZM8.83364 104.421C23.3489 99.9981 38.1021 96.7087 53.1352 94.5951C53.2892 94.5671 53.4012 94.5111 53.5271 94.4551C57.8243 102.238 64.655 108.62 72.8435 111.966C70.002 125.263 69.6521 138.939 66.6007 152.25C54.521 149.381 43.0011 144.286 33.245 137.413C21.4592 129.127 13.3828 117.467 8.83364 104.421ZM125.361 146.581C121.428 148.611 117.313 150.235 113.072 151.494C109.642 137.679 105.919 123.948 101.874 110.3C109.335 106.213 115.213 99.4242 117.915 91.1658C132.71 93.9932 147.533 96.5547 162.426 98.8503C161.349 104.253 159.529 109.572 156.786 114.737C149.787 127.895 138.673 139.737 125.361 146.581Z" fill="#D89D4E"/>
<path d="M35.6245 50.5175C37.7381 46.8362 39.8517 43.1409 41.9653 39.4596C42.9731 37.6959 40.2576 36.1142 39.2498 37.8639C37.1362 41.5452 35.0226 45.2405 32.909 48.9218C31.9012 50.6855 34.6167 52.2672 35.6245 50.5175Z" fill="#D89D4E"/>
<path d="M40.2297 52.0992C41.4055 50.8254 42.5813 49.5516 43.7571 48.2779C45.1288 46.7942 42.9032 44.5546 41.5315 46.0523C40.3557 47.3261 39.1799 48.5998 38.0042 49.8736C36.6324 51.3573 38.858 53.5829 40.2297 52.0992Z" fill="#D89D4E"/>
</g>
</svg>
