<svg width="176" height="242" viewBox="0 0 176 242" fill="none" xmlns="http://www.w3.org/2000/svg">
<g opacity="0.2">
<path d="M231.016 116.038C226.287 104.695 206.829 104.49 197.077 101.899C186.87 99.1937 173.3 96.1476 164.866 89.6236C154.432 81.5311 158.274 65.2323 158.706 53.4345C159.229 39.409 160.82 14.063 150.068 2.78805C140.952 -6.75931 129.723 10.7215 125.767 17.6319C120.539 26.8156 115.629 36.2038 110.605 45.5239C103.331 59.0038 96.807 70.0742 79.5763 67.3464C59.4132 64.4367 39.2955 60.4359 19.0642 58.0946C9.76692 57.0262 0.696927 59.0266 0.0377044 70.0742C-0.666982 81.7811 8.63033 89.5327 17.5185 95.1929C24.679 99.7392 31.9759 104.104 39.0455 108.832C41.887 110.741 44.6375 112.81 47.5472 114.629C52.8664 117.97 57.0491 120.948 54.8441 127.427C50.5478 139.997 37.0451 150.386 29.2708 160.82C22.3831 170.094 11.4263 184.847 13.063 197.281C17.2457 229.083 63.8914 190.576 73.0296 182.71C79.4172 177.209 85.3047 169.276 92.6244 165.139C105.195 158.001 111.742 169.23 116.356 179.141C123.903 195.349 128.791 212.83 137.361 228.56C141.521 236.244 150.818 245.95 160.206 239.267C163.411 236.994 164.389 233.493 164.775 229.788C165.775 219.786 164.139 208.693 163.389 198.714C162.684 189.257 161.729 179.801 160.524 170.39C159.706 163.979 158.137 160.115 162.161 154.455C166.753 148.022 171.413 148.885 178.937 147.999C191.485 146.521 203.51 143.953 214.831 138.179C222.605 134.223 235.562 126.926 231.016 116.038ZM192.053 139.156C181.619 141.429 166.548 139.52 157.592 146.408C148.658 153.273 153.091 165.343 154.228 174.777C155.182 182.756 155.955 190.757 156.546 198.759C156.819 202.396 157.069 206.033 157.274 209.693C157.478 213.489 159.751 223.923 157.956 227.197C148.908 243.882 140.043 218.877 137.656 213.353C134.428 205.874 131.609 198.236 128.586 190.667C124.199 179.71 120.13 166.957 110.605 159.251C104.445 154.273 98.9666 153.818 92.0561 157.455C78.4625 164.593 68.0058 178.823 55.617 187.939C50.7751 191.508 45.8196 195.054 40.5685 197.986C36.9769 199.987 32.2942 203.055 27.9524 202.578C14.336 201.123 21.4738 187.484 23.8379 182.619C30.7029 168.458 41.2278 157.342 51.0024 145.226C55.6397 139.474 64.5279 129.654 63.8459 121.607C63.0958 112.605 48.7974 107.195 42.478 102.944C35.4084 98.2162 28.0888 93.9199 20.951 89.3053C15.609 85.8501 -5.44066 68.824 15.1316 64.4367C18.8369 63.6411 26.4748 66.028 30.4074 66.619C36.1131 67.4828 41.796 68.3921 47.479 69.3013C57.5492 70.8926 67.6421 72.4611 77.735 73.9386C88.1462 75.5753 96.898 75.1889 104.65 67.21C114.788 56.7988 120.948 40.8638 127.791 28.225C129.927 24.2696 138.815 3.97011 145.726 8.47101C150.704 11.7217 151.568 30.7027 151.863 35.4764C152.796 51.0932 148.363 68.1647 151.295 83.486C153.296 93.9199 165.071 97.7616 173.822 101.353C180.165 103.967 186.689 106.104 193.304 107.923C200.419 109.878 212.171 109.923 218.309 113.969C236.471 125.994 198.873 137.656 192.053 139.156Z" fill="#D89D4E"/>
<path d="M124.29 103.035C124.153 102.808 123.972 102.603 123.767 102.399C123.426 101.99 123.04 101.717 122.653 101.535C118.811 98.8754 112.901 98.9891 109.264 101.876C104.195 105.9 104.218 113.424 108.355 118.084C112.628 122.903 120.698 124.221 125.631 119.675C131.155 114.56 128.313 107.945 124.29 103.035ZM121.107 114.56C118.857 116.788 114.879 115.447 113.151 113.242C111.742 111.446 111.56 108.468 113.651 107.082C114.947 106.218 117.766 106.127 118.925 107.241C120.494 109.037 123.449 112.242 121.107 114.56Z" fill="#D89D4E"/>
<path d="M122.017 93.3516C130.086 73.9159 136.701 54.0256 141.839 33.6124C142.634 30.4299 137.702 29.066 136.906 32.2485C131.769 52.6616 125.154 72.552 117.084 91.9877C115.811 95.0337 120.766 96.3522 122.017 93.3516Z" fill="#D89D4E"/>
<path d="M200.259 122.448C189.053 122.403 176.755 123.79 166.071 120.13C155.932 116.629 146.431 114.879 135.747 113.924C132.473 113.628 132.496 118.743 135.747 119.039C142.407 119.63 149.158 120.198 155.637 121.948C161.024 123.403 166.003 126.017 171.526 126.949C180.824 128.54 190.871 127.563 200.259 127.586C203.556 127.563 203.556 122.448 200.259 122.448Z" fill="#D89D4E"/>
<path d="M123.699 133.587C122.153 130.677 117.72 133.269 119.289 136.178C131.632 159.228 131.973 186.097 141.611 210.125C142.816 213.148 147.772 211.83 146.544 208.761C136.724 184.279 136.269 157.069 123.699 133.587Z" fill="#D89D4E"/>
<path d="M93.9883 124.972C82.0768 132.7 70.2108 141.429 60.1406 151.477C54.7759 156.842 50.2068 162.956 45.1604 168.617C40.4549 173.913 37.7498 180.824 32.5897 185.665C30.1801 187.916 33.7945 191.53 36.204 189.28C41.0232 184.756 43.3646 178.55 47.5472 173.527C52.139 168.026 56.8445 162.343 61.7546 157.137C71.893 146.408 84.2136 137.429 96.5797 129.404C99.3303 127.586 96.7616 123.176 93.9883 124.972Z" fill="#D89D4E"/>
<path d="M92.5562 100.421C72.2112 91.0559 49.8658 86.5777 30.0664 76.0756C27.1567 74.5298 24.5653 78.9398 27.475 80.4856C47.2971 90.9877 69.597 95.4658 89.9647 104.831C92.9426 106.195 95.534 101.785 92.5562 100.421Z" fill="#D89D4E"/>
</g>
</svg>
