<svg width="657" height="1086" viewBox="0 0 657 1086" fill="none" xmlns="http://www.w3.org/2000/svg">
<g style="mix-blend-mode:multiply">
<path d="M236.291 -33C234.292 38.4469 230.845 108.104 225.538 175.697C455.832 377.51 574.046 550.483 570.944 547.317C545.509 521.437 432.396 401.601 218.093 257.193C217.611 262.08 217.059 266.898 216.508 271.785C471.272 503.609 628.707 801.511 626.295 797.794C604.513 763.448 511.251 587.996 197.001 412.477C194.244 428.445 191.349 444.139 188.247 459.764C444.665 636.11 646.629 946.333 642.976 942.478C606.856 904.896 398.551 675.481 129.243 676.858C96.2947 767.027 54.0408 847.56 0 916.322C472.581 766.407 639.322 935.732 653.246 1085.65C654.832 1102.44 719.97 516.618 236.291 -33Z" fill="url(#paint0_linear_79_771)" fill-opacity="0.1"/>
</g>
<defs>
<linearGradient id="paint0_linear_79_771" x1="0" y1="527" x2="657" y2="527" gradientUnits="userSpaceOnUse">
<stop offset="0.772033" stop-color="#00354E"/>
<stop offset="1" stop-color="#00354E" stop-opacity="0"/>
</linearGradient>
</defs>
</svg>
