<svg version="1.2" xmlns="http://www.w3.org/2000/svg" viewBox="0 0 657 786" width="657" height="786">
	<title>Vector-svg</title>
	<defs>
		<linearGradient id="g1" x2="1" gradientUnits="userSpaceOnUse" gradientTransform="matrix(657,0,0,1118.812,0,398)">
			<stop offset=".772" stop-color="#00354e" stop-opacity="1"/>
			<stop offset="1" stop-color="#00354e" stop-opacity="0"/>
		</linearGradient>
	</defs>
	<style>
		.s0 { opacity: .1;mix-blend-mode: multiply;fill: url(#g1) } 
	</style>
	<g id="Layer">
		<path id="Layer" class="s0" d="m236.3-162c-2 71.4-5.5 141.1-10.8 208.7 230.3 201.8 348.5 374.8 345.4 371.6-25.4-25.9-138.5-145.7-352.8-290.1-0.5 4.9-1 9.7-1.6 14.6 254.8 231.8 412.2 529.7 409.8 526-21.8-34.4-115-209.8-429.3-385.3-2.8 15.9-5.7 31.6-8.8 47.3 256.5 176.3 458.4 486.5 454.8 482.7-36.1-37.6-244.4-267-513.8-265.6-32.9 90.1-75.2 170.7-129.2 239.4 472.6-149.9 639.3 19.4 653.2 169.4 1.6 16.7 66.8-569.1-416.9-1118.7z"/>
	</g>
</svg>