<svg width="91" height="32" viewBox="0 0 91 32" fill="none" xmlns="http://www.w3.org/2000/svg">
<g clip-path="url(#clip0_113_345)">
<path d="M2.03232 9.19901C2.03232 8.77986 1.80882 8.58565 1.41688 8.58565H0.30127V5.57427H3.67891C4.99189 5.57427 5.5504 6.15922 5.5504 7.46931V16.1919C5.5504 16.5831 5.77296 16.8071 6.16396 16.8071H7.28144V19.7877H3.90287C2.59082 19.7877 2.03232 19.2312 2.03232 17.8927V9.19901ZM2.19889 0H5.27091V3.26008H2.19889V0Z" fill="#007CB2"/>
<path d="M9.30131 9.19901C9.30131 8.77986 9.07781 8.58565 8.68681 8.58565H7.57026V5.57427H10.8364C12.092 5.57427 12.7069 6.15922 12.7069 7.16193V7.58108C12.7051 7.7874 12.6864 7.99325 12.6519 8.19677H12.7079C13.3214 6.998 14.8575 5.24268 17.7326 5.24268C20.8886 5.24268 22.705 6.88622 22.705 10.6502V16.1923C22.705 16.5836 22.9266 16.8076 23.3195 16.8076H24.4361V19.7882H21.0561C19.7156 19.7882 19.1575 19.2317 19.1575 17.8932V11.373C19.1575 9.64332 18.7105 8.47481 16.9244 8.47481C15.024 8.47481 13.6014 9.67266 13.0984 11.373C12.9034 11.9584 12.8185 12.5988 12.8185 13.2671V19.7873H9.30038L9.30131 9.19901Z" fill="#007CB2"/>
<path d="M25.3734 8.38988H23.5304V5.5741H25.457V1.7002H27.4474L28.9191 3.33023V5.5741H32.1586V8.38988H28.9191V14.1299C28.9191 16.4707 30.7625 16.8069 31.741 16.8069C31.9561 16.8097 32.1712 16.7911 32.383 16.7515V19.8449C32.0233 19.9021 31.6589 19.9296 31.2945 19.9273C29.3124 19.9273 25.3734 19.3419 25.3734 14.5766V8.38988ZM25.457 1.7002H27.4474C28.8822 1.7002 28.9191 3.33023 28.9191 3.33023" fill="#007CB2"/>
<path d="M83.6808 8.38988H81.8373V5.5741H83.7629V1.7002H85.7534L87.2254 3.33023V5.5741H90.464V8.38988H87.2268V14.1299C87.2268 16.4707 89.0694 16.8069 90.0469 16.8069C90.2629 16.8097 90.4785 16.7911 90.6908 16.7515V19.8449C90.3306 19.9021 89.9667 19.9296 89.6018 19.9273C87.6197 19.9273 83.6808 19.3419 83.6808 14.577V8.38988ZM83.7629 1.7002H85.7534C87.1872 1.7002 87.2254 3.33023 87.2254 3.33023" fill="#007CB2"/>
<path d="M39.7808 5.24023C43.8588 5.24023 46.0919 8.22088 46.0919 11.9844C46.0919 12.4036 46.0083 13.2945 46.0083 13.2945H36.1787C36.4587 15.8034 38.3026 17.1134 40.4522 17.1134C41.5953 17.1134 42.5883 16.7031 43.3063 16.3189C44.6566 15.597 45.4559 17.201 45.4559 17.201L45.9225 17.9783C45.9225 17.9783 43.7445 20.123 40.1984 20.123C35.4793 20.123 32.5463 16.7232 32.5463 12.6811C32.5501 8.30564 35.511 5.24023 39.7808 5.24023ZM42.4609 10.8415C42.4053 9.14208 41.2328 7.97078 39.7808 7.97078C37.9658 7.97078 36.6817 9.05825 36.2916 10.8415H42.4609Z" fill="#007CB2"/>
<path d="M48.0735 9.19879C48.0735 8.77963 47.85 8.58543 47.4594 8.58543H46.3396V5.57405H49.5806C50.8362 5.57405 51.4782 6.10404 51.4782 7.30142V8.1374C51.48 8.43593 51.4618 8.73446 51.4231 9.03066H51.4782C52.1221 6.99544 53.8228 5.37891 56.0041 5.37891C56.2192 5.38217 56.4334 5.40033 56.6456 5.43386V8.91889C56.3582 8.87976 56.0685 8.86114 55.7787 8.86253C54.2721 8.86253 52.5411 9.72645 51.8972 11.8432C51.69 12.5972 51.5869 13.3754 51.5902 14.1569V19.788H48.0721L48.0735 9.19879Z" fill="#007CB2"/>
<path d="M59.7447 9.19888C59.7447 8.77973 59.5189 8.58552 59.1288 8.58552H58.009V5.57414H61.2751C62.5349 5.57414 63.1457 6.15909 63.1457 7.1618V7.58095C63.1434 7.78633 63.1247 7.99125 63.0906 8.19384H63.1508C63.7672 6.99507 65.3023 5.23975 68.1765 5.23975C71.3329 5.23975 73.147 6.88329 73.147 10.6473V16.1894C73.147 16.5806 73.3705 16.8046 73.7615 16.8046H74.879V19.7853H71.4995C70.1595 19.7853 69.6014 19.2287 69.6014 17.8902V11.3701C69.6014 9.64039 69.1544 8.47188 67.3679 8.47188C65.4698 8.47188 64.0448 9.66973 63.5418 11.3701C63.3468 11.9555 63.2619 12.5959 63.2619 13.2642V19.7844H59.7447V9.19888Z" fill="#007CB2"/>
<path d="M76.3581 9.19896C76.3581 8.77981 76.1341 8.5856 75.7436 8.5856H74.6289V5.57422H78.0052C79.3209 5.57422 79.8785 6.15917 79.8785 7.46926V16.1918C79.8785 16.583 80.1011 16.8071 80.4926 16.8071H81.6077V19.7877H78.2291C76.9176 19.7877 76.3595 19.2312 76.3595 17.8927L76.3581 9.19896Z" fill="#007CB2"/>
<path d="M79.5967 0H76.5261V3.26194H79.5967V0Z" fill="#C3324E"/>
<path d="M35.1205 24.5654C35.7938 24.5654 37.0078 24.8407 37.0078 25.7367V26.3478H35.8652V26.0627C35.8652 25.7777 35.4364 25.6552 35.1186 25.6552C34.2204 25.6552 33.5789 26.3375 33.5789 27.2746C33.5789 28.3336 34.3646 28.8734 35.2012 28.8734C36.0877 28.8734 36.741 28.1706 36.741 28.1706L37.2817 29.0671C37.2817 29.0671 36.5063 30.0037 35.0888 30.0037C33.3745 30.0037 32.2724 28.7928 32.2724 27.2848C32.2734 25.8182 33.3358 24.5654 35.1205 24.5654Z" fill="#BCBEC0"/>
<path d="M38.2816 26.0115C38.2816 25.8592 38.2 25.7875 38.0572 25.7875H37.6494V24.6879H38.8327C39.2918 24.6879 39.5265 24.8812 39.5265 25.319V25.6245C39.5274 25.7335 39.5204 25.8425 39.506 25.9505H39.5265C39.7598 25.2054 40.3836 24.6162 41.1791 24.6162C41.2571 24.6176 41.3355 24.6246 41.4124 24.6367V25.91C41.3075 25.896 41.202 25.889 41.0961 25.8895C40.5451 25.8895 39.9124 26.2053 39.6777 26.9793C39.6021 27.2545 39.5643 27.5391 39.5657 27.8246V29.8817H38.2816V26.0115Z" fill="#BCBEC0"/>
<path d="M42.5276 26.0116C42.5276 25.8593 42.4459 25.7875 42.3032 25.7875H41.8949V24.688H43.1295C43.6091 24.688 43.813 24.9017 43.813 25.3805V28.5679C43.813 28.7104 43.8947 28.7919 44.0375 28.7919H44.4457V29.8817H43.2111C42.7315 29.8817 42.5276 29.6782 42.5276 29.1892V26.0116ZM42.5887 22.6509H43.7113V23.845H42.5887V22.6509Z" fill="#BCBEC0"/>
<path d="M48.1187 26.6229H48.282V26.5824C48.282 25.8373 47.9862 25.5639 47.3232 25.5639C47.0899 25.5639 46.6294 25.6249 46.6294 25.9104V26.1852H45.4251V25.6351C45.4251 24.6678 46.7927 24.564 47.3335 24.564C49.0678 24.564 49.5778 25.4703 49.5778 26.6313V28.5664C49.5778 28.7089 49.6594 28.7904 49.8027 28.7904H50.2105V29.8802H49.0472C48.5681 29.8802 48.3842 29.6152 48.3842 29.3097C48.3838 29.2347 48.3875 29.1602 48.3945 29.0857H48.374C48.374 29.0857 47.976 30.0022 46.8025 30.0022C45.8744 30.0022 45.0294 29.4219 45.0294 28.3834C45.0276 26.7557 47.2723 26.6229 48.1187 26.6229ZM47.1188 28.9981C47.8126 28.9981 48.3026 28.2646 48.3026 27.6331V27.5111H48.08C47.4067 27.5111 46.3354 27.6042 46.3354 28.3256C46.3336 28.6703 46.5869 28.9963 47.1188 28.9963V28.9981Z" fill="#BCBEC0"/>
<path d="M53.5778 24.5654C54.2511 24.5654 55.4652 24.8407 55.4652 25.7367V26.3478H54.3225V26.0627C54.3225 25.7777 53.8942 25.6552 53.576 25.6552C52.6778 25.6552 52.0362 26.3375 52.0362 27.2746C52.0362 28.3336 52.8215 28.8734 53.6585 28.8734C54.5451 28.8734 55.1983 28.1706 55.1983 28.1706L55.7391 29.0671C55.7391 29.0671 54.9837 29.9837 53.5862 30.0037L53.5144 30.3297C53.9226 30.3809 54.2492 30.625 54.2492 31.1038C54.2492 31.7758 53.6982 31.9998 53.1574 31.9998C52.9447 32.0003 52.7324 31.9761 52.5247 31.9286V31.2155C52.6689 31.2668 52.8205 31.2942 52.9736 31.297C53.2069 31.297 53.4126 31.2258 53.4126 31.012C53.4126 30.8187 53.1985 30.7372 52.9227 30.7372C52.8509 30.7386 52.7795 30.7451 52.7086 30.7577L52.933 29.9427C51.5762 29.6982 50.7293 28.6186 50.7293 27.2848C50.7312 25.8182 51.7922 24.5654 53.5778 24.5654Z" fill="#BCBEC0"/>
<path d="M59.322 26.6226H59.4853V26.5821C59.4853 25.8369 59.1895 25.5635 58.526 25.5635C58.2927 25.5635 57.8322 25.6245 57.8322 25.91V26.1848H56.6284V25.6348C56.6284 24.6675 57.9955 24.5636 58.5363 24.5636C60.271 24.5636 60.781 25.4699 60.781 26.631V28.5661C60.781 28.7086 60.8627 28.7901 61.0055 28.7901H61.4137V29.8799H60.2505C59.7709 29.8799 59.587 29.6149 59.587 29.3093C59.5866 29.2344 59.5903 29.1599 59.5973 29.0853H59.5772C59.5772 29.0853 59.1792 30.0019 58.0058 30.0019C57.0772 30.0019 56.2327 29.4216 56.2327 28.383C56.2304 26.7553 58.4751 26.6226 59.322 26.6226ZM57.975 22.6406C58.679 22.6406 58.8526 23.3029 59.2814 23.3029C59.5674 23.3029 59.7013 22.9974 59.7013 22.6714H60.5076C60.5076 23.5879 60.1199 24.0685 59.3444 24.0685C58.6403 24.0685 58.4667 23.4063 58.038 23.4063C57.7519 23.4063 57.618 23.702 57.618 24.0378H56.8122C56.8122 23.1091 57.2 22.6406 57.975 22.6406ZM58.3221 28.9959C59.0159 28.9959 59.5058 28.2624 59.5058 27.6309V27.5089H59.2809C58.6077 27.5089 57.5364 27.602 57.5364 28.3234C57.5364 28.6699 57.7916 28.9959 58.3221 28.9959Z" fill="#BCBEC0"/>
<path d="M64.7806 24.5654C66.3726 24.5654 67.6376 25.6962 67.6376 27.2848C67.6376 28.8836 66.3726 30.0037 64.7806 30.0037C63.1994 30.0037 61.9344 28.886 61.9344 27.2848C61.934 25.6962 63.1975 24.5654 64.7806 24.5654ZM64.7806 28.9041C65.6275 28.9041 66.3316 28.2521 66.3316 27.2848C66.3316 26.3273 65.6275 25.6655 64.7806 25.6655C63.944 25.6655 63.2409 26.3273 63.2409 27.2848C63.2399 28.2521 63.944 28.9041 64.7806 28.9041Z" fill="#BCBEC0"/>
<path d="M71.1986 25.9711C71.1472 25.8183 71.0656 25.7876 70.9125 25.7876H70.7698V24.688H71.6563C72.0846 24.688 72.289 24.8203 72.3907 25.2175L73.1559 28.0994C73.2012 28.2806 73.2357 28.4641 73.2581 28.6494H73.2786C73.308 28.4636 73.3486 28.2801 73.4009 28.0994L74.3597 24.708H75.5028L76.472 28.0994C76.5237 28.2797 76.5611 28.4636 76.5844 28.6494H76.6045C76.6269 28.4641 76.6614 28.2806 76.7066 28.0994L77.4616 25.2175C77.5638 24.8203 77.7677 24.688 78.1965 24.688H79.083V25.7876H78.9402C78.7872 25.7876 78.7158 25.8183 78.6547 25.9711L77.4098 29.8832H75.9508L75.0643 26.9197C75.012 26.7363 74.9709 26.5495 74.942 26.3609H74.9215C74.9215 26.3609 74.8706 26.6459 74.789 26.9197L73.9113 29.8832H72.442L71.1986 25.9711Z" fill="#BCBEC0"/>
<path d="M82.0547 24.5654C83.5441 24.5654 84.3606 25.6552 84.3606 27.0301C84.3606 27.1828 84.3298 27.5088 84.3298 27.5088H80.7371C80.8392 28.4254 81.5125 28.906 82.2983 28.906C83.1349 28.906 83.7573 28.3252 83.7573 28.3252L84.2981 29.2213C84.2981 29.2213 83.5021 30.0056 82.2063 30.0056C80.48 30.0056 79.4105 28.7635 79.4105 27.2867C79.4119 25.686 80.4935 24.5654 82.0547 24.5654ZM83.0345 26.6123C83.014 25.9915 82.5857 25.5635 82.0547 25.5635C81.3912 25.5635 80.9218 25.9607 80.779 26.6123H83.0345Z" fill="#BCBEC0"/>
<path d="M85.5746 23.9749C85.5746 23.8222 85.493 23.7509 85.3502 23.7509H84.9406V22.6509H86.1751C86.6548 22.6509 86.869 22.8646 86.869 23.3434V24.851C86.8694 24.9972 86.8624 25.1434 86.8484 25.2887H86.869C86.869 25.2887 87.3281 24.5655 88.4302 24.5655C89.8383 24.5655 90.7361 25.6758 90.7361 27.2848C90.7361 28.9344 89.7259 30.0038 88.3485 30.0038C87.267 30.0038 86.7976 29.2707 86.7976 29.2707H86.7775C86.7915 29.3857 86.798 29.5012 86.7976 29.6167V29.8817H85.5732L85.5746 23.9749ZM88.1255 28.9144C88.8296 28.9144 89.4319 28.3337 89.4319 27.3049C89.4319 26.3171 88.9014 25.6748 88.1362 25.6748C87.4629 25.6748 86.8298 26.1634 86.8298 27.3142C86.8298 28.1199 87.2581 28.9144 88.1255 28.9144Z" fill="#BCBEC0"/>
</g>
<defs>
<clipPath id="clip0_113_345">
<rect width="90.4348" height="32" fill="white" transform="translate(0.30127)"/>
</clipPath>
</defs>
</svg>
