<svg width="106" height="72" viewBox="0 0 106 72" fill="none" xmlns="http://www.w3.org/2000/svg">
<path d="M83.3159 36.1956C67.3049 30.6631 59.9259 39.5896 56.3733 42.3765H67.1554C68.7121 40.6197 74.7252 34.9631 85.0451 38.5433C96.8942 42.6547 97.9841 43.0985 102.999 38.0282C97.2667 43.7424 93.6198 40.8014 83.3159 36.1956Z" fill="#84D2DF"/>
<path d="M103.344 37.6788C103.227 37.7984 103.112 37.9157 102.999 38.0284C103.114 37.9157 103.229 37.8007 103.344 37.6788Z" fill="#84D2DF"/>
<path d="M73.9181 0C73.8514 2.38683 73.7364 4.71387 73.5594 6.97193C81.2418 13.7139 85.1854 19.4924 85.0819 19.3867C84.2334 18.5221 80.46 14.5187 73.311 9.69448C73.2949 9.85774 73.2765 10.0187 73.2581 10.182C81.7569 17.9265 87.0089 27.8785 86.9284 27.7543C86.2017 26.6069 83.0906 20.7456 72.6074 14.882C72.5154 15.4155 72.4188 15.9398 72.3154 16.4618C80.8693 22.3529 87.6067 32.7166 87.4848 32.5878C86.2799 31.3323 79.331 23.6682 70.347 23.7142C69.2479 26.7265 67.8383 29.4169 66.0356 31.714C81.8006 26.7058 87.363 32.3624 87.8275 37.3706C87.8803 37.9317 90.0533 18.3611 73.9181 0Z" fill="#84D2DF"/>
<path d="M11.5064 69.6434C11.7893 70.4482 12.0307 70.9702 12.2331 71.207C12.4354 71.4439 12.6907 71.5634 12.9988 71.5634H13.0724L13.0793 71.6945C12.9965 71.706 12.9252 71.7129 12.8608 71.7198C12.7964 71.7244 12.739 71.729 12.6861 71.729C12.5251 71.729 12.3779 71.7106 12.2446 71.6715C12.1112 71.6347 11.987 71.5749 11.8698 71.4967C11.6536 71.3496 11.403 70.915 11.1155 70.1952C11.0328 69.9837 10.9684 69.8204 10.9178 69.7055L10.3245 69.6848L10.0578 70.9426C10.0463 70.9909 10.0371 71.0368 10.0325 71.0782C10.0279 71.1196 10.0233 71.1541 10.0233 71.1794C10.0233 71.299 10.0716 71.3887 10.1659 71.4439C10.2601 71.5013 10.4073 71.5289 10.6051 71.5289L10.612 71.6853H8.71262L8.71951 71.5289C8.95406 71.522 9.12422 71.4783 9.22999 71.3979C9.33577 71.3174 9.41165 71.1771 9.45764 70.9748L10.113 67.8728C10.1268 67.8153 10.136 67.767 10.1406 67.7279C10.1452 67.6889 10.1498 67.6567 10.1498 67.6337C10.1498 67.5164 10.0992 67.4267 10.0003 67.3692C9.90143 67.3117 9.75197 67.2818 9.55421 67.2818L9.54732 67.1255C9.76346 67.1301 10.0555 67.1324 10.4211 67.1347C11.2673 67.1416 11.7824 67.1669 11.9663 67.2083C12.2906 67.2933 12.5389 67.4267 12.7091 67.6084C12.8792 67.79 12.9643 68.0154 12.9643 68.2798C12.9643 68.627 12.8355 68.9214 12.578 69.1605C12.3228 69.4042 11.964 69.5652 11.5064 69.6434ZM10.3705 69.487C10.3751 69.487 10.382 69.487 10.3935 69.487C10.5154 69.4962 10.6028 69.5008 10.6579 69.5008C11.1891 69.5008 11.603 69.3904 11.8951 69.1697C12.1871 68.9489 12.3342 68.6385 12.3342 68.243C12.3342 67.9372 12.24 67.7141 12.0491 67.5739C11.8583 67.4336 11.5593 67.3623 11.1523 67.3623C11.0856 67.3623 10.9822 67.3646 10.8442 67.3715L10.8212 67.3738L10.3705 69.487Z" fill="black"/>
<path d="M17.2505 71.2438C16.963 71.4439 16.7331 71.5864 16.5583 71.6715C16.3859 71.7566 16.2364 71.798 16.1145 71.798C15.8984 71.798 15.719 71.7037 15.5742 71.5151C15.4293 71.3266 15.358 71.0851 15.358 70.7931C15.358 70.5287 15.4063 70.2619 15.5006 69.9952C15.5972 69.7285 15.7259 69.4985 15.8915 69.3077C16.0479 69.1237 16.2203 68.9789 16.4112 68.8754C16.602 68.7719 16.7883 68.7213 16.9699 68.7213C17.1424 68.7213 17.2804 68.765 17.3838 68.8524C17.485 68.9398 17.5379 69.0524 17.5379 69.1927C17.5379 69.4181 17.4022 69.6273 17.1286 69.8251C16.855 70.0228 16.4503 70.2022 15.9122 70.3654C15.8915 70.4643 15.8777 70.554 15.8662 70.6345C15.857 70.7149 15.8501 70.7862 15.8478 70.8437C15.8478 71.0461 15.8961 71.207 15.9904 71.3266C16.0869 71.4462 16.2111 71.5059 16.3675 71.5059C16.5077 71.5059 16.7676 71.3887 17.1447 71.1564L17.1884 71.1288L17.2505 71.2438ZM15.9513 70.1976C16.333 70.0918 16.6227 69.9515 16.8205 69.7791C17.0159 69.6089 17.1148 69.4065 17.1148 69.1743C17.1148 69.0846 17.0895 69.0133 17.0412 68.9605C16.9929 68.9076 16.9262 68.88 16.8412 68.88C16.6526 68.88 16.4847 68.9881 16.3376 69.2065C16.1904 69.4249 16.0639 69.7561 15.9513 70.1976Z" fill="black"/>
<path d="M19.4993 71.4346C19.4993 71.3657 19.5223 71.3082 19.566 71.2645C19.6097 71.2208 19.6695 71.1978 19.7408 71.1978C19.8281 71.1978 19.9592 71.2507 20.134 71.3542C20.3087 71.4576 20.449 71.5105 20.5548 71.5105C20.656 71.5105 20.7364 71.4737 20.8008 71.3978C20.8652 71.3243 20.8951 71.2277 20.8951 71.1127C20.8951 70.9725 20.7801 70.7563 20.5502 70.4643C20.5295 70.439 20.5157 70.4229 20.5065 70.4114C20.3501 70.209 20.2466 70.0527 20.1984 69.9446C20.1478 69.8365 20.1225 69.733 20.1225 69.6365C20.1225 69.4226 20.226 69.218 20.4329 69.0202C20.6399 68.8225 20.8606 68.7259 21.0928 68.7259C21.2469 68.7259 21.3665 68.7604 21.4539 68.8271C21.5412 68.8938 21.5849 68.9857 21.5849 69.103C21.5849 69.1766 21.5619 69.2387 21.5182 69.2893C21.4746 69.3398 21.4171 69.3651 21.3504 69.3651C21.3136 69.3651 21.2814 69.3559 21.2515 69.3352C21.2216 69.3145 21.1871 69.2778 21.1457 69.2226C21.1319 69.2019 21.1135 69.1743 21.0928 69.1398C21.017 69.0179 20.9319 68.9558 20.8399 68.9558C20.7502 68.9558 20.6651 69.0041 20.5847 69.0984C20.5042 69.1927 20.4628 69.2962 20.4628 69.4065C20.4628 69.4594 20.4743 69.5146 20.4973 69.5744C20.5203 69.6319 20.5502 69.6848 20.587 69.7353C20.633 69.7951 20.7042 69.8779 20.7962 69.986C21.0905 70.324 21.2377 70.6022 21.2377 70.8184C21.2377 71.1104 21.1365 71.3381 20.9365 71.5036C20.7341 71.6692 20.4605 71.752 20.111 71.752C19.9132 71.752 19.7615 71.7244 19.658 71.6715C19.5499 71.614 19.4993 71.5358 19.4993 71.4346Z" fill="black"/>
<path d="M24.6156 70.9495C24.5926 71.0438 24.5765 71.1197 24.5673 71.1841C24.5581 71.2461 24.5512 71.2921 24.5512 71.3243C24.5512 71.345 24.5604 71.3634 24.5765 71.3841C24.5926 71.4048 24.611 71.414 24.6294 71.414C24.6823 71.414 24.7582 71.3634 24.857 71.2645C24.9559 71.1657 25.0778 71.0139 25.225 70.8115L25.2985 70.8851C25.0755 71.1978 24.8892 71.4163 24.7421 71.5428C24.5926 71.6692 24.4523 71.7336 24.319 71.7336C24.2293 71.7336 24.1649 71.7083 24.1212 71.66C24.0798 71.6118 24.0568 71.5359 24.0568 71.4324C24.0568 71.3956 24.0591 71.3496 24.066 71.299C24.0729 71.2484 24.0821 71.1909 24.0959 71.1243L24.4293 69.5055C24.4316 69.4986 24.4316 69.4917 24.4316 69.4848C24.45 69.3951 24.4592 69.333 24.4592 69.2985C24.4592 69.287 24.4546 69.2801 24.4454 69.2732C24.4362 69.2686 24.4248 69.264 24.4087 69.264C24.3719 69.264 24.3236 69.2985 24.2638 69.3652C24.2017 69.4319 24.135 69.5262 24.0614 69.648L23.9511 69.5836C24.1557 69.2985 24.3374 69.0801 24.4983 68.9283C24.6593 68.7765 24.7881 68.7006 24.8892 68.7006C24.9329 68.7006 24.9674 68.7144 24.9904 68.742C25.0134 68.7696 25.0249 68.811 25.0249 68.8639C25.0249 68.8961 25.0226 68.9329 25.0157 68.9743C25.0111 69.0157 25.0019 69.0617 24.9904 69.1122L24.6156 70.9495ZM25.3652 67.475C25.3652 67.5923 25.3261 67.7027 25.2457 67.8016C25.1652 67.9004 25.0801 67.951 24.9881 67.951C24.9283 67.951 24.8777 67.9234 24.8341 67.8682C24.7927 67.8131 24.7697 67.7418 24.7697 67.659C24.7697 67.5279 24.8088 67.4107 24.8846 67.3095C24.9605 67.2083 25.0479 67.1577 25.1445 67.1577C25.2135 67.1577 25.2663 67.1853 25.3054 67.2428C25.3468 67.2957 25.3652 67.3739 25.3652 67.475Z" fill="black"/>
<path d="M30.0285 67.5118C30.0331 67.4819 30.0377 67.4521 30.0446 67.4199C30.0515 67.3877 30.0538 67.3693 30.0538 67.3693C30.0538 67.3394 30.0515 67.321 30.0446 67.3118C30.04 67.3026 30.0285 67.298 30.0124 67.298C29.9733 67.298 29.9135 67.321 29.8354 67.367C29.7572 67.413 29.6652 67.4796 29.5617 67.5647L29.4858 67.4475C29.8262 67.1876 30.0653 67.0152 30.2056 66.9347C30.3458 66.8542 30.4539 66.8128 30.5321 66.8128C30.5528 66.8128 30.5689 66.822 30.5827 66.8427C30.5965 66.8634 30.6034 66.8887 30.6034 66.9232C30.6034 66.9531 30.5988 66.9945 30.5919 67.0473C30.585 67.1002 30.5735 67.1531 30.5643 67.2083L29.7963 70.9886C29.7871 71.0277 29.7802 71.0599 29.7756 71.0898C29.771 71.1197 29.7687 71.1404 29.7687 71.1565C29.7687 71.1795 29.7733 71.1979 29.7848 71.2117C29.7963 71.2254 29.8124 71.2323 29.8308 71.2323C29.8607 71.2323 29.9043 71.2048 29.9664 71.1519C30.0285 71.099 30.1067 71.0139 30.2056 70.9012L30.3021 70.984C30.2608 71.0254 30.201 71.0852 30.1274 71.1611C29.7158 71.5819 29.4514 71.7911 29.3364 71.7911C29.2927 71.7911 29.2582 71.7773 29.2352 71.7497C29.2122 71.7221 29.2007 71.6807 29.2007 71.6279C29.2007 71.6072 29.203 71.5819 29.2076 71.5474C29.2122 71.5129 29.2214 71.4577 29.2352 71.3795L29.3778 70.6828C29.065 71.0576 28.8121 71.3266 28.6144 71.4968C28.4166 71.6646 28.2579 71.7497 28.1361 71.7497C28.0027 71.7497 27.8854 71.66 27.7865 71.4784C27.6854 71.299 27.6371 71.076 27.6371 70.8138C27.6371 70.5701 27.6716 70.3425 27.7383 70.124C27.8072 69.9079 27.9061 69.7032 28.0395 69.5147C28.2188 69.264 28.4212 69.0686 28.6465 68.9329C28.8696 68.7949 29.0949 68.7283 29.3203 68.7283C29.3801 68.7283 29.4467 68.7351 29.518 68.7489C29.5893 68.7627 29.6721 68.7834 29.7641 68.8133L30.0285 67.5118ZM29.702 69.0962C29.6284 69.0364 29.5548 68.9904 29.4789 68.9628C29.4054 68.9329 29.3295 68.9191 29.2559 68.9191C28.9593 68.9191 28.7017 69.0939 28.4787 69.4457C28.2579 69.7975 28.1476 70.2229 28.1476 70.7219C28.1476 70.9127 28.1752 71.0691 28.228 71.191C28.2809 71.3128 28.3476 71.3726 28.4281 71.3726C28.4971 71.3726 28.6144 71.2944 28.7776 71.1381C28.9409 70.9817 29.1616 70.738 29.4399 70.4091L29.702 69.0962Z" fill="black"/>
<path d="M34.6228 71.2438C34.3354 71.4439 34.1054 71.5864 33.9307 71.6715C33.7582 71.7566 33.6088 71.798 33.4869 71.798C33.2707 71.798 33.0914 71.7037 32.9465 71.5151C32.8016 71.3266 32.7304 71.0851 32.7304 70.7931C32.7304 70.5287 32.7787 70.2619 32.8729 69.9952C32.9695 69.7285 33.0983 69.4985 33.2638 69.3077C33.4202 69.1237 33.5927 68.9789 33.7835 68.8754C33.9744 68.7719 34.1606 68.7213 34.3423 68.7213C34.5147 68.7213 34.6527 68.765 34.7562 68.8524C34.8597 68.9398 34.9102 69.0524 34.9102 69.1927C34.9102 69.4181 34.7746 69.6273 34.5009 69.8251C34.2273 70.0228 33.8226 70.2022 33.2845 70.3654C33.2638 70.4643 33.25 70.554 33.2385 70.6345C33.2293 70.7149 33.2224 70.7862 33.2201 70.8437C33.2201 71.0461 33.2684 71.207 33.3627 71.3266C33.4593 71.4462 33.5835 71.5059 33.7398 71.5059C33.8801 71.5059 34.1399 71.3887 34.517 71.1564L34.5607 71.1288L34.6228 71.2438ZM33.3259 70.1976C33.7076 70.0918 33.9974 69.9515 34.1951 69.7791C34.3906 69.6089 34.4894 69.4065 34.4894 69.1743C34.4894 69.0846 34.4641 69.0133 34.4159 68.9605C34.3676 68.9076 34.3009 68.88 34.2158 68.88C34.0273 68.88 33.8594 68.9881 33.7122 69.2065C33.5651 69.4249 33.4363 69.7561 33.3259 70.1976Z" fill="black"/>
<path d="M37.2695 71.7474L37.7271 69.5077C37.7294 69.4985 37.7317 69.487 37.734 69.4732C37.7501 69.3974 37.757 69.3399 37.757 69.2985C37.757 69.287 37.7524 69.2801 37.7432 69.2732C37.734 69.2686 37.7225 69.264 37.7064 69.264C37.6696 69.264 37.6213 69.2985 37.5615 69.3652C37.4994 69.4319 37.4327 69.5261 37.3592 69.648L37.2488 69.5836C37.4534 69.2985 37.6351 69.08 37.796 68.9283C37.957 68.7765 38.0858 68.7006 38.187 68.7006C38.2306 68.7006 38.2651 68.7144 38.2881 68.742C38.3111 68.7696 38.3226 68.811 38.3226 68.8639C38.3226 68.8915 38.3203 68.926 38.3134 68.9697C38.3088 69.0134 38.2996 69.0593 38.2881 69.1122L38.072 70.17C38.4629 69.6641 38.7917 69.2939 39.0538 69.057C39.316 68.8202 39.5321 68.7006 39.6977 68.7006C39.7851 68.7006 39.8541 68.7374 39.9092 68.8087C39.9644 68.88 39.992 68.9743 39.992 69.0915C39.992 69.1628 39.9828 69.2456 39.9667 69.3422C39.9506 69.4387 39.9207 69.5537 39.8816 69.6917L39.5413 70.9449C39.5091 71.0116 39.4861 71.076 39.47 71.1357C39.4539 71.1978 39.4448 71.2576 39.4448 71.3174C39.4448 71.3404 39.4539 71.3611 39.4746 71.3795C39.4953 71.3979 39.5137 71.4071 39.5344 71.4071C39.5873 71.4071 39.6632 71.3565 39.7621 71.2576C39.861 71.1587 39.9828 71.007 40.13 70.8046L40.2335 70.8782C40.0058 71.1932 39.8173 71.4163 39.6655 71.545C39.5137 71.6738 39.3735 71.7382 39.2424 71.7382C39.1573 71.7382 39.0929 71.7106 39.0492 71.6577C39.0056 71.6048 38.9826 71.5266 38.9826 71.4232C38.9826 71.3795 38.9849 71.3289 38.9918 71.276C38.9987 71.2231 39.0079 71.1702 39.0217 71.115L39.4333 69.4893C39.4563 69.4411 39.4723 69.3928 39.4815 69.3445C39.4907 69.2962 39.4976 69.241 39.4976 69.1789C39.4976 69.1329 39.4861 69.0961 39.4631 69.0685C39.4402 69.0409 39.4103 69.0294 39.3735 69.0294C39.2815 69.0294 39.1113 69.1651 38.863 69.4341C38.6146 69.7032 38.3272 70.0642 38.0053 70.5149L37.7524 71.7359H37.2695V71.7474Z" fill="black"/>
<path d="M44.1885 71.1128C43.9655 71.3473 43.7723 71.5129 43.6091 71.614C43.4458 71.7152 43.2848 71.7635 43.1308 71.7635C42.9468 71.7635 42.7974 71.6899 42.6847 71.5405C42.572 71.3933 42.5168 71.1978 42.5168 70.9541C42.5168 70.738 42.5651 70.4942 42.6594 70.2206C42.7537 69.9469 42.8847 69.6848 43.048 69.4342C43.209 69.1927 43.3768 69.0111 43.5516 68.8892C43.7263 68.765 43.9057 68.7029 44.0896 68.7029C44.2207 68.7029 44.3242 68.7259 44.3978 68.7719C44.4713 68.8179 44.5081 68.8823 44.5081 68.9628C44.5081 69.0226 44.4851 69.0755 44.4392 69.1191C44.3932 69.1628 44.3403 69.1858 44.2805 69.1858C44.2368 69.1858 44.1586 69.1582 44.0528 69.103C43.9448 69.0479 43.862 69.0203 43.8045 69.0203C43.6987 69.0203 43.6045 69.0755 43.524 69.1835C43.4435 69.2916 43.3538 69.494 43.2572 69.7883C43.1837 70.0021 43.1262 70.2091 43.0848 70.4068C43.0434 70.6069 43.0227 70.7747 43.0227 70.915C43.0227 71.0829 43.0595 71.2139 43.1308 71.3082C43.2021 71.4048 43.3009 71.4508 43.4251 71.4508C43.524 71.4508 43.6297 71.414 43.747 71.3404C43.8643 71.2668 43.9954 71.1542 44.1425 71.0001L44.1885 71.1128Z" fill="black"/>
<path d="M48.5575 71.2438C48.27 71.4439 48.0401 71.5864 47.8653 71.6715C47.6929 71.7566 47.5434 71.798 47.4215 71.798C47.2054 71.798 47.026 71.7037 46.8812 71.5151C46.7363 71.3266 46.665 71.0851 46.665 70.7931C46.665 70.5287 46.7133 70.2619 46.8076 69.9952C46.9042 69.7285 47.0329 69.4985 47.1985 69.3077C47.3548 69.1237 47.5273 68.9789 47.7182 68.8754C47.909 68.7719 48.0953 68.7213 48.2769 68.7213C48.4494 68.7213 48.5874 68.765 48.6908 68.8524C48.7943 68.9398 48.8449 69.0524 48.8449 69.1927C48.8449 69.4181 48.7092 69.6273 48.4356 69.8251C48.162 70.0228 47.7573 70.2022 47.2192 70.3654C47.1985 70.4643 47.1847 70.554 47.1732 70.6345C47.164 70.7149 47.1571 70.7862 47.1548 70.8437C47.1548 71.0461 47.2031 71.207 47.2974 71.3266C47.3939 71.4462 47.5181 71.5059 47.6745 71.5059C47.8147 71.5059 48.0746 71.3887 48.4517 71.1564L48.4954 71.1288L48.5575 71.2438ZM47.2583 70.1976C47.64 70.0918 47.9297 69.9515 48.1275 69.7791C48.3229 69.6089 48.4218 69.4065 48.4218 69.1743C48.4218 69.0846 48.3965 69.0133 48.3482 68.9605C48.2999 68.9076 48.2332 68.88 48.1482 68.88C47.9596 68.88 47.7917 68.9881 47.6446 69.2065C47.4974 69.4249 47.3686 69.7561 47.2583 70.1976Z" fill="black"/>
<path d="M59.3258 70.5195L58.9349 71.6876C58.8866 71.6669 58.8383 71.6531 58.7946 71.6416C58.7509 71.6324 58.7049 71.6278 58.6612 71.6278C58.6107 71.6278 58.4267 71.6531 58.1094 71.706C57.7921 71.7589 57.5 71.7842 57.2333 71.7842C56.9665 71.7842 56.7297 71.7566 56.5228 71.7014C56.3158 71.6462 56.1272 71.5589 55.9548 71.4416C55.6582 71.2392 55.4328 70.9909 55.2765 70.6943C55.1201 70.3976 55.0419 70.0734 55.0419 69.7193C55.0419 69.3836 55.1224 69.0502 55.2834 68.719C55.4443 68.3879 55.6674 68.0936 55.9571 67.8315C56.2514 67.567 56.5894 67.3647 56.9734 67.229C57.3575 67.0933 57.7783 67.0244 58.2335 67.0244C58.4773 67.0244 58.7302 67.0473 58.9924 67.0956C59.2568 67.1416 59.5304 67.2129 59.8179 67.3072L59.5511 68.4615L59.4109 68.4546C59.4132 68.4293 59.4132 68.404 59.4132 68.3787C59.4132 68.3534 59.4132 68.3143 59.4132 68.2638C59.4132 67.928 59.3143 67.6682 59.1165 67.4865C58.9188 67.3049 58.6336 67.2129 58.2657 67.2129C57.9047 67.2129 57.5575 67.2888 57.2264 67.4406C56.893 67.5923 56.6032 67.8085 56.3526 68.089C56.1387 68.3304 55.9801 68.5926 55.8789 68.8777C55.7754 69.1628 55.7248 69.4779 55.7248 69.8251C55.7248 70.37 55.8697 70.8046 56.1571 71.1266C56.4446 71.4485 56.8332 71.6095 57.3184 71.6095C57.661 71.6095 57.9875 71.5175 58.2956 71.3358C58.6061 71.1542 58.9027 70.8782 59.1901 70.5103L59.3258 70.5195Z" fill="black"/>
<path d="M62.5496 70.9472C62.5427 70.9794 62.5358 71.0185 62.5266 71.0668C62.499 71.2047 62.4875 71.2898 62.4875 71.3243C62.4875 71.345 62.4967 71.3634 62.5128 71.3841C62.5289 71.4048 62.5473 71.414 62.5634 71.414C62.6163 71.414 62.6922 71.3634 62.7911 71.2645C62.8899 71.1657 63.0118 71.0139 63.159 70.8115L63.2326 70.8851C63.0095 71.1978 62.8233 71.4163 62.6761 71.5428C62.5266 71.6692 62.3841 71.7336 62.2484 71.7336C62.161 71.7336 62.0966 71.7083 62.0552 71.66C62.0138 71.6117 61.9909 71.5359 61.9909 71.4324C61.9909 71.3979 61.9932 71.3565 62.0001 71.3059C62.007 71.2553 62.0161 71.1955 62.0299 71.1266L62.7405 67.5969C62.7428 67.5831 62.7474 67.5624 62.7543 67.5302C62.7681 67.4704 62.775 67.4244 62.775 67.3922C62.775 67.3808 62.7704 67.3739 62.7635 67.367C62.7566 67.3601 62.7451 67.3578 62.729 67.3578C62.6899 67.3578 62.6393 67.3923 62.5772 67.4589C62.5128 67.5256 62.4461 67.6199 62.3726 67.7372L62.2714 67.6774C62.476 67.3877 62.6577 67.1669 62.8187 67.0174C62.9796 66.8657 63.1084 66.7898 63.205 66.7898C63.2487 66.7898 63.2831 66.8036 63.3038 66.8289C63.3245 66.8565 63.336 66.8979 63.336 66.9531C63.336 66.9784 63.3337 67.0128 63.3268 67.0588C63.3222 67.1048 63.313 67.1531 63.3015 67.2037L62.5496 70.9472Z" fill="black"/>
<path d="M68.4546 68.8087L68.0177 70.9862C68.0154 70.9977 68.0108 71.0184 68.0039 71.0506C67.9901 71.115 67.9832 71.1633 67.9832 71.1978C67.9832 71.2093 67.9878 71.2162 67.9947 71.2231C68.0016 71.2277 68.0131 71.2323 68.0292 71.2323C68.066 71.2323 68.1166 71.1978 68.181 71.1311C68.2453 71.0644 68.312 70.9702 68.3856 70.8483L68.4868 70.9127C68.2844 71.1978 68.1028 71.4162 67.9418 71.568C67.7809 71.7198 67.6521 71.7957 67.5509 71.7957C67.5072 71.7957 67.4727 71.7819 67.452 71.7566C67.4313 71.729 67.4198 71.6899 67.4198 71.6324C67.4198 71.6071 67.4221 71.5749 67.429 71.5312C67.4336 71.4875 67.4428 71.4392 67.4543 71.3864L67.6682 70.324C67.2773 70.8322 66.9485 71.2047 66.6863 71.4415C66.4242 71.6784 66.208 71.798 66.0379 71.798C65.9528 71.798 65.8838 71.7612 65.8286 71.6899C65.7734 71.6186 65.7458 71.5243 65.7458 71.4071C65.7458 71.3496 65.755 71.2783 65.7711 71.1909C65.7872 71.1058 65.8171 70.9771 65.8631 70.8046L66.1965 69.5652C66.2103 69.5169 66.2195 69.4732 66.2287 69.4364C66.2356 69.3996 66.2402 69.372 66.2402 69.3536C66.2402 69.3191 66.2356 69.2985 66.2264 69.287C66.2172 69.2755 66.1965 69.2709 66.1643 69.2709C66.1184 69.2709 66.0563 69.3054 65.9781 69.3766C65.8999 69.4479 65.8056 69.5537 65.6953 69.6963L65.5918 69.6296C65.8355 69.3306 66.0494 69.103 66.231 68.9466C66.4127 68.7903 66.553 68.7121 66.6541 68.7121C66.7024 68.7121 66.7392 68.7282 66.7622 68.7604C66.7852 68.7926 66.7967 68.8455 66.7967 68.919C66.7967 68.965 66.7898 69.0271 66.7783 69.103C66.7668 69.1789 66.7484 69.2617 66.7277 69.349L66.3092 71.0023C66.2885 71.092 66.2747 71.1587 66.2678 71.2047C66.2609 71.2507 66.2563 71.2852 66.2563 71.3105C66.2563 71.3565 66.2678 71.3933 66.2885 71.4208C66.3092 71.4484 66.3414 71.4599 66.3805 71.4599C66.4702 71.4599 66.638 71.3266 66.8887 71.0575C67.137 70.7885 67.4244 70.4298 67.7464 69.9768L67.9809 68.8156H68.4546V68.8087Z" fill="black"/>
<path d="M71.7934 67.5969C71.8003 67.5578 71.8072 67.521 71.8118 67.4911C71.8164 67.4612 71.821 67.4382 71.821 67.4267C71.821 67.4083 71.8164 67.3922 71.8049 67.3807C71.7934 67.3669 71.7773 67.36 71.7589 67.36C71.7267 67.36 71.6807 67.3876 71.6186 67.4405C71.5565 67.4934 71.4784 67.5739 71.3841 67.682L71.2875 67.6061C71.3358 67.5578 71.4048 67.4888 71.4922 67.4014C71.8854 66.9967 72.1406 66.7944 72.2533 66.7944C72.2947 66.7944 72.3292 66.8082 72.3545 66.8358C72.3798 66.8634 72.3912 66.9047 72.3912 66.9576C72.3912 66.9806 72.3889 67.0151 72.382 67.0611C72.3752 67.1071 72.3683 67.1577 72.3591 67.2083L71.8509 69.8158C72.1406 69.4801 72.4004 69.2157 72.6304 69.0225C72.8603 68.8294 73.0305 68.7328 73.1363 68.7328C73.2512 68.7328 73.3593 68.8363 73.4582 69.0432C73.5571 69.2502 73.6077 69.4939 73.6077 69.7745C73.6077 69.9745 73.5709 70.1792 73.4996 70.3884C73.4283 70.5977 73.3225 70.7977 73.1846 70.9886C73.0029 71.2461 72.7982 71.4393 72.5752 71.5703C72.3522 71.6991 72.1061 71.7635 71.8394 71.7635C71.6232 71.7635 71.4508 71.7014 71.3197 71.5772C71.1886 71.4531 71.1219 71.2921 71.1219 71.0943C71.1219 71.0254 71.1265 70.9472 71.138 70.8598C71.1495 70.7724 71.1656 70.6781 71.1886 70.5724L71.7934 67.5969ZM71.7865 70.0872L71.637 70.7977C71.6209 70.8529 71.6094 70.9058 71.6025 70.9587C71.5956 71.0093 71.5933 71.0576 71.5933 71.0989C71.5933 71.2484 71.6301 71.3657 71.706 71.4485C71.7796 71.5335 71.8831 71.5749 72.0118 71.5749C72.2832 71.5749 72.5292 71.3979 72.75 71.0415C72.9707 70.6873 73.0811 70.2642 73.0811 69.7768C73.0811 69.5836 73.0535 69.4249 72.9983 69.3031C72.9431 69.1812 72.8741 69.1191 72.7937 69.1191C72.7247 69.1191 72.6189 69.1881 72.474 69.3238C72.3269 69.4663 72.0992 69.7193 71.7865 70.0872Z" fill="black"/>
<path d="M13.638 50.2337C12.7918 50.5419 12.148 50.62 11.6099 50.62C10.5821 50.62 10.0946 50.3119 9.32427 50.3119C9.04143 50.3119 8.70801 50.3625 8.32171 50.4913C8.14235 50.5419 8.01358 50.5694 7.88481 50.5694C7.60198 50.5694 7.47321 50.4407 7.47321 50.2613C7.47321 50.082 7.62727 49.8497 7.96069 49.6451C10.2716 48.1803 18.4393 43.4044 18.4393 40.9646C18.4393 40.3737 17.9518 39.9115 16.7193 39.6816C16.0525 39.5528 15.358 39.5022 14.6636 39.5022C9.88763 39.5022 4.75066 42.1466 2.00282 42.1466C1.49004 42.1466 1.05315 42.0684 0.719728 41.8384C0.179357 41.4797 0 41.1716 0 40.9141C0 40.3484 0.873791 40.0403 1.00256 40.0403C1.08074 40.0403 0.899085 40.1437 0.797909 40.1943C0.66914 40.2725 0.515077 40.399 0.515077 40.4519C0.515077 40.4772 0.540371 40.5025 0.694434 40.5025C1.92694 40.5025 8.99085 38.4996 14.4083 38.4996C15.565 38.4996 16.6434 38.6031 17.5678 38.8078C19.7753 39.3205 21.624 41.0911 21.624 43.2227C21.624 45.4831 19.5177 48.155 13.638 50.2337ZM7.60198 48.0515C5.36691 51.4938 4.03323 54.2164 4.03323 55.2695C4.03323 55.5776 4.162 55.757 4.44484 55.757C4.70237 55.757 4.77826 55.8329 4.77826 55.9364C4.77826 56.0398 4.67478 56.2445 4.44484 56.2445C4.21259 56.2445 3.82858 55.9869 3.28821 55.6535C2.4926 55.1407 1.82346 54.3428 1.82346 53.0597C1.82346 51.1857 3.31351 48.9253 4.93232 46.9478C6.96043 44.4575 9.22079 42.3512 9.22079 41.735C9.22079 41.6568 9.1702 41.6062 9.11732 41.5809C9.01384 41.5303 8.96325 41.4521 8.96325 41.3762C8.96325 41.2981 9.01384 41.2222 9.11732 41.2222C9.1679 41.2222 9.22079 41.2475 9.27138 41.2728C9.88763 41.6062 10.1705 42.0937 10.1705 42.7375C10.1705 43.993 9.04143 45.8165 7.60198 48.0515Z" fill="#0078B0"/>
<path d="M31.3576 49.7716C29.4835 51.3904 26.4529 54.3935 25.5009 55.2167C24.8846 55.7295 24.3443 55.9617 23.9855 55.9617C23.7556 55.9617 23.5739 55.8835 23.2658 55.603C22.6496 55.0373 22.4173 54.7039 22.4173 54.1635C22.4173 53.8301 22.5208 53.4967 22.6749 53.1104C22.9324 52.4436 23.4958 51.7744 24.473 50.5672C25.0387 49.8728 25.6297 49.1025 25.6297 48.8196C25.6297 48.7161 25.5791 48.615 25.3215 48.615C24.7306 48.615 24.0637 49.0013 23.8062 49.1277C23.4728 49.3071 23.0865 49.5393 22.5737 49.6405C22.2909 49.6911 22.1621 49.7946 21.9827 49.9486C21.4447 50.4108 20.5456 51.3352 19.9799 51.7974C19.8006 51.9768 19.5177 52.1055 19.4142 52.1055C19.3361 52.1055 19.2855 52.0549 19.2855 52.0021C19.2855 51.8986 19.3637 51.7974 19.4901 51.6686C20.311 50.9489 21.6723 49.4589 21.5964 49.3048C21.263 48.6886 21.0836 48.1482 21.0836 47.686C21.0836 46.7869 21.6999 46.0948 23.2405 45.1175C23.3187 45.0669 23.4452 45.0416 23.5739 45.0416C23.7027 45.0416 23.8568 45.0922 23.9074 45.1704C24.5236 45.8372 24.857 46.3523 24.857 46.7363C24.857 47.2238 24.4707 47.6607 23.6751 48.3022C23.5716 48.3804 23.5211 48.431 23.5211 48.4816C23.5211 48.5322 23.5716 48.5851 23.6498 48.5851C23.7004 48.5851 23.7786 48.5598 23.8545 48.5345C24.6248 48.2517 25.1652 48.1229 25.6274 48.1229C26.2689 48.1229 26.7058 48.4057 27.2968 48.9185C27.4508 49.0726 27.529 49.3048 27.529 49.56C27.529 50.0981 27.1956 50.9213 26.8875 51.487C26.4506 52.3079 25.9631 53.0023 25.7584 53.361C25.7078 53.4645 25.6297 53.5933 25.6297 53.7197C25.6297 53.745 25.6297 53.7703 25.6802 53.7703C25.7308 53.7703 25.8343 53.7197 26.0137 53.591C27.2209 52.6919 29.7894 50.5603 31.0725 49.5072C31.2012 49.4037 31.2771 49.3531 31.3553 49.3531C31.4588 49.3531 31.5346 49.4037 31.5346 49.4819C31.5346 49.56 31.4864 49.6704 31.3576 49.7716Z" fill="#0078B0"/>
<path d="M41.5027 51.1328C40.9624 51.9537 38.6008 54.2394 37.5224 55.1132C37.2396 55.3454 36.9567 55.4466 36.6486 55.4466C36.0071 55.4466 35.3379 54.8556 35.3379 53.7266C35.3379 52.9816 35.6208 52.0066 36.3658 50.7741C36.444 50.6453 36.4945 50.5419 36.4945 50.466C36.4945 50.4154 36.4693 50.3625 36.3911 50.3625C36.3405 50.3625 36.2876 50.3625 36.2117 50.4131C34.4917 51.3628 32.8476 54.1635 31.1 55.6259C30.8425 55.8559 30.5597 55.9341 30.3044 55.9341C29.38 55.9341 28.5316 54.8303 28.5316 53.7772C28.5316 53.5472 28.5821 53.315 28.6603 53.1103C30.1251 49.514 34.4894 46.5868 36.0324 45.8671C36.5727 45.6095 36.828 45.559 37.1614 45.559C37.8811 45.559 38.3686 46.0717 38.9848 47.433C39.0354 47.5365 39.0354 47.6124 39.0354 47.663C39.0354 47.7917 38.9573 47.8423 38.8814 47.8423C38.7779 47.8423 38.6514 47.7641 38.548 47.663C38.4192 47.5089 38.2398 47.433 37.9823 47.433C36.3911 47.433 32.4613 50.3349 31.4588 52.3906C31.4082 52.5194 31.3553 52.6482 31.3553 52.7769C31.3553 52.9563 31.4312 53.1103 31.6128 53.1103C31.7163 53.1103 31.8956 53.0322 32.1532 52.8275C33.6685 51.595 36.237 49.2312 37.1108 48.9231C37.2902 48.8449 37.4971 48.8449 37.6489 48.8449C38.3939 48.8196 38.8561 49.5393 38.8561 50.1809C38.8561 50.3096 38.8308 50.4384 38.8055 50.5396C38.5227 51.3881 37.1867 53.2621 36.828 54.2647C36.8027 54.3681 36.7774 54.4693 36.7774 54.5475C36.7774 54.7269 36.8556 54.8556 36.982 54.8556C37.0602 54.8556 37.1361 54.805 37.2396 54.7269C38.1639 54.0071 40.1668 52.0825 41.0659 51.0546C41.2452 50.85 41.374 50.7718 41.4775 50.7718C41.528 50.7718 41.5809 50.8224 41.5809 50.9006C41.5809 50.9535 41.5533 51.0316 41.5027 51.1328Z" fill="#0078B0"/>
<path d="M46.8191 51.6732C45.7153 53.2391 43.3768 55.7317 41.8891 55.7317C41.7097 55.7317 41.5809 55.7064 41.4269 55.6283C40.4772 55.1408 40.2197 54.6004 40.2197 53.8301C40.2197 51.8526 42.3765 49.0012 43.3285 47.3571C43.3791 47.2537 43.4044 47.1778 43.4044 47.1272C43.4044 46.9478 43.1216 47.049 43.1216 46.8949C43.1216 46.8444 43.1722 46.665 43.3791 46.665C43.7907 46.665 44.6116 47.1778 44.8692 47.5641C45.0485 47.8216 45.152 48.1022 45.152 48.385C45.152 48.8472 44.9473 49.3347 44.6116 49.8221C43.7125 51.1581 41.5556 53.7013 41.5304 54.9844C41.5304 55.0626 41.5809 55.0879 41.6844 55.0879C42.3513 55.0879 45.0232 53.4438 46.5385 51.4915C46.6167 51.3881 46.6926 51.3628 46.7685 51.3628C46.8191 51.3628 46.872 51.4134 46.872 51.4915C46.8697 51.5444 46.8444 51.6226 46.8191 51.6732ZM46.1246 45.7153C45.7383 45.7153 45.3796 45.4325 45.2003 44.8415C45.1221 44.6369 45.2256 44.5081 45.3037 44.3794C45.6372 43.8919 46.7938 44.0459 47.6676 43.4297C47.7182 43.3791 47.8469 43.5056 47.7711 43.8919C47.5388 45.0209 46.7938 45.7153 46.1246 45.7153Z" fill="#0078B0"/>
<path d="M58.4267 51.1328C57.8886 51.9537 55.5248 54.2394 54.4464 55.1132C54.1635 55.3454 53.8807 55.4466 53.5726 55.4466C52.931 55.4466 52.2619 54.8556 52.2619 53.7266C52.2619 52.9816 52.5447 52.0066 53.2897 50.7741C53.3679 50.6453 53.4185 50.5419 53.4185 50.466C53.4185 50.4154 53.3932 50.3625 53.315 50.3625C53.2644 50.3625 53.2115 50.3625 53.1357 50.4131C51.4157 51.3628 49.7716 54.1635 48.024 55.6259C47.7665 55.8559 47.4836 55.9341 47.2284 55.9341C46.304 55.9341 45.4555 54.8303 45.4555 53.7772C45.4555 53.5472 45.5061 53.315 45.5843 53.1103C47.049 49.514 51.4134 46.5868 52.9563 45.8671C53.4944 45.6095 53.7519 45.559 54.0853 45.559C54.8051 45.559 55.2926 46.0717 55.9088 47.433C55.9594 47.5365 55.9594 47.6124 55.9594 47.663C55.9594 47.7917 55.8835 47.8423 55.8053 47.8423C55.7019 47.8423 55.5731 47.7641 55.4719 47.663C55.3431 47.5089 55.1638 47.433 54.9062 47.433C53.315 47.433 49.3853 50.3349 48.3827 52.3906C48.3321 52.5194 48.2792 52.6482 48.2792 52.7769C48.2792 52.9563 48.3574 53.1103 48.5368 53.1103C48.6402 53.1103 48.8196 53.0322 49.0771 52.8275C50.5925 51.595 53.161 49.2312 54.0348 48.9231C54.2141 48.8449 54.4211 48.8449 54.5751 48.8449C55.3201 48.8196 55.7823 49.5393 55.7823 50.1809C55.7823 50.3096 55.757 50.4384 55.7317 50.5396C55.4489 51.3881 54.1129 53.2621 53.7542 54.2647C53.7289 54.3681 53.7036 54.4693 53.7036 54.5475C53.7036 54.7269 53.7818 54.8556 53.9083 54.8556C53.9865 54.8556 54.0623 54.805 54.1658 54.7269C55.0902 54.0071 57.093 52.0825 57.9921 51.0546C58.1715 50.85 58.3002 50.7718 58.4037 50.7718C58.4543 50.7718 58.5072 50.8224 58.5072 50.9006C58.5049 50.9535 58.4796 51.0316 58.4267 51.1328Z" fill="#0078B0"/>
<path d="M71.3749 51.073C70.9127 51.073 70.4505 50.8684 70.3999 50.482C70.3218 49.8152 69.8872 49.5324 69.1674 49.5324C68.473 49.5324 67.5486 49.7646 66.3943 50.2268C61.977 51.9744 56.302 56.955 55.3247 61.4757C55.2742 61.708 55.2489 61.8873 55.2489 62.0414C55.2489 62.5289 55.4788 62.6829 55.7869 62.6829C56.0192 62.6829 56.2997 62.607 56.5825 62.4783C62.3358 60.0133 68.3971 52.025 69.7837 52.025C70.3746 52.025 71.5818 52.5906 71.5818 53.5909C71.5818 53.899 71.4784 54.2325 71.2484 54.6441C69.9653 56.8262 67.6015 61.4251 67.6015 62.7864C67.6015 63.0186 67.6521 63.1451 67.8314 63.1451C67.9349 63.1451 68.0614 63.0945 68.2178 63.0163C68.2959 62.9658 68.4224 62.9382 68.5006 62.9382C68.5512 62.9382 68.6799 62.9888 68.6799 63.0669C68.6799 63.1451 68.6018 63.2716 68.3971 63.4004C67.3946 64.0672 66.6242 64.35 66.008 64.35C64.9801 64.35 64.5179 63.5015 64.5179 62.2184C64.5179 60.9077 65.0054 59.2131 65.9045 57.6218C65.9551 57.5184 66.008 57.4172 66.008 57.3643C66.008 57.339 65.9827 57.2884 65.9574 57.2884C65.9068 57.2884 65.8033 57.339 65.6493 57.4425C64.0052 58.5991 59.2798 64.6329 55.2213 64.6329C54.835 64.6329 54.451 64.5823 54.0646 64.4535C52.8321 64.0672 51.6502 63.1428 51.6502 61.3975C51.6502 60.2156 52.2159 58.6497 53.6783 56.5687C56.8884 52.048 64.0534 48.0676 68.5489 48.0676C70.2965 48.0676 71.6577 48.6586 72.1958 50.0704C72.2464 50.1992 72.274 50.3027 72.274 50.4039C72.274 50.8661 71.8371 51.073 71.3749 51.073Z" fill="#0078B0"/>
<path d="M74.2515 54.7958C74.2515 54.6923 74.2262 54.6417 74.1227 54.6164C74.0193 54.5911 73.9687 54.513 73.9687 54.4371C73.9687 54.3336 74.0468 54.2324 74.1733 54.2577C75.0218 54.4877 75.5599 55.0027 75.5599 55.8489C75.5599 56.7227 75.0977 57.7483 73.994 59.1095C73.8146 59.3418 73.6352 59.597 73.6352 59.6752C73.6352 59.7005 73.6605 59.7258 73.6858 59.7258C73.7893 59.7258 74.0974 59.5212 74.3527 59.2636C76.8959 56.8492 78.1284 55.8742 79.078 55.8742C79.5655 55.8742 79.9518 56.1823 80.2853 56.7733C80.4393 57.0561 80.5152 57.2861 80.5152 57.6471C80.5152 58.6221 79.8736 59.7028 79.4873 60.3444C78.7423 61.6274 78.2295 62.5541 78.2295 63.221C78.2295 63.375 78.2801 63.4785 78.4342 63.4785C78.8205 63.4785 79.8208 62.7588 81.773 60.8341C82.2352 60.3972 82.4927 60.2179 82.6215 60.2179C82.6721 60.2179 82.6997 60.2432 82.6997 60.2961C82.6997 60.3995 82.5456 60.6824 82.1869 61.0917C80.5957 62.9151 79.1309 64.3523 78.0272 64.3523C77.7444 64.3523 77.5397 64.327 77.3604 64.2235C76.6406 63.8648 76.1784 63.221 76.1784 62.1954C76.1784 61.501 76.436 60.6295 77.0522 59.6269C77.6685 58.6244 78.0801 57.7276 78.0801 57.3919C78.0801 57.2631 78.0042 57.1872 77.9007 57.1872C76.8982 57.1872 71.9428 62.3748 71.3013 63.8395C71.2507 63.9683 71.1219 64.1476 70.9426 64.1476C70.7885 64.1476 69.9676 63.736 69.9676 62.7358C69.963 60.2409 74.2515 55.7478 74.2515 54.7958Z" fill="#0078B0"/>
<path d="M89.9958 59.1371C89.2508 59.7534 87.0686 61.3975 85.8085 62.2713C85.551 62.4506 85.4498 62.5794 85.3463 62.7841C83.8057 66.3804 80.7245 70.5401 78.5147 70.5401C77.8984 70.5401 76.1508 69.7445 76.1508 68.7166C76.1508 68.5626 76.1761 68.3832 76.2543 68.2291C77.4615 65.8147 80.1312 65.1479 83.0354 63.1428C83.1642 63.0646 83.24 62.9887 83.3688 62.6806C84.3438 60.2662 85.2429 57.6724 85.2429 56.7986C85.2429 56.5939 85.1923 56.4905 85.0888 56.4905C85.0382 56.4905 84.9347 56.5686 84.806 56.6698C84.7278 56.7204 84.6772 56.748 84.6519 56.748C84.6013 56.748 84.5737 56.6974 84.5737 56.6445C84.5737 56.5916 84.5737 56.5158 84.6243 56.4399C84.8819 56.0536 85.19 55.6696 85.5234 55.6696C85.6522 55.6696 86.319 55.9018 86.5513 56.0559C87.0134 56.3134 87.2181 56.6721 87.2181 57.2125C87.2181 58.0081 86.7559 59.2406 85.935 61.3469C85.8844 61.501 85.9097 61.5263 85.9603 61.5263C86.0109 61.5263 86.1397 61.4481 86.3466 61.3216C87.3216 60.6548 88.5817 59.7557 89.736 58.8566C89.9406 58.7025 90.0694 58.6243 90.1476 58.6243C90.2258 58.6243 90.2511 58.6749 90.2511 58.7278C90.2534 58.829 90.1752 58.9831 89.9958 59.1371ZM82.6238 64.0166C82.5732 64.0166 82.5203 64.0419 82.4191 64.12C80.6992 65.2491 77.6156 66.8426 77.0775 68.3326C76.9993 68.5626 76.974 68.7442 76.974 68.9236C76.974 69.3099 77.204 69.5145 77.5397 69.5145C78.5423 69.5145 80.7497 67.8704 82.6767 64.1729C82.7273 64.0671 82.6514 64.0166 82.6238 64.0166ZM90.1499 52.5354C89.8418 53.6644 89.0714 54.3336 88.377 54.3336C87.9654 54.3336 87.632 54.076 87.5285 53.4851C87.5032 53.2804 87.5538 53.1264 87.6573 52.9976C88.0436 52.5354 89.1726 52.6895 90.1223 52.0732C90.2005 52.0226 90.2005 52.1238 90.2005 52.1767C90.2005 52.2802 90.2005 52.3813 90.1499 52.5354Z" fill="#0078B0"/>
<path d="M90.1752 64.3754C89.6624 64.4007 88.0436 63.9385 88.0436 62.4484C88.0436 60.1881 91.3824 56.7734 93.4381 55.1293C93.7209 54.9246 93.8497 54.8212 94.0038 54.8212C94.1325 54.8212 94.2613 54.9246 94.4912 55.104C95.4938 55.849 95.8272 56.2859 95.8272 56.594C95.8272 56.8516 95.5973 57.0056 95.3145 57.3138C95.6479 57.3138 96.3676 57.3138 96.4964 58.0082C96.5217 58.1876 96.547 58.3669 96.547 58.5486C96.5447 61.4482 91.9481 64.3248 90.1752 64.3754ZM95.2869 57.93C94.7994 58.0082 94.4384 58.0588 94.3119 58.16C93.2587 59.0338 90.4603 61.3953 90.1246 62.9888C90.0993 63.1176 90.074 63.2188 90.074 63.2969C90.074 63.3751 90.0993 63.4257 90.1775 63.4257C90.281 63.4257 90.435 63.3751 90.6903 63.2463C93.4381 61.9357 95.9284 59.2407 95.9284 58.2634C95.9284 58.0335 95.749 57.8518 95.2869 57.93Z" fill="#0078B0"/>
<path d="M105.869 59.1877C105.227 59.8546 102.325 62.269 102.325 62.3977C102.275 64.1177 99.4489 65.0168 97.7036 65.0168C97.1908 65.0168 96.7792 64.9386 96.5217 64.7846C96.3676 64.6811 96.2917 64.5546 96.2917 64.373C96.2917 64.1683 96.3952 63.9614 96.6251 63.7314C97.5242 62.8071 100.709 61.3676 100.709 60.0063C100.709 59.827 100.658 59.62 100.504 59.4407C99.8881 58.6956 99.0924 57.9 99.0924 57.0768C99.0924 56.2812 99.734 55.5362 101.737 54.7406C101.866 54.69 101.941 54.6118 102.045 54.6118C102.199 54.6118 102.404 54.7912 103.02 55.5615C103.328 55.9478 103.482 56.2283 103.482 56.4859C103.482 56.8975 103.07 57.2309 102.275 57.6172C101.401 58.0288 100.838 58.2082 100.838 58.491C100.838 58.5945 100.888 58.6703 100.992 58.7991C101.608 59.466 102.585 60.2892 102.378 61.4711C102.969 61.0595 104.742 59.6982 105.588 58.9808C105.692 58.8773 105.793 58.852 105.871 58.852C105.947 58.852 106 58.8773 106 58.9555C105.995 59.0084 105.945 59.1118 105.869 59.1877Z" fill="#0078B0"/>
<path d="M44.7634 55.9616C44.6622 55.9616 44.6047 55.9754 44.5035 56.049C42.4271 57.9369 40.7692 62.0897 40.7692 62.7381C40.7692 62.8669 40.7991 62.883 40.8405 62.883C40.8704 62.883 40.9279 62.8692 40.9992 62.8393C41.3602 62.7082 42.5122 61.57 43.1469 60.8778C43.2618 60.7491 43.363 60.6755 43.4343 60.6755C43.4642 60.6755 43.4918 60.6755 43.4918 60.7468C43.4918 60.8043 43.4619 60.8916 43.3607 61.0204C42.756 61.7562 41.4568 63.0094 40.9394 63.2992C40.8819 63.3268 40.7807 63.3567 40.6658 63.3567C40.3047 63.3567 39.7713 63.1405 39.7713 62.4208C39.7713 61.6275 40.1898 60.864 40.5209 60.0868C40.5485 60.0156 40.6083 59.9144 40.5784 59.9144C40.5347 59.9144 40.4772 59.9581 40.4059 60.073C39.9437 60.779 38.3456 62.9129 37.7822 63.2578C37.7248 63.3015 37.6374 63.3153 37.5523 63.3153C37.0763 63.3153 36.2692 62.7381 36.3842 62.1609C36.6877 60.5467 38.5618 58.268 39.3114 57.9093C39.4264 57.8518 39.5413 57.838 39.6724 57.838C40.1185 57.838 40.6244 58.1415 40.7968 58.5577C40.8106 58.5876 40.8106 58.6152 40.8106 58.629C40.8106 58.6589 40.7807 58.6865 40.7531 58.6865C40.7094 58.6865 40.652 58.6566 40.6083 58.6428C40.5508 58.6129 40.4933 58.5991 40.4358 58.5991C39.8012 58.5991 38.748 59.896 37.9984 61.4964C37.911 61.6689 37.8535 61.8436 37.8535 61.9287C37.8535 62.0161 37.8834 62.0299 37.911 62.0299C38.0122 62.0299 38.1134 61.9724 38.5158 61.5401C40.2749 59.6223 41.1831 58.6428 41.3694 58.3255C42.3352 56.7687 43.3285 55.0671 43.7631 55.0671C44.2667 55.0671 44.9013 55.5132 44.9174 55.803C44.922 55.9478 44.8921 55.9616 44.7634 55.9616Z" fill="#0078B0"/>
<path d="M43.6688 63.3705C43.3814 63.3843 42.4731 63.1245 42.4731 62.2898C42.4731 61.0205 44.3472 59.105 45.4992 58.1806C45.6579 58.0657 45.7291 58.0082 45.8165 58.0082C45.8878 58.0082 45.9614 58.0657 46.0902 58.1668C46.6535 58.5853 46.8398 58.8291 46.8398 59.0038C46.8398 59.1487 46.7087 59.2338 46.5523 59.4085C46.7386 59.4085 47.1433 59.4085 47.2146 59.7971C47.2284 59.8983 47.2445 59.9995 47.2445 60.1007C47.2422 61.7287 44.6622 63.3429 43.6688 63.3705ZM46.5363 59.7535C46.2626 59.7971 46.0603 59.8247 45.989 59.8822C45.398 60.372 43.8275 61.6988 43.6389 62.5933C43.6252 62.6646 43.6091 62.722 43.6091 62.7657C43.6091 62.8094 43.6229 62.837 43.6665 62.837C43.724 62.837 43.8114 62.8071 43.954 62.7358C45.4969 62 46.895 60.487 46.895 59.9397C46.8973 59.8109 46.7961 59.7098 46.5363 59.7535Z" fill="#0078B0"/>
<path d="M52.4757 60.4594C52.1147 60.8342 50.4867 62.1886 50.4867 62.2621C50.4568 63.2279 48.8725 63.7315 47.8929 63.7315C47.6055 63.7315 47.3732 63.6878 47.2307 63.6004C47.1433 63.5429 47.1019 63.4717 47.1019 63.3705C47.1019 63.2555 47.1594 63.1405 47.2882 63.0095C47.7917 62.4898 49.5807 61.6827 49.5807 60.9193C49.5807 60.8181 49.5508 60.7031 49.4657 60.6019C49.1185 60.1834 48.6724 59.7373 48.6724 59.2752C48.6724 58.8291 49.0335 58.4106 50.1579 57.9645C50.2292 57.9346 50.2729 57.8932 50.3303 57.8932C50.4177 57.8932 50.5327 57.9944 50.8776 58.4267C51.0501 58.6428 51.1374 58.8015 51.1374 58.9463C51.1374 59.1763 50.9075 59.3648 50.4591 59.581C49.9693 59.8109 49.652 59.9121 49.652 60.0708C49.652 60.1282 49.6819 60.1719 49.7394 60.2432C50.0866 60.618 50.6339 61.0802 50.5189 61.7425C50.85 61.5125 51.8457 60.7491 52.3217 60.3444C52.3791 60.2869 52.4366 60.2731 52.4803 60.2731C52.524 60.2731 52.5516 60.2869 52.5516 60.3306C52.547 60.3582 52.5194 60.4157 52.4757 60.4594Z" fill="#0078B0"/>
</svg>
