<svg width="351" height="238" viewBox="0 0 351 238" fill="none" xmlns="http://www.w3.org/2000/svg">
<path d="M275.162 119.54C222.284 101.269 197.914 130.749 186.181 139.954H221.79C226.931 134.152 246.79 115.47 280.873 127.294C320.006 140.873 323.606 142.338 340.169 125.593C321.236 144.465 309.192 134.752 275.162 119.54Z" fill="#84D2DF"/>
<path d="M341.308 124.439C340.921 124.834 340.541 125.221 340.169 125.593C340.549 125.221 340.928 124.841 341.308 124.439Z" fill="#84D2DF"/>
<path d="M244.125 0C243.905 7.88279 243.525 15.5681 242.94 23.0257C268.312 45.2919 281.336 64.3762 280.995 64.0268C278.192 61.1714 265.73 47.9499 242.12 32.0172C242.067 32.5564 242.006 33.088 241.945 33.6272C270.013 59.2045 287.359 92.0723 287.093 91.6622C284.693 87.8727 274.418 68.515 239.796 49.1498C239.492 50.9116 239.173 52.6431 238.832 54.367C267.082 73.8234 289.333 108.05 288.931 107.625C284.951 103.479 262.002 78.1672 232.331 78.3191C228.701 88.2675 224.046 97.1528 218.092 104.739C270.158 88.1992 288.528 106.881 290.062 123.421C290.237 125.274 297.413 60.6398 244.125 0Z" fill="#84D2DF"/>
<path d="M38.0004 230.006C38.9345 232.664 39.7319 234.388 40.4002 235.17C41.0685 235.952 41.9114 236.347 42.9291 236.347H43.1721L43.1949 236.78C42.9215 236.818 42.686 236.841 42.4734 236.863C42.2608 236.879 42.0709 236.894 41.8962 236.894C41.3646 236.894 40.8786 236.833 40.4382 236.704C39.9977 236.582 39.5876 236.385 39.2003 236.127C38.4864 235.641 37.6587 234.205 36.7094 231.828C36.436 231.13 36.2234 230.591 36.0563 230.211L34.097 230.143L33.2161 234.297C33.1781 234.456 33.1477 234.608 33.1325 234.745C33.1173 234.881 33.1021 234.995 33.1021 235.079C33.1021 235.474 33.2616 235.77 33.573 235.952C33.8843 236.142 34.3704 236.233 35.0235 236.233L35.0463 236.75H28.7734L28.7962 236.233C29.5708 236.21 30.1328 236.066 30.4821 235.8C30.8315 235.534 31.0821 235.071 31.234 234.403L33.3983 224.158C33.4439 223.968 33.4743 223.809 33.4894 223.68C33.5046 223.551 33.5198 223.444 33.5198 223.369C33.5198 222.981 33.3528 222.685 33.0262 222.495C32.6996 222.305 32.206 222.207 31.5529 222.207L31.5301 221.69C32.244 221.705 33.2085 221.713 34.4159 221.721C37.2106 221.743 38.9117 221.827 39.5193 221.964C40.59 222.245 41.4102 222.685 41.9722 223.285C42.5342 223.885 42.8151 224.629 42.8151 225.502C42.8151 226.649 42.3899 227.621 41.5393 228.411C40.6964 229.216 39.5117 229.748 38.0004 230.006ZM34.2489 229.489C34.2641 229.489 34.2868 229.489 34.3248 229.489C34.7273 229.52 35.0159 229.535 35.1981 229.535C36.9524 229.535 38.3194 229.17 39.2838 228.441C40.2483 227.712 40.7343 226.687 40.7343 225.381C40.7343 224.371 40.423 223.634 39.7926 223.171C39.1623 222.708 38.1751 222.472 36.8309 222.472C36.6107 222.472 36.2689 222.48 35.8133 222.503L35.7373 222.51L34.2489 229.489Z" fill="white"/>
<path d="M56.9707 235.292C56.0215 235.952 55.262 236.423 54.6849 236.704C54.1153 236.985 53.6217 237.122 53.2192 237.122C52.5053 237.122 51.913 236.81 51.4346 236.188C50.9561 235.565 50.7207 234.768 50.7207 233.803C50.7207 232.93 50.8802 232.049 51.1915 231.168C51.5105 230.287 51.9358 229.528 52.4826 228.897C52.999 228.29 53.5685 227.811 54.1989 227.47C54.8292 227.128 55.4443 226.961 56.0442 226.961C56.6138 226.961 57.0695 227.105 57.4112 227.394C57.7453 227.682 57.92 228.054 57.92 228.518C57.92 229.262 57.472 229.953 56.5682 230.606C55.6645 231.259 54.328 231.851 52.5509 232.391C52.4826 232.717 52.437 233.013 52.399 233.279C52.3686 233.545 52.3459 233.78 52.3383 233.97C52.3383 234.638 52.4977 235.17 52.8091 235.565C53.1281 235.96 53.5382 236.157 54.0546 236.157C54.5178 236.157 55.376 235.77 56.6214 235.003L56.7657 234.912L56.9707 235.292ZM52.68 231.836C53.9407 231.487 54.8975 231.024 55.5506 230.454C56.1961 229.892 56.5227 229.224 56.5227 228.457C56.5227 228.161 56.4391 227.925 56.2797 227.75C56.1202 227.576 55.9 227.485 55.619 227.485C54.9962 227.485 54.4419 227.842 53.9558 228.563C53.4698 229.285 53.0521 230.378 52.68 231.836Z" fill="white"/>
<path d="M64.3975 235.922C64.3975 235.694 64.4734 235.504 64.6177 235.36C64.762 235.216 64.9594 235.14 65.1949 235.14C65.4834 235.14 65.9163 235.314 66.4935 235.656C67.0706 235.998 67.5339 236.172 67.8832 236.172C68.2173 236.172 68.4831 236.051 68.6958 235.8C68.9084 235.557 69.0071 235.238 69.0071 234.859C69.0071 234.395 68.6274 233.682 67.868 232.717C67.7997 232.634 67.7541 232.58 67.7237 232.542C67.2073 231.874 66.8656 231.358 66.7061 231.001C66.539 230.644 66.4555 230.302 66.4555 229.983C66.4555 229.277 66.7972 228.601 67.4807 227.948C68.1642 227.295 68.8932 226.976 69.6603 226.976C70.1691 226.976 70.564 227.09 70.8525 227.31C71.1411 227.53 71.2854 227.834 71.2854 228.221C71.2854 228.464 71.2095 228.669 71.0652 228.836C70.9209 229.003 70.731 229.087 70.5108 229.087C70.3893 229.087 70.283 229.057 70.1842 228.988C70.0855 228.92 69.9716 228.798 69.8349 228.616C69.7894 228.548 69.7286 228.457 69.6603 228.343C69.4096 227.94 69.1287 227.735 68.8249 227.735C68.5287 227.735 68.2477 227.895 67.9819 228.206C67.7161 228.517 67.5794 228.859 67.5794 229.224C67.5794 229.398 67.6174 229.581 67.6933 229.778C67.7693 229.968 67.868 230.143 67.9895 230.31C68.1414 230.507 68.3768 230.781 68.6806 231.137C69.6527 232.254 70.1387 233.173 70.1387 233.887C70.1387 234.851 69.8045 235.603 69.1438 236.15C68.4756 236.696 67.5718 236.97 66.4175 236.97C65.7644 236.97 65.2632 236.879 64.9215 236.704C64.5645 236.514 64.3975 236.256 64.3975 235.922Z" fill="white"/>
<path d="M81.2943 234.319C81.2184 234.631 81.1652 234.881 81.1349 235.094C81.1045 235.299 81.0817 235.451 81.0817 235.557C81.0817 235.626 81.1121 235.686 81.1652 235.755C81.2184 235.823 81.2791 235.854 81.3399 235.854C81.5146 235.854 81.7652 235.686 82.0917 235.36C82.4183 235.033 82.8208 234.532 83.3068 233.864L83.5498 234.107C82.8132 235.14 82.198 235.861 81.712 236.279C81.2184 236.696 80.7551 236.909 80.3147 236.909C80.0185 236.909 79.8059 236.826 79.6616 236.666C79.5249 236.507 79.4489 236.256 79.4489 235.914C79.4489 235.793 79.4565 235.641 79.4793 235.474C79.5021 235.307 79.5325 235.117 79.578 234.897L80.6792 229.55C80.6868 229.528 80.6868 229.505 80.6868 229.482C80.7476 229.186 80.7779 228.981 80.7779 228.867C80.7779 228.829 80.7627 228.806 80.7324 228.783C80.702 228.768 80.664 228.753 80.6109 228.753C80.4893 228.753 80.3299 228.867 80.1324 229.087C79.9274 229.307 79.7071 229.619 79.4641 230.021L79.0996 229.809C79.7755 228.867 80.3754 228.145 80.907 227.644C81.4386 227.143 81.8639 226.892 82.198 226.892C82.3423 226.892 82.4562 226.938 82.5322 227.029C82.6081 227.12 82.6461 227.257 82.6461 227.432C82.6461 227.538 82.6385 227.659 82.6157 227.796C82.6005 227.933 82.5702 228.085 82.5322 228.252L81.2943 234.319ZM83.77 222.845C83.77 223.232 83.6409 223.596 83.3752 223.923C83.1094 224.25 82.8284 224.417 82.5246 224.417C82.3271 224.417 82.1601 224.326 82.0158 224.143C81.8791 223.961 81.8031 223.726 81.8031 223.452C81.8031 223.019 81.9322 222.632 82.1829 222.298C82.4335 221.964 82.722 221.797 83.041 221.797C83.2688 221.797 83.4435 221.888 83.5726 222.078C83.7093 222.252 83.77 222.51 83.77 222.845Z" fill="white"/>
<path d="M99.1714 222.966C99.1866 222.867 99.2018 222.768 99.2246 222.662C99.2474 222.556 99.255 222.495 99.255 222.495C99.255 222.396 99.2474 222.336 99.2246 222.305C99.2094 222.275 99.1714 222.26 99.1183 222.26C98.9892 222.26 98.7917 222.336 98.5335 222.487C98.2753 222.639 97.9715 222.86 97.6298 223.141L97.3792 222.753C98.5031 221.895 99.2929 221.326 99.7562 221.06C100.219 220.794 100.576 220.657 100.835 220.657C100.903 220.657 100.956 220.688 101.002 220.756C101.047 220.824 101.07 220.908 101.07 221.022C101.07 221.12 101.055 221.257 101.032 221.432C101.009 221.606 100.971 221.781 100.941 221.963L98.4044 234.448C98.374 234.577 98.3512 234.684 98.3361 234.782C98.3209 234.881 98.3133 234.95 98.3133 235.003C98.3133 235.079 98.3285 235.139 98.3664 235.185C98.4044 235.231 98.4576 235.253 98.5183 235.253C98.617 235.253 98.7613 235.162 98.9664 234.988C99.1714 234.813 99.4296 234.532 99.7562 234.16L100.075 234.433C99.9384 234.57 99.741 234.767 99.498 235.018C98.1386 236.408 97.2653 237.099 96.8856 237.099C96.7413 237.099 96.6274 237.053 96.5514 236.962C96.4755 236.871 96.4375 236.734 96.4375 236.56C96.4375 236.491 96.4451 236.408 96.4603 236.294C96.4755 236.18 96.5058 235.998 96.5514 235.739L97.0223 233.438C95.9894 234.676 95.1541 235.565 94.501 236.127C93.8479 236.681 93.3239 236.962 92.9214 236.962C92.4809 236.962 92.0936 236.666 91.7671 236.066C91.4329 235.474 91.2734 234.737 91.2734 233.871C91.2734 233.066 91.3873 232.314 91.6076 231.593C91.8354 230.879 92.162 230.203 92.6024 229.58C93.1948 228.753 93.8631 228.107 94.6073 227.659C95.3439 227.203 96.0882 226.983 96.8324 226.983C97.0299 226.983 97.2501 227.006 97.4855 227.052C97.7209 227.097 97.9943 227.165 98.2981 227.264L99.1714 222.966ZM98.093 228.198C97.85 228.001 97.607 227.849 97.3564 227.758C97.1134 227.659 96.8628 227.614 96.6198 227.614C95.6401 227.614 94.7896 228.191 94.0529 229.353C93.3239 230.515 92.9594 231.919 92.9594 233.567C92.9594 234.198 93.0505 234.714 93.2252 235.117C93.3998 235.519 93.62 235.717 93.8858 235.717C94.1137 235.717 94.501 235.458 95.0402 234.942C95.5794 234.426 96.3084 233.621 97.2273 232.535L98.093 228.198Z" fill="white"/>
<path d="M114.344 235.292C113.395 235.952 112.635 236.423 112.058 236.704C111.488 236.985 110.995 237.122 110.592 237.122C109.878 237.122 109.286 236.81 108.808 236.188C108.329 235.565 108.094 234.768 108.094 233.803C108.094 232.93 108.253 232.049 108.565 231.168C108.884 230.287 109.309 229.528 109.856 228.897C110.372 228.29 110.942 227.811 111.572 227.47C112.202 227.128 112.817 226.961 113.417 226.961C113.987 226.961 114.443 227.105 114.784 227.394C115.126 227.682 115.293 228.054 115.293 228.518C115.293 229.262 114.845 229.953 113.941 230.606C113.038 231.259 111.701 231.851 109.924 232.391C109.856 232.717 109.81 233.013 109.772 233.279C109.742 233.545 109.719 233.78 109.711 233.97C109.711 234.638 109.871 235.17 110.182 235.565C110.501 235.96 110.911 236.157 111.428 236.157C111.891 236.157 112.749 235.77 113.994 235.003L114.139 234.912L114.344 235.292ZM110.061 231.836C111.321 231.487 112.278 231.024 112.931 230.454C113.577 229.892 113.903 229.224 113.903 228.457C113.903 228.161 113.82 227.925 113.66 227.75C113.501 227.576 113.281 227.485 113 227.485C112.377 227.485 111.823 227.842 111.336 228.563C110.85 229.285 110.425 230.378 110.061 231.836Z" fill="white"/>
<path d="M123.085 236.955L124.596 229.558C124.604 229.528 124.611 229.49 124.619 229.444C124.672 229.194 124.695 229.004 124.695 228.867C124.695 228.829 124.68 228.806 124.649 228.784C124.619 228.768 124.581 228.753 124.528 228.753C124.406 228.753 124.247 228.867 124.049 229.087C123.844 229.308 123.624 229.619 123.381 230.021L123.017 229.809C123.692 228.867 124.292 228.146 124.824 227.644C125.356 227.143 125.781 226.893 126.115 226.893C126.259 226.893 126.373 226.938 126.449 227.029C126.525 227.12 126.563 227.257 126.563 227.432C126.563 227.523 126.555 227.637 126.533 227.781C126.518 227.925 126.487 228.077 126.449 228.252L125.735 231.745C127.026 230.075 128.112 228.852 128.978 228.07C129.844 227.287 130.558 226.893 131.104 226.893C131.393 226.893 131.621 227.014 131.803 227.25C131.985 227.485 132.076 227.796 132.076 228.184C132.076 228.419 132.046 228.692 131.993 229.011C131.94 229.33 131.841 229.71 131.712 230.166L130.588 234.305C130.482 234.525 130.406 234.737 130.353 234.935C130.299 235.14 130.269 235.337 130.269 235.535C130.269 235.611 130.299 235.679 130.368 235.74C130.436 235.801 130.497 235.831 130.565 235.831C130.74 235.831 130.991 235.664 131.317 235.337C131.644 235.011 132.046 234.51 132.532 233.841L132.874 234.084C132.122 235.125 131.499 235.861 130.998 236.287C130.497 236.712 130.034 236.925 129.601 236.925C129.32 236.925 129.107 236.833 128.963 236.659C128.819 236.484 128.743 236.226 128.743 235.884C128.743 235.74 128.75 235.573 128.773 235.398C128.796 235.223 128.826 235.049 128.872 234.867L130.231 229.497C130.307 229.338 130.36 229.178 130.391 229.019C130.421 228.859 130.444 228.677 130.444 228.472C130.444 228.32 130.406 228.199 130.33 228.108C130.254 228.017 130.155 227.979 130.034 227.979C129.73 227.979 129.168 228.427 128.348 229.315C127.528 230.204 126.578 231.396 125.515 232.884L124.68 236.917H123.085V236.955Z" fill="white"/>
<path d="M145.936 234.858C145.199 235.633 144.561 236.18 144.022 236.514C143.483 236.848 142.952 237.008 142.443 237.008C141.835 237.008 141.342 236.765 140.969 236.271C140.597 235.785 140.415 235.139 140.415 234.334C140.415 233.621 140.575 232.816 140.886 231.912C141.197 231.008 141.63 230.142 142.169 229.315C142.701 228.517 143.255 227.917 143.832 227.515C144.41 227.105 145.002 226.9 145.609 226.9C146.042 226.9 146.384 226.976 146.627 227.127C146.87 227.279 146.992 227.492 146.992 227.758C146.992 227.955 146.916 228.13 146.764 228.274C146.612 228.418 146.437 228.494 146.24 228.494C146.096 228.494 145.837 228.403 145.488 228.221C145.131 228.039 144.858 227.948 144.668 227.948C144.318 227.948 144.007 228.13 143.741 228.487C143.476 228.844 143.179 229.512 142.86 230.484C142.617 231.19 142.428 231.874 142.291 232.527C142.154 233.188 142.086 233.742 142.086 234.205C142.086 234.76 142.207 235.193 142.443 235.504C142.678 235.823 143.005 235.975 143.415 235.975C143.741 235.975 144.091 235.853 144.478 235.61C144.865 235.367 145.298 234.995 145.784 234.486L145.936 234.858Z" fill="white"/>
<path d="M160.367 235.292C159.418 235.952 158.659 236.423 158.081 236.704C157.512 236.985 157.018 237.122 156.616 237.122C155.902 237.122 155.309 236.81 154.831 236.188C154.353 235.565 154.117 234.768 154.117 233.803C154.117 232.93 154.277 232.049 154.588 231.168C154.907 230.287 155.332 229.528 155.879 228.897C156.395 228.29 156.965 227.811 157.595 227.47C158.226 227.128 158.841 226.961 159.441 226.961C160.01 226.961 160.466 227.105 160.808 227.394C161.149 227.682 161.316 228.054 161.316 228.518C161.316 229.262 160.868 229.953 159.965 230.606C159.061 231.259 157.724 231.851 155.947 232.391C155.879 232.717 155.833 233.013 155.796 233.279C155.765 233.545 155.742 233.78 155.735 233.97C155.735 234.638 155.894 235.17 156.206 235.565C156.525 235.96 156.935 236.157 157.451 236.157C157.914 236.157 158.772 235.77 160.018 235.003L160.162 234.912L160.367 235.292ZM156.076 231.836C157.337 231.487 158.294 231.024 158.947 230.454C159.593 229.892 159.919 229.224 159.919 228.457C159.919 228.161 159.836 227.925 159.676 227.75C159.517 227.576 159.296 227.485 159.015 227.485C158.393 227.485 157.838 227.842 157.352 228.563C156.866 229.285 156.441 230.378 156.076 231.836Z" fill="white"/>
<path d="M195.929 232.899L194.638 236.757C194.479 236.689 194.319 236.643 194.175 236.605C194.031 236.575 193.879 236.56 193.735 236.56C193.567 236.56 192.96 236.643 191.912 236.818C190.864 236.992 189.899 237.076 189.019 237.076C188.138 237.076 187.355 236.985 186.672 236.803C185.988 236.62 185.366 236.332 184.796 235.944C183.817 235.276 183.072 234.456 182.556 233.476C182.039 232.497 181.781 231.426 181.781 230.256C181.781 229.148 182.047 228.046 182.579 226.953C183.11 225.859 183.847 224.887 184.804 224.022C185.776 223.148 186.892 222.48 188.16 222.032C189.429 221.584 190.818 221.356 192.322 221.356C193.127 221.356 193.962 221.432 194.828 221.591C195.701 221.743 196.605 221.979 197.554 222.29L196.674 226.102L196.21 226.08C196.218 225.996 196.218 225.912 196.218 225.829C196.218 225.745 196.218 225.616 196.218 225.449C196.218 224.34 195.891 223.482 195.238 222.882C194.585 222.282 193.643 221.979 192.428 221.979C191.236 221.979 190.089 222.229 188.996 222.731C187.895 223.232 186.938 223.946 186.11 224.872C185.404 225.669 184.88 226.535 184.546 227.477C184.204 228.419 184.037 229.459 184.037 230.606C184.037 232.406 184.515 233.841 185.464 234.904C186.414 235.967 187.697 236.499 189.3 236.499C190.431 236.499 191.509 236.195 192.527 235.595C193.552 234.995 194.532 234.084 195.481 232.869L195.929 232.899Z" fill="white"/>
<path d="M206.577 234.312C206.554 234.418 206.531 234.547 206.501 234.707C206.41 235.162 206.372 235.443 206.372 235.557C206.372 235.626 206.402 235.686 206.455 235.755C206.508 235.823 206.569 235.854 206.622 235.854C206.797 235.854 207.048 235.686 207.374 235.36C207.701 235.033 208.103 234.532 208.589 233.864L208.832 234.107C208.096 235.14 207.481 235.861 206.995 236.279C206.501 236.696 206.03 236.909 205.582 236.909C205.293 236.909 205.081 236.826 204.944 236.666C204.807 236.507 204.731 236.256 204.731 235.914C204.731 235.8 204.739 235.664 204.762 235.497C204.785 235.33 204.815 235.132 204.861 234.904L207.207 223.247C207.215 223.202 207.23 223.133 207.253 223.027C207.298 222.829 207.321 222.678 207.321 222.571C207.321 222.533 207.306 222.51 207.283 222.488C207.26 222.465 207.222 222.457 207.169 222.457C207.04 222.457 206.873 222.571 206.668 222.791C206.455 223.012 206.235 223.323 205.992 223.71L205.658 223.513C206.334 222.556 206.934 221.827 207.465 221.333C207.997 220.832 208.422 220.582 208.741 220.582C208.885 220.582 208.999 220.627 209.068 220.711C209.136 220.802 209.174 220.938 209.174 221.121C209.174 221.204 209.166 221.318 209.144 221.47C209.128 221.622 209.098 221.781 209.06 221.949L206.577 234.312Z" fill="white"/>
<path d="M226.079 227.249L224.636 234.441C224.628 234.479 224.613 234.547 224.59 234.654C224.545 234.866 224.522 235.026 224.522 235.14C224.522 235.178 224.537 235.201 224.56 235.223C224.583 235.238 224.621 235.254 224.674 235.254C224.795 235.254 224.962 235.14 225.175 234.92C225.388 234.699 225.608 234.388 225.851 233.985L226.185 234.198C225.517 235.14 224.917 235.861 224.385 236.362C223.854 236.864 223.428 237.114 223.094 237.114C222.95 237.114 222.836 237.069 222.768 236.985C222.699 236.894 222.661 236.765 222.661 236.575C222.661 236.492 222.669 236.385 222.692 236.241C222.707 236.097 222.737 235.937 222.775 235.762L223.482 232.254C222.191 233.932 221.105 235.163 220.239 235.945C219.373 236.727 218.659 237.122 218.097 237.122C217.816 237.122 217.588 237 217.406 236.765C217.224 236.529 217.133 236.218 217.133 235.831C217.133 235.641 217.163 235.406 217.216 235.117C217.27 234.836 217.368 234.411 217.52 233.841L218.621 229.748C218.667 229.588 218.697 229.444 218.728 229.323C218.75 229.201 218.766 229.11 218.766 229.049C218.766 228.935 218.75 228.867 218.72 228.829C218.69 228.791 218.621 228.776 218.515 228.776C218.363 228.776 218.158 228.89 217.9 229.125C217.642 229.361 217.33 229.71 216.966 230.181L216.624 229.961C217.429 228.973 218.135 228.221 218.735 227.705C219.335 227.189 219.798 226.93 220.133 226.93C220.292 226.93 220.414 226.984 220.489 227.09C220.565 227.196 220.603 227.371 220.603 227.614C220.603 227.766 220.581 227.971 220.543 228.221C220.505 228.472 220.444 228.745 220.376 229.034L218.993 234.494C218.925 234.79 218.88 235.011 218.857 235.163C218.834 235.314 218.819 235.428 218.819 235.512C218.819 235.664 218.857 235.785 218.925 235.876C218.993 235.968 219.1 236.005 219.229 236.005C219.525 236.005 220.079 235.565 220.907 234.677C221.727 233.788 222.677 232.603 223.74 231.107L224.514 227.272H226.079V227.249Z" fill="white"/>
<path d="M237.104 223.247C237.127 223.118 237.15 222.996 237.165 222.897C237.18 222.799 237.195 222.723 237.195 222.685C237.195 222.624 237.18 222.571 237.142 222.533C237.104 222.487 237.051 222.465 236.99 222.465C236.884 222.465 236.732 222.556 236.527 222.73C236.322 222.905 236.064 223.171 235.752 223.528L235.434 223.277C235.593 223.118 235.821 222.89 236.109 222.601C237.408 221.265 238.251 220.596 238.623 220.596C238.76 220.596 238.874 220.642 238.957 220.733C239.041 220.824 239.079 220.961 239.079 221.136C239.079 221.212 239.071 221.325 239.048 221.477C239.026 221.629 239.003 221.796 238.972 221.963L237.294 230.575C238.251 229.466 239.109 228.593 239.869 227.955C240.628 227.317 241.19 226.998 241.539 226.998C241.919 226.998 242.276 227.34 242.602 228.024C242.929 228.707 243.096 229.512 243.096 230.439C243.096 231.099 242.975 231.775 242.739 232.466C242.504 233.157 242.154 233.818 241.699 234.448C241.099 235.299 240.423 235.937 239.686 236.37C238.95 236.795 238.137 237.008 237.256 237.008C236.542 237.008 235.973 236.802 235.54 236.392C235.107 235.982 234.887 235.451 234.887 234.798C234.887 234.57 234.902 234.312 234.94 234.023C234.978 233.734 235.031 233.423 235.107 233.074L237.104 223.247ZM237.081 231.471L236.588 233.818C236.535 234 236.497 234.175 236.474 234.35C236.451 234.517 236.444 234.676 236.444 234.813C236.444 235.306 236.565 235.694 236.816 235.967C237.059 236.248 237.4 236.385 237.826 236.385C238.722 236.385 239.534 235.8 240.263 234.623C240.992 233.453 241.357 232.056 241.357 230.446C241.357 229.808 241.266 229.284 241.084 228.882C240.901 228.479 240.674 228.274 240.408 228.274C240.18 228.274 239.831 228.502 239.352 228.95C238.866 229.421 238.114 230.256 237.081 231.471Z" fill="white"/>
<path d="M45.0413 165.903C42.2466 166.921 40.1202 167.179 38.3432 167.179C34.9486 167.179 33.3386 166.161 30.7945 166.161C29.8605 166.161 28.7593 166.328 27.4835 166.754C26.8911 166.921 26.4658 167.012 26.0406 167.012C25.1065 167.012 24.6812 166.587 24.6812 165.994C24.6812 165.402 25.19 164.635 26.2912 163.959C33.9234 159.121 60.898 143.348 60.898 135.291C60.898 133.339 59.288 131.813 55.2175 131.053C53.0152 130.628 50.7218 130.461 48.4283 130.461C32.6551 130.461 15.6896 139.194 6.61456 139.194C4.92105 139.194 3.47815 138.936 2.37699 138.177C0.592349 136.992 0 135.974 0 135.124C0 133.256 2.8858 132.238 3.31108 132.238C3.56928 132.238 2.96934 132.58 2.63519 132.747C2.20992 133.005 1.7011 133.423 1.7011 133.597C1.7011 133.681 1.78464 133.764 2.29345 133.764C6.36395 133.764 29.6934 127.15 47.5854 127.15C51.4052 127.15 54.9669 127.492 58.0198 128.167C65.3102 129.861 71.416 135.708 71.416 142.748C71.416 150.213 64.4597 159.038 45.0413 165.903ZM25.1065 158.696C17.7249 170.065 13.3203 179.056 13.3203 182.534C13.3203 183.552 13.7455 184.144 14.6796 184.144C15.5302 184.144 15.7808 184.395 15.7808 184.737C15.7808 185.078 15.439 185.754 14.6796 185.754C13.9126 185.754 12.6444 184.904 10.8597 183.803C8.23213 182.109 6.02221 179.474 6.02221 175.236C6.02221 169.047 10.9433 161.582 16.2896 155.051C22.9877 146.826 30.4528 139.87 30.4528 137.835C30.4528 137.577 30.2857 137.41 30.1111 137.326C29.7693 137.159 29.6022 136.901 29.6022 136.65C29.6022 136.392 29.7693 136.141 30.1111 136.141C30.2781 136.141 30.4528 136.225 30.6199 136.308C32.6551 137.41 33.5892 139.02 33.5892 141.146C33.5892 145.292 29.8605 151.315 25.1065 158.696Z" fill="white"/>
<path d="M103.563 164.377C97.3737 169.723 87.3645 179.641 84.2205 182.36C82.1853 184.053 80.4006 184.82 79.2159 184.82C78.4565 184.82 77.8566 184.562 76.8389 183.636C74.8037 181.768 74.0367 180.666 74.0367 178.882C74.0367 177.781 74.3784 176.679 74.8872 175.404C75.7378 173.201 77.5984 170.991 80.8259 167.004C82.6941 164.711 84.6458 162.167 84.6458 161.233C84.6458 160.891 84.4787 160.557 83.6282 160.557C81.6765 160.557 79.4741 161.833 78.6236 162.25C77.5224 162.843 76.2466 163.61 74.5531 163.944C73.619 164.111 73.1937 164.453 72.6014 164.962C70.8243 166.488 67.855 169.541 65.9868 171.067C65.3945 171.66 64.4604 172.085 64.1186 172.085C63.8604 172.085 63.6934 171.918 63.6934 171.743C63.6934 171.401 63.9516 171.067 64.3692 170.642C67.0804 168.265 71.5761 163.344 71.3255 162.835C70.2244 160.8 69.632 159.015 69.632 157.489C69.632 154.52 71.6673 152.234 76.7554 149.006C77.0136 148.839 77.4313 148.755 77.8566 148.755C78.2818 148.755 78.7907 148.923 78.9577 149.181C80.993 151.383 82.0941 153.084 82.0941 154.352C82.0941 155.962 80.8183 157.405 78.1907 159.524C77.849 159.782 77.6819 159.949 77.6819 160.116C77.6819 160.284 77.849 160.458 78.1072 160.458C78.2742 160.458 78.5324 160.375 78.7831 160.291C81.3271 159.357 83.1118 158.932 84.6382 158.932C86.757 158.932 88.1999 159.866 90.1516 161.559C90.6604 162.068 90.9186 162.835 90.9186 163.678C90.9186 165.455 89.8175 168.174 88.7998 170.042C87.3569 172.753 85.747 175.047 85.0711 176.231C84.904 176.573 84.6458 176.998 84.6458 177.416C84.6458 177.5 84.6458 177.583 84.8129 177.583C84.9799 177.583 85.3217 177.416 85.914 176.991C89.901 174.021 98.3837 166.982 102.621 163.503C103.047 163.162 103.297 162.995 103.555 162.995C103.897 162.995 104.148 163.162 104.148 163.42C104.148 163.678 103.988 164.043 103.563 164.377Z" fill="white"/>
<path d="M137.068 168.873C135.284 171.584 127.485 179.132 123.923 182.018C122.989 182.785 122.055 183.119 121.037 183.119C118.918 183.119 116.708 181.168 116.708 177.439C116.708 174.978 117.642 171.758 120.103 167.688C120.361 167.263 120.528 166.921 120.528 166.67C120.528 166.503 120.445 166.329 120.187 166.329C120.019 166.329 119.845 166.329 119.594 166.496C113.914 169.632 108.484 178.882 102.712 183.712C101.862 184.471 100.928 184.729 100.085 184.729C97.0318 184.729 94.2295 181.084 94.2295 177.606C94.2295 176.847 94.3966 176.08 94.6548 175.404C99.4923 163.526 113.906 153.859 119.002 151.482C120.786 150.631 121.629 150.464 122.731 150.464C125.108 150.464 126.718 152.158 128.753 156.654C128.92 156.995 128.92 157.246 128.92 157.413C128.92 157.838 128.662 158.005 128.411 158.005C128.069 158.005 127.652 157.747 127.31 157.413C126.885 156.904 126.292 156.654 125.442 156.654C120.187 156.654 107.208 166.237 103.897 173.027C103.73 173.452 103.555 173.877 103.555 174.302C103.555 174.895 103.806 175.404 104.406 175.404C104.747 175.404 105.34 175.145 106.19 174.47C111.195 170.399 119.678 162.592 122.564 161.575C123.156 161.316 123.839 161.316 124.341 161.316C126.801 161.233 128.328 163.61 128.328 165.729C128.328 166.154 128.244 166.579 128.16 166.913C127.226 169.716 122.814 175.905 121.629 179.216C121.546 179.558 121.462 179.892 121.462 180.15C121.462 180.742 121.721 181.168 122.138 181.168C122.396 181.168 122.647 181.001 122.989 180.742C126.042 178.365 132.656 172.009 135.626 168.614C136.218 167.939 136.643 167.68 136.985 167.68C137.152 167.68 137.327 167.847 137.327 168.106C137.327 168.28 137.236 168.538 137.068 168.873Z" fill="white"/>
<path d="M154.625 170.657C150.98 175.829 143.257 184.061 138.343 184.061C137.751 184.061 137.326 183.977 136.817 183.719C133.681 182.109 132.83 180.324 132.83 177.78C132.83 171.249 139.953 161.833 143.097 156.403C143.265 156.061 143.348 155.81 143.348 155.643C143.348 155.051 142.414 155.385 142.414 154.876C142.414 154.709 142.581 154.117 143.265 154.117C144.624 154.117 147.335 155.81 148.186 157.086C148.778 157.937 149.12 158.863 149.12 159.797C149.12 161.324 148.444 162.934 147.335 164.544C144.366 168.956 137.242 177.355 137.159 181.593C137.159 181.851 137.326 181.934 137.668 181.934C139.87 181.934 148.694 176.505 153.699 170.057C153.957 169.715 154.208 169.632 154.458 169.632C154.625 169.632 154.8 169.799 154.8 170.057C154.793 170.232 154.709 170.49 154.625 170.657ZM152.332 150.98C151.056 150.98 149.871 150.046 149.279 148.095C149.021 147.419 149.363 146.993 149.621 146.568C150.722 144.958 154.542 145.467 157.428 143.432C157.595 143.265 158.02 143.682 157.769 144.958C157.002 148.687 154.542 150.98 152.332 150.98Z" fill="white"/>
<path d="M192.961 168.873C191.184 171.584 183.377 179.132 179.815 182.018C178.881 182.785 177.947 183.119 176.93 183.119C174.811 183.119 172.601 181.168 172.601 177.439C172.601 174.978 173.535 171.758 175.996 167.688C176.254 167.263 176.421 166.921 176.421 166.67C176.421 166.503 176.337 166.329 176.079 166.329C175.912 166.329 175.737 166.329 175.487 166.496C169.806 169.632 164.376 178.882 158.605 183.712C157.754 184.471 156.82 184.729 155.977 184.729C152.924 184.729 150.122 181.084 150.122 177.606C150.122 176.847 150.289 176.08 150.547 175.404C155.385 163.526 169.799 153.859 174.894 151.482C176.671 150.631 177.522 150.464 178.623 150.464C181 150.464 182.61 152.158 184.645 156.654C184.812 156.995 184.812 157.246 184.812 157.413C184.812 157.838 184.562 158.005 184.304 158.005C183.962 158.005 183.537 157.747 183.202 157.413C182.777 156.904 182.185 156.654 181.334 156.654C176.079 156.654 163.101 166.237 159.79 173.027C159.622 173.452 159.448 173.877 159.448 174.302C159.448 174.895 159.706 175.404 160.298 175.404C160.64 175.404 161.232 175.145 162.083 174.47C167.088 170.399 175.57 162.592 178.456 161.575C179.048 161.316 179.732 161.316 180.241 161.316C182.701 161.233 184.228 163.61 184.228 165.729C184.228 166.154 184.144 166.579 184.061 166.913C183.127 169.716 178.714 175.905 177.53 179.216C177.446 179.558 177.363 179.892 177.363 180.15C177.363 180.742 177.621 181.168 178.038 181.168C178.297 181.168 178.547 181.001 178.889 180.742C181.942 178.365 188.556 172.009 191.526 168.614C192.118 167.939 192.543 167.68 192.885 167.68C193.052 167.68 193.227 167.847 193.227 168.106C193.219 168.28 193.136 168.538 192.961 168.873Z" fill="white"/>
<path d="M235.725 168.675C234.199 168.675 232.672 167.999 232.505 166.723C232.247 164.521 230.812 163.587 228.435 163.587C226.141 163.587 223.088 164.354 219.276 165.88C204.688 171.652 185.945 188.101 182.718 203.031C182.551 203.798 182.467 204.39 182.467 204.899C182.467 206.509 183.226 207.018 184.244 207.018C185.011 207.018 185.938 206.767 186.872 206.342C205.872 198.201 225.891 171.819 230.47 171.819C232.422 171.819 236.409 173.687 236.409 176.99C236.409 178.008 236.067 179.109 235.308 180.469C231.07 187.676 223.263 202.864 223.263 207.36C223.263 208.127 223.43 208.544 224.023 208.544C224.364 208.544 224.782 208.377 225.298 208.119C225.557 207.952 225.974 207.861 226.232 207.861C226.4 207.861 226.825 208.028 226.825 208.286C226.825 208.544 226.567 208.962 225.891 209.387C222.58 211.59 220.036 212.524 218 212.524C214.606 212.524 213.079 209.722 213.079 205.484C213.079 201.155 214.689 195.558 217.659 190.303C217.826 189.961 218 189.627 218 189.453C218 189.369 217.917 189.202 217.833 189.202C217.666 189.202 217.324 189.369 216.816 189.711C211.386 193.531 195.78 213.458 182.376 213.458C181.1 213.458 179.832 213.291 178.556 212.866C174.485 211.59 170.582 208.537 170.582 202.773C170.582 198.869 172.45 193.698 177.28 186.825C187.882 171.895 211.545 158.749 226.392 158.749C232.164 158.749 236.659 160.701 238.436 165.364C238.603 165.789 238.695 166.131 238.695 166.465C238.695 167.991 237.252 168.675 235.725 168.675Z" fill="white"/>
<path d="M245.226 180.97C245.226 180.628 245.143 180.461 244.801 180.377C244.459 180.294 244.292 180.036 244.292 179.785C244.292 179.443 244.55 179.109 244.968 179.193C247.77 179.952 249.547 181.653 249.547 184.448C249.547 187.334 248.021 190.721 244.376 195.217C243.783 195.984 243.191 196.827 243.191 197.085C243.191 197.168 243.274 197.252 243.358 197.252C243.7 197.252 244.717 196.576 245.56 195.725C253.96 187.751 258.03 184.532 261.166 184.532C262.776 184.532 264.052 185.549 265.153 187.501C265.662 188.435 265.913 189.194 265.913 190.387C265.913 193.607 263.794 197.176 262.518 199.295C260.058 203.532 258.364 206.593 258.364 208.795C258.364 209.304 258.531 209.646 259.04 209.646C260.316 209.646 263.619 207.269 270.067 200.912C271.593 199.469 272.444 198.877 272.869 198.877C273.036 198.877 273.127 198.961 273.127 199.135C273.127 199.477 272.618 200.411 271.434 201.763C266.179 207.785 261.341 212.531 257.696 212.531C256.762 212.531 256.086 212.448 255.494 212.106C253.117 210.921 251.59 208.795 251.59 205.408C251.59 203.115 252.441 200.236 254.476 196.925C256.511 193.614 257.871 190.652 257.871 189.544C257.871 189.118 257.62 188.868 257.278 188.868C253.967 188.868 237.602 206 235.483 210.838C235.316 211.263 234.89 211.855 234.298 211.855C233.789 211.855 231.078 210.496 231.078 207.193C231.063 198.953 245.226 184.114 245.226 180.97Z" fill="white"/>
<path d="M297.224 195.308C294.763 197.343 287.556 202.773 283.395 205.659C282.544 206.251 282.21 206.676 281.868 207.352C276.78 219.229 266.604 232.967 259.306 232.967C257.271 232.967 251.499 230.34 251.499 226.945C251.499 226.436 251.583 225.844 251.841 225.335C255.828 217.361 264.645 215.159 274.236 208.537C274.661 208.279 274.912 208.028 275.337 207.01C278.557 199.036 281.527 190.47 281.527 187.584C281.527 186.908 281.359 186.567 281.018 186.567C280.851 186.567 280.509 186.825 280.084 187.159C279.825 187.326 279.658 187.417 279.575 187.417C279.408 187.417 279.317 187.25 279.317 187.076C279.317 186.901 279.317 186.65 279.484 186.4C280.334 185.124 281.352 183.856 282.453 183.856C282.878 183.856 285.081 184.623 285.848 185.131C287.374 185.982 288.05 187.167 288.05 188.951C288.05 191.579 286.524 195.649 283.812 202.606C283.645 203.115 283.729 203.198 283.896 203.198C284.063 203.198 284.488 202.94 285.172 202.522C288.392 200.32 292.553 197.35 296.366 194.381C297.042 193.872 297.467 193.614 297.725 193.614C297.983 193.614 298.067 193.781 298.067 193.956C298.074 194.29 297.816 194.799 297.224 195.308ZM272.877 211.423C272.71 211.423 272.535 211.506 272.201 211.764C266.52 215.493 256.337 220.756 254.559 225.677C254.301 226.436 254.218 227.036 254.218 227.629C254.218 228.904 254.977 229.58 256.086 229.58C259.397 229.58 266.687 224.15 273.051 211.939C273.218 211.59 272.968 211.423 272.877 211.423ZM297.733 173.505C296.715 177.233 294.171 179.443 291.877 179.443C290.518 179.443 289.417 178.593 289.075 176.641C288.992 175.965 289.159 175.456 289.5 175.031C290.776 173.505 294.505 174.013 297.641 171.978C297.9 171.811 297.9 172.145 297.9 172.32C297.9 172.662 297.9 172.996 297.733 173.505Z" fill="white"/>
<path d="M297.816 212.608C296.123 212.691 290.776 211.165 290.776 206.244C290.776 198.779 301.803 187.501 308.592 182.071C309.526 181.395 309.952 181.054 310.461 181.054C310.886 181.054 311.311 181.395 312.071 181.988C315.382 184.448 316.483 185.891 316.483 186.909C316.483 187.759 315.723 188.268 314.789 189.286C315.89 189.286 318.267 189.286 318.693 191.579C318.776 192.172 318.86 192.764 318.86 193.364C318.852 202.94 303.671 212.441 297.816 212.608ZM314.698 191.321C313.088 191.579 311.896 191.746 311.478 192.081C308 194.966 298.758 202.766 297.649 208.028C297.566 208.454 297.482 208.788 297.482 209.046C297.482 209.304 297.566 209.471 297.824 209.471C298.166 209.471 298.674 209.304 299.517 208.879C308.592 204.55 316.817 195.65 316.817 192.422C316.817 191.663 316.225 191.063 314.698 191.321Z" fill="white"/>
<path d="M349.647 195.475C347.529 197.677 337.945 205.651 337.945 206.076C337.778 211.757 328.444 214.726 322.68 214.726C320.987 214.726 319.628 214.468 318.777 213.959C318.268 213.617 318.018 213.2 318.018 212.6C318.018 211.924 318.359 211.24 319.119 210.481C322.088 207.428 332.606 202.674 332.606 198.178C332.606 197.586 332.439 196.903 331.93 196.31C329.895 193.85 327.267 191.222 327.267 188.503C327.267 185.876 329.386 183.415 336.001 180.788C336.426 180.621 336.677 180.362 337.018 180.362C337.527 180.362 338.203 180.955 340.238 183.499C341.256 184.775 341.765 185.701 341.765 186.552C341.765 187.911 340.405 189.012 337.778 190.288C334.892 191.647 333.031 192.24 333.031 193.174C333.031 193.515 333.198 193.766 333.54 194.191C335.575 196.394 338.803 199.112 338.119 203.016C340.071 201.656 345.926 197.161 348.721 194.791C349.063 194.45 349.397 194.366 349.655 194.366C349.906 194.366 350.08 194.45 350.08 194.708C350.065 194.882 349.898 195.224 349.647 195.475Z" fill="white"/>
<path d="M147.837 184.82C147.503 184.82 147.313 184.866 146.979 185.109C140.121 191.344 134.646 205.059 134.646 207.2C134.646 207.626 134.744 207.679 134.881 207.679C134.98 207.679 135.17 207.633 135.405 207.534C136.597 207.102 140.402 203.342 142.498 201.057C142.878 200.631 143.212 200.388 143.447 200.388C143.546 200.388 143.637 200.388 143.637 200.624C143.637 200.814 143.539 201.102 143.204 201.527C141.207 203.958 136.916 208.096 135.208 209.053C135.018 209.144 134.684 209.243 134.304 209.243C133.112 209.243 131.35 208.529 131.35 206.152C131.35 203.532 132.732 201.011 133.826 198.444C133.917 198.209 134.114 197.875 134.015 197.875C133.871 197.875 133.681 198.019 133.446 198.399C131.919 200.73 126.641 207.777 124.781 208.917C124.591 209.061 124.302 209.106 124.021 209.106C122.449 209.106 119.784 207.2 120.164 205.294C121.166 199.963 127.355 192.437 129.831 191.252C130.211 191.063 130.59 191.017 131.023 191.017C132.497 191.017 134.167 192.019 134.737 193.394C134.782 193.493 134.782 193.584 134.782 193.629C134.782 193.728 134.684 193.819 134.593 193.819C134.448 193.819 134.258 193.721 134.114 193.675C133.924 193.576 133.734 193.531 133.545 193.531C131.449 193.531 127.97 197.814 125.495 203.099C125.206 203.669 125.016 204.246 125.016 204.527C125.016 204.816 125.115 204.861 125.206 204.861C125.54 204.861 125.874 204.671 127.203 203.244C133.013 196.91 136.013 193.675 136.628 192.627C139.817 187.486 143.098 181.866 144.533 181.866C146.197 181.866 148.293 183.339 148.346 184.296C148.361 184.775 148.262 184.82 147.837 184.82Z" fill="white"/>
<path d="M144.222 209.289C143.273 209.334 140.273 208.476 140.273 205.72C140.273 201.528 146.463 195.202 150.267 192.149C150.791 191.769 151.027 191.579 151.315 191.579C151.551 191.579 151.794 191.769 152.219 192.103C154.08 193.485 154.695 194.29 154.695 194.868C154.695 195.346 154.262 195.627 153.746 196.204C154.361 196.204 155.697 196.204 155.933 197.488C155.978 197.822 156.031 198.156 156.031 198.49C156.024 203.867 147.503 209.198 144.222 209.289ZM153.692 197.343C152.789 197.488 152.12 197.579 151.885 197.769C149.933 199.386 144.746 203.768 144.124 206.722C144.078 206.957 144.025 207.147 144.025 207.292C144.025 207.436 144.071 207.527 144.215 207.527C144.405 207.527 144.693 207.428 145.164 207.193C150.26 204.763 154.877 199.766 154.877 197.958C154.885 197.533 154.551 197.199 153.692 197.343Z" fill="white"/>
<path d="M173.308 199.675C172.116 200.912 166.739 205.385 166.739 205.628C166.641 208.818 161.408 210.481 158.173 210.481C157.224 210.481 156.457 210.337 155.986 210.048C155.697 209.858 155.561 209.623 155.561 209.289C155.561 208.909 155.75 208.529 156.176 208.097C157.839 206.38 163.747 203.715 163.747 201.193C163.747 200.859 163.648 200.48 163.367 200.145C162.221 198.763 160.747 197.29 160.747 195.764C160.747 194.29 161.94 192.908 165.653 191.435C165.889 191.336 166.033 191.199 166.223 191.199C166.511 191.199 166.891 191.534 168.03 192.961C168.6 193.675 168.888 194.199 168.888 194.678C168.888 195.437 168.129 196.06 166.648 196.774C165.031 197.533 163.983 197.867 163.983 198.391C163.983 198.581 164.081 198.725 164.271 198.961C165.418 200.199 167.225 201.725 166.846 203.912C167.939 203.153 171.227 200.631 172.799 199.295C172.989 199.105 173.179 199.059 173.323 199.059C173.468 199.059 173.559 199.105 173.559 199.249C173.544 199.34 173.453 199.53 173.308 199.675Z" fill="white"/>
</svg>
