<svg width="142" height="133" viewBox="0 0 142 133" fill="none" xmlns="http://www.w3.org/2000/svg">
<path d="M110.072 29.1517L126.96 14.7319L132.915 24.1189L112.239 32.6276L110.072 29.1517Z" fill="#F05823"/>
<path d="M111.85 49.1831L132.154 58.1663L126.28 67.6054L109.658 52.6465L111.85 49.1831Z" fill="#F05823"/>
<path d="M107.392 55.1646L122.519 71.4264L113.402 77.785L104.014 57.4832L107.392 55.1646Z" fill="#F05823"/>
<path d="M100.686 58.728L107.966 79.7146L97.0604 81.8521L96.661 59.4856L100.686 58.728Z" fill="#F05823"/>
<path d="M107.734 26.6873L122.86 10.4255L113.743 4.06689L104.355 24.3686L107.734 26.6873Z" fill="#F05823"/>
<path d="M101.027 23.1241L108.308 2.13757L97.4016 0L97.0022 22.3665L101.027 23.1241Z" fill="#F05823"/>
<path d="M75.8391 42.0708L53.6588 43.0615L55.7056 53.9908L76.6233 46.0941L75.8391 42.0708Z" fill="#F05823"/>
<path d="M76.7086 35.3604L55.9344 27.5698L52.3982 38.1391L75.8058 39.3587L76.7086 35.3604Z" fill="#F05823"/>
<path d="M80.1074 29.1519L57.9771 10.4111L57.2636 24.1191L77.9379 32.6278L80.1074 29.1519Z" fill="#F05823"/>
<path d="M78.3289 49.1831L58.0249 58.1663L58.6281 72.4654L80.5214 52.6465L78.3289 49.1831Z" fill="#F05823"/>
<path d="M82.7866 55.1646L67.66 71.4264L76.7772 77.785L86.1647 57.4832L82.7866 55.1646Z" fill="#F05823"/>
<path d="M89.493 58.728L82.2126 79.7146L93.1186 81.8521L93.518 59.4856L89.493 58.728Z" fill="#F05823"/>
<path d="M82.4455 26.6873L67.3189 10.4255L76.4361 4.06689L85.8236 24.3686L82.4455 26.6873Z" fill="#F05823"/>
<path d="M89.1518 23.1241L81.8714 2.13757L92.7775 0L93.1768 22.3665L89.1518 23.1241Z" fill="#F05823"/>
<path d="M135.476 32.921L134.163 27.3096L117.926 33.6265L116.507 34.0845H141.271V32.921H135.476ZM121.479 49.0849L134.471 53.9907L135.368 49.2077H141.269V48.0442H117.321L121.479 49.0849Z" fill="#F05823"/>
<path d="M0 56.4907L20.4517 53.9264C21.7913 61.1904 25.6229 64.8224 31.9423 64.8224C34.815 64.8224 37.1509 64.0648 38.9523 62.5496C40.7516 61.0343 41.6523 58.9946 41.6523 56.4324C41.6523 54.7236 41.1635 53.2188 40.1879 51.9158C39.2102 50.615 38.1681 49.7012 37.0573 49.1767C35.9465 48.6522 34.0307 48.39 31.312 48.39H21.7747V31.7847H29.8185C34.1077 31.7847 36.866 31.0084 38.0911 29.4536C39.3163 27.9009 39.93 26.2878 39.93 24.6186C39.93 22.5205 39.1624 20.7722 37.6314 19.3756C36.0984 17.9769 34.089 17.2775 31.5991 17.2775C26.2365 17.2775 22.9624 20.308 21.7747 26.3669L2.81648 23.3364C4.5409 15.8789 8.18735 10.1301 13.76 6.09014C19.3326 2.05019 25.9287 0.03125 33.5523 0.03125C42.1307 0.03125 49.0263 2.071 54.2349 6.14842C59.4436 10.2279 62.0479 15.6666 62.0479 22.4623C62.0479 26.5417 60.9454 30.0947 58.7446 33.1251C56.5418 36.1556 53.7357 38.1933 50.3285 39.2423C59.7514 42.1562 64.4608 48.39 64.4608 57.9456C64.4608 65.5592 61.5965 71.4724 55.872 75.6872C50.1454 79.902 42.7256 82.0084 33.6106 82.0084C15.3014 82.0105 4.09783 73.5039 0 56.4907Z" fill="#F05823"/>
<path d="M14.7293 99.2087L18.3654 100.308C18.122 101.328 17.7372 102.181 17.2109 102.864C16.6867 103.548 16.0336 104.065 15.2556 104.412C14.4776 104.76 13.4875 104.935 12.2831 104.935C10.8249 104.935 9.63303 104.722 8.70738 104.298C7.78172 103.873 6.98504 103.128 6.31316 102.058C5.64128 100.99 5.30638 99.6229 5.30638 97.9557C5.30638 95.7349 5.89713 94.0261 7.07864 92.8334C8.26015 91.6408 9.93049 91.0435 12.0917 91.0435C13.7829 91.0435 15.1121 91.3848 16.0793 92.0696C17.0466 92.7543 17.7663 93.8054 18.2364 95.2208L14.5733 96.0367C14.4443 95.6266 14.3112 95.329 14.1698 95.1396C13.9368 94.8212 13.6539 94.5776 13.319 94.407C12.9841 94.2363 12.6076 94.151 12.1937 94.151C11.2534 94.151 10.5337 94.5298 10.0324 95.2853C9.65383 95.8473 9.46454 96.7277 9.46454 97.9307C9.46454 99.4189 9.69127 100.441 10.1427 100.992C10.594 101.544 11.2285 101.821 12.048 101.821C12.8406 101.821 13.4417 101.598 13.8474 101.153C14.2509 100.705 14.5463 100.058 14.7293 99.2087Z" fill="white"/>
<path d="M20.6119 99.8687C20.6119 98.3847 21.1132 97.1608 22.1138 96.1992C23.1143 95.2376 24.4664 94.7568 26.17 94.7568C28.117 94.7568 29.5876 95.3209 30.584 96.4511C31.3828 97.3606 31.7842 98.4825 31.7842 99.8146C31.7842 101.311 31.2871 102.537 30.297 103.492C29.3047 104.448 27.9319 104.926 26.1804 104.926C24.6182 104.926 23.3535 104.529 22.3883 103.736C21.2048 102.751 20.6119 101.463 20.6119 99.8687ZM24.3478 99.8604C24.3478 100.728 24.5225 101.369 24.8741 101.784C25.2256 102.2 25.6666 102.406 26.197 102.406C26.7337 102.406 27.1747 102.202 27.52 101.792C27.8653 101.382 28.0379 100.726 28.0379 99.8208C28.0379 98.9779 27.8632 98.3493 27.5158 97.9372C27.1685 97.5251 26.7379 97.319 26.2241 97.319C25.6812 97.319 25.2319 97.5292 24.8782 97.9476C24.5246 98.368 24.3478 99.0049 24.3478 99.8604Z" fill="white"/>
<path d="M34.5154 94.9754H37.9851V96.5614C38.503 95.9141 39.0293 95.452 39.5597 95.1731C40.0902 94.8963 40.7371 94.7568 41.5005 94.7568C42.5322 94.7568 43.3393 95.0628 43.9217 95.6768C44.5042 96.2908 44.7954 97.2399 44.7954 98.522V104.706H41.0512V99.3546C41.0512 98.7448 40.9389 98.3118 40.7121 98.0579C40.4854 97.804 40.1692 97.677 39.7594 97.677C39.308 97.677 38.9419 97.8477 38.6611 98.1911C38.3803 98.5325 38.2409 99.1465 38.2409 100.033V104.706H34.5134V94.9754H34.5154Z" fill="white"/>
<path d="M47.3041 102.004L51.0046 101.657C51.1564 102.096 51.3707 102.412 51.6453 102.599C51.9198 102.789 52.2859 102.885 52.7436 102.885C53.2449 102.885 53.6318 102.778 53.9064 102.564C54.1206 102.406 54.2267 102.208 54.2267 101.969C54.2267 101.7 54.0873 101.492 53.8065 101.346C53.6047 101.242 53.0702 101.115 52.2048 100.961C50.911 100.737 50.0124 100.526 49.5069 100.335C49.0035 100.143 48.5792 99.8187 48.2339 99.3608C47.8886 98.9029 47.7159 98.3805 47.7159 97.7956C47.7159 97.1546 47.9011 96.603 48.2755 96.1389C48.6478 95.6747 49.1616 95.3292 49.8148 95.1003C50.4679 94.8713 51.3437 94.7568 52.442 94.7568C53.6027 94.7568 54.4576 94.8463 55.0109 95.0233C55.5642 95.2002 56.0239 95.4749 56.3942 95.8475C56.7644 96.22 57.0702 96.7237 57.3136 97.3586L53.7795 97.7061C53.6879 97.3939 53.5361 97.165 53.3218 97.0193C53.0285 96.8236 52.6749 96.7258 52.2589 96.7258C51.8387 96.7258 51.5309 96.8007 51.3395 96.9506C51.1481 97.1005 51.0504 97.2815 51.0504 97.4959C51.0504 97.7332 51.1731 97.9143 51.4165 98.035C51.6598 98.1578 52.1923 98.266 53.0098 98.3639C54.2496 98.5033 55.1711 98.699 55.7764 98.9487C56.3817 99.1985 56.8435 99.5565 57.1638 100.021C57.4842 100.485 57.6443 100.995 57.6443 101.548C57.6443 102.11 57.4758 102.656 57.1368 103.186C56.7977 103.717 56.2631 104.14 55.5351 104.454C54.805 104.768 53.8128 104.924 52.5543 104.924C50.7779 104.924 49.5131 104.67 48.7581 104.165C48.0009 103.659 47.5162 102.939 47.3041 102.004Z" fill="white"/>
<path d="M64.8519 91.2744V94.9751H66.9029V97.7059H64.8519V101.155C64.8519 101.569 64.8914 101.844 64.9705 101.977C65.0932 102.185 65.3054 102.287 65.6112 102.287C65.8857 102.287 66.2706 102.208 66.7656 102.05L67.0402 104.624C66.1187 104.826 65.2575 104.926 64.4588 104.926C63.531 104.926 62.8467 104.808 62.4078 104.568C61.9689 104.331 61.6423 103.969 61.4322 103.484C61.2221 102.999 61.116 102.214 61.116 101.128V97.7059H59.7431V94.9751H61.116V93.1893L64.8519 91.2744Z" fill="white"/>
<path d="M69.6549 94.975H73.1433V96.5694C73.4782 95.8783 73.8256 95.4038 74.1834 95.1436C74.5411 94.8834 74.9821 94.7544 75.5063 94.7544C76.0555 94.7544 76.6566 94.9251 77.3098 95.2664L76.1553 97.9243C75.7164 97.7412 75.3669 97.6496 75.1111 97.6496C74.6223 97.6496 74.2437 97.8515 73.9753 98.2553C73.5905 98.8235 73.3992 99.8871 73.3992 101.444V104.705H69.6529V94.975H69.6549Z" fill="white"/>
<path d="M89.7488 104.707H86.2688V103.132C85.7488 103.779 85.2266 104.241 84.6983 104.516C84.1699 104.791 83.5209 104.928 82.7513 104.928C81.7258 104.928 80.9208 104.62 80.3384 104.008C79.7559 103.394 79.4647 102.449 79.4647 101.171V94.9771H83.211V100.328C83.211 100.938 83.3233 101.373 83.5501 101.629C83.7768 101.885 84.093 102.014 84.5028 102.014C84.9479 102.014 85.314 101.844 85.5969 101.502C85.8819 101.161 86.0233 100.547 86.0233 99.6601V94.9771H89.7509V104.707H89.7488Z" fill="white"/>
<path d="M97.4453 91.2744V94.9751H99.4963V97.7059H97.4453V101.155C97.4453 101.569 97.4848 101.844 97.5638 101.977C97.6866 102.185 97.8987 102.287 98.2045 102.287C98.4791 102.287 98.8639 102.208 99.359 102.05L99.6336 104.624C98.7121 104.826 97.8509 104.926 97.0521 104.926C96.1244 104.926 95.44 104.808 95.0011 104.568C94.5622 104.331 94.2356 103.969 94.0256 103.484C93.8155 102.999 93.7094 102.214 93.7094 101.128V97.7059H92.3365V94.9751H93.7094V93.1893L97.4453 91.2744Z" fill="white"/>
<path d="M101.751 99.8687C101.751 98.3847 102.252 97.1608 103.253 96.1992C104.253 95.2376 105.606 94.7568 107.309 94.7568C109.256 94.7568 110.727 95.3209 111.723 96.4511C112.522 97.3606 112.923 98.4825 112.923 99.8146C112.923 101.311 112.426 102.537 111.436 103.492C110.444 104.448 109.071 104.926 107.32 104.926C105.757 104.926 104.493 104.529 103.528 103.736C102.344 102.751 101.751 101.463 101.751 99.8687ZM105.487 99.8604C105.487 100.728 105.662 101.369 106.013 101.784C106.365 102.2 106.806 102.406 107.336 102.406C107.873 102.406 108.314 102.202 108.659 101.792C109.004 101.382 109.177 100.726 109.177 99.8208C109.177 98.9779 109.002 98.3493 108.655 97.9372C108.308 97.5251 107.877 97.319 107.363 97.319C106.82 97.319 106.371 97.5292 106.017 97.9476C105.666 98.368 105.487 99.0049 105.487 99.8604Z" fill="white"/>
<path d="M115.692 94.975H119.18V96.5694C119.515 95.8783 119.863 95.4038 120.22 95.1436C120.578 94.8834 121.019 94.7544 121.543 94.7544C122.093 94.7544 122.694 94.9251 123.347 95.2664L122.192 97.9243C121.754 97.7412 121.404 97.6496 121.148 97.6496C120.659 97.6496 120.281 97.8515 120.012 98.2553C119.628 98.8235 119.436 99.8871 119.436 101.444V104.705H115.69V94.975H115.692Z" fill="white"/>
<path d="M128.635 98.1285L125.073 97.7539C125.207 97.1316 125.402 96.6404 125.656 96.2844C125.91 95.9264 126.274 95.6163 126.75 95.3541C127.091 95.1647 127.561 95.019 128.16 94.9149C128.759 94.8108 129.406 94.7588 130.101 94.7588C131.218 94.7588 132.117 94.8212 132.793 94.9461C133.471 95.071 134.035 95.3332 134.486 95.7287C134.804 96.0035 135.054 96.3927 135.237 96.8964C135.42 97.4001 135.511 97.8809 135.511 98.3388V102.637C135.511 103.095 135.541 103.455 135.599 103.713C135.657 103.973 135.784 104.304 135.98 104.708H132.481C132.339 104.458 132.248 104.267 132.206 104.135C132.163 104.004 132.121 103.798 132.077 103.517C131.588 103.988 131.104 104.323 130.621 104.525C129.962 104.793 129.196 104.928 128.323 104.928C127.162 104.928 126.282 104.66 125.681 104.123C125.08 103.586 124.778 102.922 124.778 102.135C124.778 101.396 124.994 100.789 125.429 100.312C125.862 99.8353 126.663 99.4814 127.828 99.2483C129.225 98.9673 130.132 98.7696 130.546 98.6572C130.962 98.5448 131.401 98.395 131.865 98.2118C131.865 97.7539 131.769 97.4334 131.582 97.2502C131.393 97.067 131.06 96.9755 130.584 96.9755C129.974 96.9755 129.515 97.0733 129.211 97.2689C128.974 97.4188 128.782 97.706 128.635 98.1285ZM131.867 100.089C131.355 100.272 130.821 100.435 130.265 100.574C129.508 100.776 129.03 100.974 128.828 101.169C128.62 101.371 128.516 101.6 128.516 101.856C128.516 102.15 128.618 102.389 128.824 102.576C129.028 102.764 129.329 102.855 129.727 102.855C130.143 102.855 130.528 102.755 130.885 102.554C131.243 102.352 131.495 102.106 131.645 101.817C131.794 101.527 131.869 101.149 131.869 100.684V100.089H131.867Z" fill="white"/>
<path d="M4.92156 108.858H10.2259L13.9222 125.784L17.5708 108.858H22.7211L16.6264 132.375H11.1245L4.92156 108.858Z" fill="white"/>
<path d="M21.444 120.632C21.444 116.792 22.1907 113.803 23.6842 111.664C25.1778 109.524 27.2579 108.454 29.9246 108.454C32.6579 108.454 34.765 109.505 36.244 111.607C37.723 113.71 38.4614 116.653 38.4614 120.439C38.4614 123.188 38.139 125.442 37.4921 127.201C36.8452 128.96 35.9133 130.329 34.6922 131.308C33.4712 132.286 31.9486 132.775 30.1264 132.775C28.2751 132.775 26.742 132.352 25.5272 131.507C24.3124 130.662 23.3285 129.326 22.5755 127.497C21.8225 125.669 21.444 123.382 21.444 120.632ZM26.5194 120.663C26.5194 123.038 26.8273 124.743 27.443 125.782C28.0587 126.82 28.897 127.338 29.9579 127.338C31.0479 127.338 31.8924 126.831 32.4894 125.815C33.0864 124.799 33.3859 122.976 33.3859 120.345C33.3859 118.13 33.0739 116.513 32.4499 115.491C31.8258 114.469 30.9792 113.959 29.9121 113.959C28.8887 113.959 28.067 114.478 27.4472 115.516C26.8294 116.553 26.5194 118.268 26.5194 120.663Z" fill="white"/>
<path d="M39.6804 108.858H44.7559V126.585H52.677V132.375H39.6824V108.858H39.6804Z" fill="white"/>
<path d="M53.4591 108.858H67.0589V113.878H58.545V117.616H66.4432V122.414H58.545V127.051H67.3064V132.375H53.4591V108.858Z" fill="white"/>
<path d="M68.5587 108.858H73.2972L79.4814 121.871V108.858H84.2657V132.377H79.4814L73.3305 119.465V132.375H68.5587V108.858Z" fill="white"/>
<path d="M86.1897 108.858H93.7302C95.2154 108.858 96.4177 109.147 97.3329 109.724C98.2482 110.302 99.0033 111.131 99.6023 112.211C100.199 113.291 100.632 114.548 100.902 115.98C101.173 117.412 101.306 118.932 101.306 120.537C101.306 123.051 101.106 124.999 100.707 126.385C100.307 127.771 99.7521 128.931 99.0428 129.867C98.3335 130.804 97.5721 131.426 96.7567 131.736C95.6439 132.165 94.635 132.377 93.7322 132.377H86.1918V108.858H86.1897ZM91.2652 114.184V127.035H92.5091C93.57 127.035 94.3251 126.866 94.7723 126.529C95.2195 126.192 95.5711 125.605 95.8248 124.764C96.0786 123.925 96.2055 122.564 96.2055 120.68C96.2055 118.189 95.9205 116.482 95.3547 115.562C94.7869 114.642 93.8466 114.182 92.532 114.182H91.2652V114.184Z" fill="white"/>
<path d="M111.567 128.494H105.805L105.004 132.376H99.8228L105.997 108.856H111.532L117.703 132.376H112.389L111.567 128.494ZM110.515 123.409L108.703 114.954L106.91 123.409H110.515Z" fill="white"/>
<path d="M117.745 108.858H124.42L126.993 123.167L129.55 108.858H136.221V132.377H132.065V114.442L128.861 132.375H125.098L121.901 114.44V132.375H117.745V108.858Z" fill="white"/>
<path d="M104.771 44.3935H101.241L100.751 46.0544H97.5784L101.36 35.9868H104.751L108.53 46.0544H105.275L104.771 44.3935ZM104.127 42.2164L103.016 38.5969L101.918 42.2164H104.127Z" fill="white"/>
<path d="M109.539 35.9868H112.441L116.229 41.5566V35.9868H119.16V46.0544H116.229L112.462 40.5263V46.0544H109.539V35.9868Z" fill="white"/>
<path d="M120.836 41.0282C120.836 39.3839 121.294 38.1059 122.209 37.1901C123.124 36.2743 124.397 35.8164 126.032 35.8164C127.707 35.8164 128.996 36.266 129.903 37.1651C130.81 38.0643 131.262 39.3256 131.262 40.9449C131.262 42.1209 131.064 43.0867 130.669 43.8401C130.274 44.5936 129.702 45.1784 128.953 45.5989C128.204 46.0172 127.272 46.2275 126.157 46.2275C125.021 46.2275 124.083 46.0464 123.341 45.6842C122.598 45.3221 121.995 44.7497 121.533 43.9671C121.067 43.1845 120.836 42.2042 120.836 41.0282ZM123.944 41.0427C123.944 42.0585 124.133 42.789 124.51 43.2324C124.886 43.6757 125.4 43.8984 126.051 43.8984C126.719 43.8984 127.237 43.6819 127.603 43.2469C127.969 42.8119 128.152 42.0314 128.152 40.9054C128.152 39.9583 127.961 39.2652 127.58 38.8282C127.197 38.3911 126.679 38.1725 126.026 38.1725C125.4 38.1725 124.897 38.3952 124.516 38.8386C124.135 39.2819 123.944 40.0166 123.944 41.0427Z" fill="white"/>
<path d="M132.393 42.7244L135.351 42.5391C135.416 43.0199 135.545 43.3862 135.742 43.6381C136.063 44.046 136.52 44.25 137.115 44.25C137.558 44.25 137.901 44.146 138.141 43.9378C138.382 43.7297 138.501 43.4882 138.501 43.2135C138.501 42.9533 138.386 42.7181 138.157 42.5121C137.929 42.306 137.398 42.1124 136.566 41.9293C135.204 41.6233 134.23 41.2154 133.65 40.7075C133.063 40.1997 132.772 39.5524 132.772 38.7635C132.772 38.2452 132.922 37.7582 133.221 37.2982C133.521 36.8382 133.972 36.4761 134.573 36.2138C135.174 35.9516 136 35.8184 137.047 35.8184C138.332 35.8184 139.312 36.0577 139.988 36.5364C140.662 37.0152 141.063 37.7769 141.192 38.8197L138.261 38.9925C138.184 38.5387 138.02 38.2099 137.77 38.0038C137.521 37.7977 137.178 37.6958 136.739 37.6958C136.377 37.6958 136.104 37.7728 135.921 37.9268C135.738 38.0808 135.647 38.2661 135.647 38.4867C135.647 38.647 135.722 38.7906 135.873 38.9196C136.019 39.0528 136.368 39.1756 136.916 39.2901C138.274 39.5836 139.247 39.8791 139.836 40.1788C140.425 40.4786 140.851 40.8511 141.119 41.2945C141.388 41.7378 141.521 42.2352 141.521 42.7847C141.521 43.43 141.342 44.0252 140.986 44.5706C140.629 45.1159 140.131 45.528 139.491 45.809C138.85 46.09 138.043 46.2315 137.067 46.2315C135.355 46.2315 134.172 45.9026 133.512 45.2428C132.853 44.5789 132.479 43.7401 132.393 42.7244Z" fill="white"/>
<path d="M1.38118 91.1245H0.29744V132.348H1.38118V91.1245Z" fill="#F05823"/>
<path d="M141.244 91.7764H140.16V133H141.244V91.7764Z" fill="#F05823"/>
</svg>
