<svg width="208" height="208" viewBox="0 0 208 208" fill="none" xmlns="http://www.w3.org/2000/svg">
<circle cx="104" cy="104" r="104" fill="#F2F2F2"/>
<path d="M45 123.163H51.0249C53.2474 123.163 55.1639 123.669 56.3459 124.855C57.1607 125.671 57.6121 126.774 57.6121 128.236V128.378C57.6121 130.633 56.3459 131.985 54.8808 132.72C56.6558 133.451 58.1209 134.723 58.1209 137.2V137.395C58.1209 140.749 55.5579 142.89 51.0249 142.89H45V123.163ZM53.0829 129.167C53.0829 127.869 52.2375 127.222 50.8604 127.222H49.5368V131.166H50.803C52.2108 131.166 53.0829 130.434 53.0829 129.194V129.167ZM51.0823 134.746H49.533V138.831H51.1091C52.5742 138.831 53.5037 138.042 53.5037 136.802V136.775C53.5037 135.565 52.6009 134.746 51.0823 134.746Z" fill="#11425E"/>
<path d="M60.2324 123.163H64.8802V138.609H70.5952V142.894H60.2324V123.163Z" fill="#11425E"/>
<path d="M72.5654 136.044V123.163H77.24V136.239C77.24 138.1 78.0548 138.973 79.2942 138.973C80.5336 138.973 81.3484 138.126 81.3484 136.266V123.159H85.9656V135.982C85.9656 140.998 83.2075 143.227 79.2368 143.227C75.2967 143.23 72.5654 141.002 72.5654 136.044Z" fill="#11425E"/>
<path d="M88.6698 123.163H99.6791V127.39H93.287V130.913H99.0327V134.998H93.287V138.663H99.7901V142.89H88.666V123.163H88.6698Z" fill="#11425E"/>
<path d="M107.701 123.163H112.349V138.609H118.064V142.894H107.701V123.163Z" fill="#11425E"/>
<path d="M124.371 123.079H129.383L134.704 142.894H129.945L129.099 139.314H124.536L123.69 142.894H119.073L124.371 123.079ZM128.2 135.508L126.82 129.477L125.439 135.508H128.2Z" fill="#11425E"/>
<path d="M136.422 123.163H141.039V130.771L144.926 123.163H150.052L145.488 131.476L150.22 142.89H144.983L142.141 135.845L141.043 137.763V142.894H136.426V123.163H136.422Z" fill="#11425E"/>
<path d="M151.88 123.163H162.889V127.39H156.497V130.913H162.243V134.998H156.497V138.663H163V142.89H151.88V123.163Z" fill="#11425E"/>
<path d="M91.6343 69.5928C91.6266 69.6043 91.619 69.6196 91.6113 69.6311C91.6228 69.6234 91.6305 69.6081 91.6343 69.5928Z" fill="#428B79"/>
<path d="M139.463 79.3683C139.463 98.3292 124.108 113.698 105.165 113.698C86.2221 113.698 70.8672 98.3292 70.8672 79.3683C70.8672 60.4074 86.2221 45.0381 105.165 45.0381C124.108 45.0381 139.463 60.4074 139.463 79.3683Z" fill="url(#paint0_linear_113_1258)"/>
<mask id="mask0_113_1258" style="mask-type:luminance" maskUnits="userSpaceOnUse" x="70" y="45" width="70" height="69">
<path d="M70.8252 79.3685C70.8252 98.3485 86.1992 113.737 105.161 113.737C124.124 113.737 139.498 98.3485 139.498 79.3685C139.498 60.3885 124.127 45 105.161 45C86.1992 45 70.8252 60.3885 70.8252 79.3685Z" fill="white"/>
</mask>
<g mask="url(#mask0_113_1258)">
<path d="M58.5459 78.1934C58.5459 78.1934 71.9575 86.8506 85.2238 86.0312C92.4077 85.587 114.916 78.7639 130.5 80.9042C146.085 83.0446 154.753 94.1485 155.464 94.1715L143.851 96.0974C143.851 96.0974 137.746 108.197 135.886 108.197C134.027 108.197 91.9525 109.342 91.023 109.506C90.0934 109.671 76.1577 110.322 75.4959 110.322C74.8303 110.322 67.2677 101.167 67.2677 99.532C67.2677 97.897 58.5459 78.1934 58.5459 78.1934Z" fill="#11425E"/>
</g>
<mask id="mask1_113_1258" style="mask-type:luminance" maskUnits="userSpaceOnUse" x="70" y="45" width="70" height="69">
<path d="M70.8252 79.3685C70.8252 98.3485 86.1992 113.737 105.161 113.737C124.124 113.737 139.498 98.3485 139.498 79.3685C139.498 60.3885 124.127 45 105.161 45C86.1992 45 70.8252 60.3885 70.8252 79.3685Z" fill="white"/>
</mask>
<g mask="url(#mask1_113_1258)">
<path d="M63.4346 94.8028C63.4346 94.8028 69.5054 86.3217 82.5306 88.4467C104.959 92.1034 122.18 120.104 149.053 84.6484L141.881 112.289C141.881 112.289 127.421 118.799 126.855 119.124C126.289 119.453 92.9585 122.069 92.1131 122.069C91.2639 122.069 80.5338 118.144 79.26 116.509C77.99 114.874 70.9284 106.37 70.7869 104.41C70.6453 102.445 63.4346 94.8028 63.4346 94.8028Z" fill="#33A0AC"/>
</g>
<path d="M58.17 158.141C58.193 158.168 58.2159 158.187 58.235 158.206C58.2542 158.225 58.2695 158.248 58.2809 158.271C58.2809 158.298 58.2809 158.321 58.2809 158.348C58.2809 158.375 58.2695 158.39 58.2427 158.405L58.1318 158.463C57.8946 158.562 57.6651 158.658 57.4394 158.754C57.2137 158.846 56.9765 158.945 56.7279 159.045C56.3798 159.171 56.0317 159.29 55.6797 159.401C55.3316 159.512 54.9759 159.6 54.6125 159.661C54.3638 159.7 54.0999 159.726 53.8283 159.745C53.5528 159.765 53.3118 159.7 53.0976 159.55C52.9599 159.451 52.8796 159.343 52.8528 159.221C52.826 159.102 52.8337 158.968 52.8719 158.819C52.8834 158.719 52.914 158.601 52.9637 158.463C52.9752 158.451 52.9829 158.432 52.9829 158.405C52.9943 158.394 53.002 158.367 53.002 158.329C53.002 158.317 53.0058 158.306 53.0096 158.29C53.0173 158.279 53.0173 158.264 53.0173 158.252H52.979C52.9025 158.252 52.8337 158.256 52.7648 158.26C52.696 158.267 52.6309 158.275 52.5697 158.287C52.0457 158.386 51.5713 158.597 51.1505 158.922C50.7259 159.248 50.3587 159.619 50.0488 160.044C49.8729 160.27 49.7122 160.507 49.563 160.756C49.4138 161.005 49.2838 161.262 49.169 161.522C49.1422 161.583 49.1002 161.61 49.0389 161.599C48.9777 161.587 48.928 161.568 48.8898 161.541C48.84 161.518 48.7903 161.484 48.7406 161.449C48.6908 161.411 48.6641 161.361 48.6641 161.3C48.6908 160.802 48.7559 160.308 48.8706 159.822C48.9854 159.336 49.1461 158.872 49.3564 158.436C49.4827 158.187 49.6204 157.942 49.7772 157.705C49.9341 157.467 50.1177 157.249 50.3281 157.05C50.3893 156.989 50.4543 156.931 50.5232 156.881C50.592 156.832 50.6647 156.782 50.7374 156.732C50.8369 156.656 50.9287 156.613 51.0166 156.602C51.1161 156.575 51.2156 156.59 51.315 156.64C51.4145 156.69 51.4757 156.759 51.5025 156.847C51.5139 156.924 51.4948 156.996 51.4451 157.073C51.3839 157.172 51.3112 157.264 51.2309 157.345C51.1505 157.425 51.0664 157.509 50.9784 157.597C50.6685 157.885 50.3549 158.16 50.045 158.421C50.0182 158.447 49.9953 158.459 49.9685 158.459C49.9188 158.559 49.8729 158.654 49.827 158.738C49.7849 158.827 49.7428 158.918 49.7046 159.018C49.5783 159.328 49.4789 159.65 49.4062 159.971C49.4674 159.883 49.5286 159.799 49.5821 159.719C49.6395 159.638 49.6969 159.558 49.7581 159.485C50.1177 159.049 50.5385 158.677 51.009 158.371C51.4833 158.065 52.0112 157.892 52.5965 157.858C52.696 157.858 52.8031 157.862 52.914 157.865C53.0249 157.873 53.1321 157.908 53.2315 157.969C53.419 158.045 53.5184 158.176 53.5299 158.363C53.5414 158.474 53.5261 158.589 53.484 158.7C53.4381 158.811 53.3998 158.918 53.3616 159.018V159.037V159.095C53.3501 159.106 53.3424 159.125 53.3424 159.152V159.282V159.301V159.32H53.3233C53.3118 159.32 53.2965 159.313 53.2851 159.301C53.2965 159.301 53.3042 159.309 53.3042 159.32H53.3424C53.3654 159.332 53.4036 159.34 53.4534 159.34H53.4916H53.5681H53.7365C54.0463 159.328 54.3715 159.271 54.7081 159.171C55.0677 159.083 55.4196 158.984 55.7562 158.872C56.0929 158.761 56.4295 158.635 56.7661 158.497C56.8885 158.436 57.0148 158.382 57.141 158.34C57.2634 158.298 57.3896 158.245 57.5159 158.179C57.5656 158.168 57.6421 158.137 57.7416 158.088C57.7531 158.088 57.776 158.08 57.8066 158.061C57.8372 158.042 57.8296 158.045 57.7798 158.068C57.841 158.045 57.9061 158.042 57.9673 158.061C58.0438 158.076 58.1088 158.103 58.17 158.141ZM51.3915 156.981C51.3992 156.981 51.3877 156.989 51.3647 157C51.3762 156.989 51.3877 156.981 51.3915 156.981ZM53.0861 158.252C53.0976 158.264 53.1091 158.264 53.1244 158.252H53.0861ZM53.1206 158.252C53.132 158.264 53.1435 158.271 53.1474 158.271C53.155 158.271 53.1474 158.268 53.1206 158.252Z" fill="#646463"/>
<path d="M64.4702 158.084C64.5084 158.046 64.562 158.038 64.6385 158.057C64.715 158.076 64.78 158.107 64.8336 158.149C64.8909 158.191 64.9292 158.241 64.956 158.291C64.9789 158.34 64.9675 158.383 64.9177 158.421L64.8603 158.478C64.65 158.654 64.4319 158.815 64.2062 158.965C63.9805 159.114 63.7586 159.259 63.533 159.393C63.1466 159.619 62.7526 159.822 62.3548 160.01C61.9569 160.197 61.5438 160.358 61.1192 160.496C60.6946 160.622 60.2623 160.699 59.8186 160.73C59.3748 160.76 58.9426 160.714 58.5179 160.588C58.2578 160.511 58.0092 160.389 57.7797 160.213C57.5501 160.037 57.4086 159.807 57.3589 159.52C57.3206 159.282 57.3436 159.053 57.4239 158.827C57.5042 158.601 57.6152 158.398 57.7529 158.21C57.8906 158 58.0474 157.804 58.231 157.632C58.4108 157.456 58.6098 157.314 58.8201 157.203C58.9196 157.142 59.0229 157.092 59.13 157.054C59.2371 157.016 59.3442 156.993 59.459 156.977C59.7344 156.951 59.9754 157.019 60.1896 157.184C60.2891 157.245 60.3656 157.326 60.4153 157.418C60.465 157.51 60.4727 157.613 60.4344 157.728C60.4077 157.827 60.3579 157.915 60.2852 157.988C60.2126 158.061 60.1361 158.134 60.0596 158.195C59.8606 158.371 59.6464 158.528 59.4131 158.674C59.1836 158.819 58.9502 158.957 58.713 159.095C58.5753 159.171 58.4376 159.24 58.3037 159.309C58.166 159.378 58.0283 159.443 57.8906 159.504V159.543V159.6V159.638C57.8906 159.677 57.9021 159.719 57.9288 159.769C57.9288 159.78 57.9327 159.792 57.9365 159.795C57.9441 159.803 57.9441 159.818 57.9441 159.841V159.86H57.9633L58.0015 159.937L58.0207 159.956V159.975L58.078 160.033L58.0972 160.052C58.1086 160.052 58.1163 160.056 58.1163 160.06C58.1163 160.067 58.1239 160.067 58.1354 160.067L58.1545 160.086H58.1737C58.1737 160.098 58.1813 160.106 58.1928 160.106C58.2157 160.117 58.2425 160.132 58.2693 160.151C58.2961 160.171 58.3076 160.174 58.3076 160.159C58.2808 160.148 58.2655 160.14 58.2616 160.14C58.254 160.14 58.2655 160.148 58.2884 160.159H58.3076C58.319 160.171 58.3382 160.178 58.3649 160.178C58.3764 160.19 58.3879 160.197 58.4032 160.197C58.4147 160.197 58.4261 160.205 58.4414 160.217C58.4529 160.217 58.472 160.22 58.4988 160.224C58.5218 160.232 58.5294 160.232 58.5179 160.232C58.5409 160.232 58.56 160.236 58.5638 160.24C58.5715 160.247 58.5868 160.247 58.6098 160.247C58.6595 160.259 58.7475 160.278 58.8699 160.305H58.9808H59.0191C59.042 160.316 59.0688 160.324 59.0956 160.324C59.5317 160.351 59.9563 160.312 60.3656 160.213C60.7787 160.113 61.1804 159.983 61.582 159.818C61.9416 159.669 62.2935 159.497 62.6378 159.305C62.9821 159.114 63.3149 158.911 63.6362 158.696C63.774 158.597 63.9117 158.497 64.057 158.398C64.1909 158.306 64.3324 158.199 64.4702 158.084ZM58.4491 158.218C58.3726 158.317 58.3037 158.413 58.2425 158.509C58.1813 158.601 58.1239 158.7 58.0742 158.8C58.0627 158.811 58.0551 158.827 58.0551 158.838C58.0551 158.85 58.0474 158.865 58.036 158.876C58.1239 158.827 58.2043 158.781 58.2808 158.735C58.3573 158.693 58.4376 158.651 58.5256 158.612C58.736 158.474 58.954 158.337 59.1721 158.203C59.3901 158.065 59.5852 157.908 59.7612 157.735C59.7612 157.724 59.7688 157.709 59.7803 157.697H59.7994C59.7994 157.686 59.8109 157.667 59.8377 157.64C59.8492 157.613 59.8606 157.598 59.8645 157.594C59.8683 157.59 59.8798 157.571 59.8912 157.548C59.9027 157.536 59.9104 157.517 59.9104 157.49C59.9218 157.49 59.9295 157.483 59.9295 157.471V157.395C59.9027 157.395 59.8874 157.387 59.8721 157.376H59.853H59.8147H59.7956H59.7382H59.6808C59.5814 157.402 59.5049 157.425 59.4552 157.452C59.4284 157.452 59.4054 157.464 59.3786 157.49H59.3404C59.3136 157.517 59.2945 157.533 59.2754 157.536C59.2562 157.544 59.2333 157.552 59.2103 157.563C59.1606 157.59 59.1147 157.621 59.0688 157.655C59.0267 157.693 58.977 157.724 58.9273 157.747C58.8775 157.785 58.8354 157.823 58.7972 157.858C58.7589 157.896 58.7169 157.935 58.6671 157.969C58.6289 158.019 58.5868 158.061 58.5371 158.099C58.5371 158.111 58.5294 158.126 58.5179 158.137L58.4988 158.157L58.4491 158.218ZM58.0933 160.052L58.0742 160.033C58.0742 160.021 58.0819 160.025 58.0933 160.052ZM58.189 160.106C58.1775 160.106 58.1698 160.102 58.1698 160.098C58.1698 160.09 58.1622 160.09 58.1507 160.09C58.1622 160.086 58.1737 160.094 58.189 160.106Z" fill="#646463"/>
<path d="M70.5453 158.03C70.706 158.03 70.8322 158.092 70.9202 158.218C70.947 158.268 70.947 158.31 70.9279 158.348C70.9087 158.386 70.8667 158.406 70.8054 158.406C70.7787 158.406 70.7634 158.409 70.7595 158.413C70.7519 158.421 70.7366 158.421 70.7136 158.421H70.6563C70.3808 158.471 70.1131 158.532 69.8529 158.608C69.5928 158.685 69.3289 158.765 69.0687 158.854C68.6709 158.991 68.2769 159.129 67.8905 159.263C67.5042 159.401 67.1178 159.55 66.7315 159.711C66.632 159.761 66.5326 159.803 66.4331 159.841C66.3336 159.88 66.2342 159.922 66.1347 159.972C66.0238 160.01 65.9167 160.052 65.8172 160.102C65.7675 160.113 65.7178 160.14 65.668 160.178C65.6566 160.178 65.6451 160.182 65.6413 160.186C65.6336 160.194 65.6183 160.194 65.5953 160.194C65.6336 160.504 65.6068 160.806 65.5188 161.093C65.4079 161.507 65.1937 161.863 64.8838 162.169C64.574 162.476 64.2221 162.702 63.8357 162.851C63.6597 162.912 63.4914 162.958 63.3231 162.981C63.1548 163.008 62.9826 162.993 62.8105 162.943C62.6728 162.893 62.5466 162.82 62.428 162.728C62.3094 162.636 62.2176 162.522 62.1564 162.384C62.1181 162.273 62.1143 162.162 62.1372 162.054C62.164 161.947 62.2061 161.848 62.2673 161.756C62.3285 161.664 62.4012 161.572 62.4815 161.484C62.5619 161.396 62.6422 161.323 62.7149 161.258C62.9903 161.032 63.281 160.829 63.5947 160.649C63.9046 160.469 64.2259 160.297 64.5472 160.136L65.0522 159.91L64.9948 159.631C64.945 159.493 64.8877 159.363 64.8265 159.236C64.7653 159.11 64.6887 158.98 64.6008 158.842C64.5396 158.742 64.4822 158.635 64.4324 158.524C64.3827 158.413 64.3636 158.287 64.3751 158.149C64.3865 157.923 64.4669 157.72 64.6084 157.54C64.7499 157.36 64.9106 157.199 65.0866 157.062C65.297 156.912 65.4921 156.805 65.668 156.744C65.7292 156.721 65.8019 156.694 65.8822 156.667C65.9626 156.644 66.0467 156.629 66.1347 156.629C66.2342 156.64 66.3413 156.675 66.4522 156.732C66.5632 156.79 66.632 156.878 66.6588 157.004C66.6856 157.081 66.6741 157.15 66.632 157.211C66.5899 157.272 66.5402 157.33 66.4905 157.379C66.3528 157.517 66.1998 157.64 66.0314 157.743C65.8631 157.85 65.691 157.954 65.5188 158.053C65.4194 158.115 65.3161 158.172 65.209 158.222C65.1019 158.272 64.9986 158.321 64.8991 158.371V158.428V158.467V158.486C64.9259 158.563 64.9412 158.612 64.9565 158.635V158.654L64.9756 158.674C64.9756 158.7 64.9871 158.723 65.0139 158.75C65.1019 158.888 65.1822 159.026 65.2587 159.16C65.3352 159.298 65.4003 159.439 65.4653 159.589C65.4768 159.615 65.4844 159.635 65.4844 159.646C65.4844 159.658 65.4921 159.677 65.5035 159.704C65.9626 159.493 66.4637 159.286 66.9992 159.087C67.3588 158.949 67.7299 158.815 68.1009 158.685C68.4758 158.555 68.8469 158.432 69.2218 158.321C69.3595 158.272 69.4934 158.229 69.6234 158.199C69.7535 158.168 69.8874 158.134 70.0251 158.095C70.1131 158.069 70.201 158.053 70.2852 158.038C70.3694 158.034 70.4573 158.03 70.5453 158.03ZM64.6543 161.564C64.7155 161.476 64.7729 161.384 64.8226 161.285C64.8724 161.185 64.9144 161.086 64.9527 160.986C65.0139 160.837 65.0598 160.657 65.0828 160.443C64.9718 160.504 64.8609 160.561 64.7538 160.611C64.6467 160.661 64.5396 160.718 64.4248 160.779C64.2641 160.868 64.1073 160.956 63.9581 161.051C63.8089 161.143 63.6597 161.243 63.5105 161.342C63.4493 161.392 63.3843 161.438 63.3231 161.484C63.2619 161.526 63.1969 161.576 63.1357 161.626C63.1127 161.652 63.0859 161.672 63.0592 161.691C63.0362 161.71 63.0094 161.733 62.9826 161.756C62.9712 161.767 62.9597 161.783 62.9559 161.794C62.9482 161.806 62.9406 161.821 62.9291 161.832L62.8908 161.871C62.8526 161.909 62.8182 161.947 62.7876 161.993C62.757 162.035 62.7302 162.085 62.7034 162.135L62.646 162.246V162.284V162.342V162.399V162.418C62.646 162.445 62.6537 162.46 62.6651 162.476C62.6651 162.487 62.669 162.499 62.6728 162.502C62.6804 162.51 62.6804 162.518 62.6804 162.529C62.6919 162.529 62.6996 162.537 62.6996 162.548L62.7187 162.568H62.7378V162.587H62.757L62.7952 162.606H62.8335H62.8908H62.9826H63.04H63.0592L63.2848 162.548C63.3461 162.537 63.4302 162.506 63.5297 162.457C63.5411 162.457 63.5526 162.453 63.5564 162.449C63.5641 162.441 63.5717 162.441 63.5832 162.441H63.6024C63.6138 162.441 63.6215 162.437 63.6215 162.434C63.6215 162.426 63.6291 162.426 63.6406 162.426L63.7515 162.368C63.8395 162.307 63.9237 162.246 64.004 162.192C64.0843 162.135 64.1685 162.077 64.2565 162.016C64.3865 161.886 64.5204 161.741 64.6543 161.564ZM62.7684 162.575C62.757 162.575 62.7493 162.568 62.7493 162.556C62.7493 162.571 62.757 162.575 62.7684 162.575L62.8067 162.594C62.7952 162.594 62.7876 162.591 62.7876 162.587C62.7876 162.579 62.7799 162.575 62.7684 162.575ZM65.7216 157.299C65.5953 157.376 65.4729 157.46 65.3467 157.559C65.3964 157.533 65.4385 157.51 65.4768 157.483C65.515 157.46 65.5571 157.433 65.6068 157.406C65.6566 157.368 65.7063 157.33 65.756 157.295C65.8057 157.257 65.8555 157.219 65.9052 157.184C65.8593 157.199 65.7981 157.238 65.7216 157.299Z" fill="#646463"/>
<path d="M78.0957 158.516C77.87 158.616 77.6481 158.712 77.4224 158.808C77.1967 158.899 76.9749 158.999 76.7492 159.098C76.3245 159.275 75.9038 159.443 75.4868 159.612C75.0698 159.78 74.6491 159.941 74.2244 160.09C73.8381 160.228 73.4441 160.358 73.0462 160.485C72.6484 160.611 72.2429 160.703 71.8298 160.764C71.6921 160.791 71.5467 160.802 71.3899 160.802C71.233 160.802 71.0877 160.776 70.95 160.726C70.7243 160.638 70.5521 160.5 70.4259 160.316C70.2996 160.132 70.2461 159.914 70.2461 159.677C70.2461 159.451 70.2767 159.233 70.3379 159.01C70.3991 158.792 70.4833 158.582 70.5827 158.382C70.6822 158.145 70.7931 157.927 70.9194 157.728C70.9423 157.678 70.992 157.651 71.0609 157.651C71.1297 157.651 71.1948 157.67 71.256 157.709C71.3172 157.747 71.3669 157.789 71.4052 157.839C71.4434 157.889 71.4434 157.938 71.4052 157.988C71.4052 158.015 71.3975 158.03 71.386 158.046C71.2254 158.333 71.0877 158.612 70.9729 158.888C70.9347 158.999 70.9041 159.102 70.8811 159.198C70.8581 159.294 70.8314 159.393 70.8046 159.508C70.7778 159.635 70.7663 159.738 70.7663 159.826V159.975C70.7663 160.002 70.774 160.021 70.7855 160.033V160.071C70.7969 160.098 70.8046 160.117 70.8046 160.136C70.8046 160.155 70.8122 160.178 70.8237 160.201C70.8237 160.213 70.8275 160.22 70.8314 160.22C70.8352 160.22 70.839 160.228 70.839 160.24C70.839 160.251 70.8505 160.27 70.8773 160.297V160.316C70.8888 160.316 70.8964 160.32 70.8964 160.324C70.8964 160.331 70.9041 160.331 70.9155 160.331C70.9155 160.343 70.9194 160.351 70.9232 160.351C70.9308 160.351 70.9308 160.358 70.9308 160.37H70.95H70.9691V160.389H70.9882H71.0456L71.0647 160.408C71.1259 160.408 71.1909 160.408 71.2522 160.408C71.3134 160.408 71.3784 160.4 71.4396 160.389C71.4664 160.389 71.4817 160.381 71.497 160.37H71.5161C71.5658 160.37 71.6041 160.362 71.627 160.351C71.6882 160.351 71.7686 160.339 71.8719 160.312C72.2965 160.213 72.7096 160.098 73.1151 159.968C73.5206 159.837 73.9222 159.696 74.3201 159.546C75.1043 159.248 75.8923 158.93 76.6765 158.593C76.8142 158.532 76.9442 158.474 77.0705 158.425C77.1967 158.375 77.3191 158.317 77.4454 158.256C77.5448 158.206 77.6213 158.176 77.6711 158.164C77.694 158.153 77.7208 158.141 77.7476 158.126C77.7743 158.114 77.759 158.118 77.7093 158.145C77.7705 158.122 77.8356 158.118 77.8968 158.137C77.958 158.157 78.0192 158.183 78.0842 158.222C78.1339 158.248 78.1722 158.291 78.1951 158.352C78.1951 158.379 78.1951 158.402 78.1951 158.428C78.1951 158.455 78.1837 158.471 78.1569 158.486C78.1454 158.497 78.1339 158.505 78.1301 158.505C78.1186 158.497 78.1071 158.505 78.0957 158.516ZM70.9194 160.331L70.9385 160.351C70.9232 160.351 70.9194 160.343 70.9194 160.331ZM70.9729 160.389H70.992C70.9653 160.377 70.95 160.37 70.9347 160.37H70.9538C70.9691 160.37 70.9729 160.374 70.9729 160.389ZM71.7418 156.384C71.715 156.334 71.715 156.296 71.7418 156.273L71.7609 156.254C71.7609 156.177 71.7724 156.077 71.7992 155.955C71.826 155.855 71.8527 155.752 71.8833 155.645C71.9139 155.538 71.9751 155.453 72.0593 155.392C72.1702 155.331 72.3041 155.335 72.461 155.411C72.6178 155.488 72.6867 155.591 72.6752 155.729C72.6637 155.829 72.6331 155.92 72.591 156.001C72.5489 156.081 72.4992 156.162 72.4495 156.234C72.3998 156.307 72.3385 156.395 72.262 156.495V156.625C72.262 156.686 72.2314 156.721 72.1702 156.728C72.109 156.736 72.044 156.725 71.9828 156.702C71.9216 156.675 71.8642 156.64 71.8145 156.591C71.7647 156.541 71.738 156.491 71.738 156.441V156.384H71.7418Z" fill="#646463"/>
<path d="M88.6577 158.142C88.7074 158.153 88.7572 158.199 88.8069 158.272C88.8184 158.283 88.8298 158.302 88.8451 158.329C88.8566 158.356 88.8528 158.379 88.826 158.406C88.5276 158.743 88.1948 159.053 87.8353 159.34C87.4604 159.639 87.0511 159.903 86.6112 160.136C86.1674 160.366 85.7045 160.531 85.2187 160.63C84.7329 160.73 84.2471 160.738 83.7613 160.65C83.2755 160.561 82.8317 160.362 82.4339 160.052C82.1585 159.842 81.9404 159.597 81.7798 159.321C81.5311 159.497 81.2825 159.658 81.0338 159.807C80.7852 159.956 80.5174 160.083 80.2305 160.182C80.0048 160.27 79.7791 160.339 79.5496 160.389C79.3201 160.439 79.0791 160.45 78.8304 160.427C78.6315 160.416 78.4364 160.381 78.2413 160.324C78.0462 160.267 77.8626 160.179 77.6905 160.052C77.4036 159.842 77.2429 159.577 77.2047 159.267C77.1817 159.129 77.197 158.992 77.2506 158.858C77.3079 158.72 77.3768 158.601 77.4648 158.501C77.5413 158.413 77.614 158.337 77.6905 158.268C77.767 158.199 77.8511 158.134 77.9506 158.073C78.1495 157.935 78.3561 157.82 78.5665 157.728C78.7769 157.636 79.0026 157.575 79.2397 157.552C79.6146 157.502 79.9704 157.544 80.3147 157.674C80.6589 157.805 80.965 157.996 81.2404 158.245L81.3705 158.375C81.2939 158.088 81.2442 157.797 81.2213 157.506C81.1945 157.211 81.1907 156.924 81.2021 156.637C81.2404 155.913 81.3513 155.209 81.5388 154.523C81.6382 154.186 81.7568 153.853 81.8945 153.524C82.0322 153.195 82.1891 152.877 82.3612 152.578C82.5219 152.291 82.7055 152.023 82.9121 151.774C83.1186 151.525 83.352 151.307 83.6121 151.119C83.8493 150.943 84.1056 150.805 84.3772 150.698C84.6526 150.591 84.9395 150.541 85.2379 150.541C85.5745 150.514 85.8805 150.622 86.1521 150.859C86.3778 151.058 86.5079 151.322 86.5461 151.644C86.5844 151.831 86.5959 152.023 86.5844 152.214C86.5729 152.41 86.5385 152.593 86.4926 152.766C86.4314 153.026 86.351 153.279 86.2592 153.524C86.1674 153.769 86.0565 154.006 85.9302 154.244C85.7925 154.531 85.6357 154.81 85.4636 155.086C85.2876 155.362 85.1078 155.63 84.9204 155.89C84.622 156.353 84.2777 156.813 83.8913 157.276C83.6312 157.602 83.3481 157.916 83.0498 158.222C82.7514 158.528 82.4339 158.819 82.0973 159.091L82.1164 159.11C82.1279 159.137 82.1393 159.16 82.1546 159.187C82.1661 159.214 82.1814 159.237 82.1929 159.263L82.3038 159.432C82.3038 159.459 82.3153 159.482 82.3421 159.508L82.3803 159.547C82.4301 159.597 82.4683 159.639 82.4913 159.677L82.5487 159.734L82.5869 159.773L82.606 159.792C82.6825 159.842 82.7323 159.88 82.7552 159.903C82.7667 159.914 82.7782 159.926 82.7935 159.93C82.805 159.937 82.8164 159.945 82.8317 159.956L82.87 159.976C82.87 159.987 82.8776 159.995 82.8891 159.995C82.9006 160.006 82.9121 160.014 82.9274 160.014C82.9388 160.025 82.9541 160.037 82.9656 160.041C82.9771 160.048 82.9886 160.056 83.0039 160.068C83.0421 160.079 83.0842 160.098 83.1339 160.125C83.1454 160.125 83.1531 160.129 83.1531 160.133C83.1531 160.14 83.1607 160.14 83.1722 160.14C83.1951 160.152 83.2143 160.159 83.2181 160.159C83.2257 160.159 83.241 160.167 83.264 160.179C83.2869 160.19 83.3099 160.202 83.329 160.205C83.3481 160.213 83.3711 160.221 83.3941 160.232C83.4323 160.232 83.4629 160.24 83.4859 160.251C83.4973 160.251 83.5088 160.259 83.5241 160.27C83.5471 160.27 83.5738 160.274 83.6006 160.278C83.6236 160.286 83.6503 160.286 83.6771 160.286C83.7766 160.313 83.8722 160.328 83.9564 160.332C84.0444 160.339 84.1515 160.339 84.2739 160.339C84.3848 160.328 84.4919 160.313 84.5914 160.301C84.6908 160.29 84.7979 160.27 84.9089 160.244C85.345 160.144 85.7696 159.995 86.1789 159.796C86.5767 159.585 86.9593 159.34 87.3303 159.064C87.6975 158.789 88.0303 158.486 88.3287 158.149C88.3785 158.088 88.432 158.065 88.4894 158.084C88.5353 158.096 88.5965 158.119 88.6577 158.142ZM80.3032 159.62C80.3797 159.581 80.4485 159.543 80.5174 159.508C80.5863 159.47 80.6513 159.432 80.7125 159.397C80.8234 159.336 80.9344 159.267 81.0415 159.191C81.1486 159.114 81.2557 159.041 81.3705 158.965C81.3207 158.888 81.2901 158.838 81.2786 158.815C81.2519 158.792 81.2289 158.754 81.2021 158.704H81.183V158.685L81.1256 158.628C81.0874 158.59 81.0491 158.551 81.0147 158.505C80.9764 158.463 80.9382 158.421 80.9038 158.383C80.8923 158.371 80.877 158.364 80.8655 158.364V158.344C80.8387 158.333 80.8158 158.314 80.789 158.287C80.7622 158.26 80.7354 158.241 80.7048 158.222C80.6742 158.203 80.6436 158.187 80.6207 158.176C80.6207 158.165 80.613 158.157 80.6016 158.157C80.5901 158.157 80.5824 158.149 80.5824 158.138C80.5327 158.115 80.5021 158.099 80.4906 158.099C80.4638 158.088 80.4485 158.076 80.4447 158.073C80.4371 158.065 80.4218 158.057 80.3988 158.046C80.3873 158.034 80.3682 158.027 80.3414 158.027C80.2917 158.004 80.2535 157.988 80.2305 157.988C80.219 157.977 80.2037 157.969 80.1922 157.969H80.1731L79.9474 157.912H79.9092H79.8709H79.7409H79.6108C79.584 157.912 79.5687 157.919 79.5534 157.931H79.5152C79.2895 157.969 79.0753 158.034 78.8687 158.126C78.6621 158.218 78.4747 158.337 78.2987 158.471C78.2107 158.509 78.1419 158.563 78.0921 158.639C78.0654 158.651 78.0348 158.678 78.0003 158.716L77.9812 158.735L77.943 158.773C77.8932 158.835 77.8511 158.9 77.8205 158.961C77.7899 159.022 77.7632 159.087 77.7364 159.149V159.206C77.7249 159.217 77.7173 159.248 77.7173 159.298V159.466C77.7173 159.478 77.7211 159.486 77.7249 159.486C77.7326 159.486 77.7326 159.493 77.7326 159.505C77.7326 159.543 77.7402 159.566 77.7517 159.581C77.7517 159.608 77.7593 159.62 77.7708 159.62C77.7708 159.646 77.7823 159.669 77.8091 159.696C77.8091 159.708 77.8129 159.715 77.8167 159.715C77.8244 159.715 77.8244 159.723 77.8244 159.734L77.8817 159.792L77.9009 159.83H77.92C77.9468 159.857 77.9621 159.868 77.9774 159.868L78.0156 159.907C78.0271 159.907 78.0577 159.918 78.1074 159.945C78.1189 159.945 78.1304 159.949 78.1342 159.953C78.1419 159.96 78.1495 159.96 78.161 159.96C78.1725 159.972 78.1839 159.979 78.1993 159.979C78.2107 159.979 78.2299 159.987 78.2566 159.999H78.314C78.337 160.01 78.3599 160.018 78.379 160.018C78.3982 160.018 78.4211 160.025 78.4441 160.037H78.5206H78.5397H78.6698C78.7195 160.048 78.7654 160.052 78.8113 160.045C78.8534 160.037 78.9069 160.037 78.972 160.037C78.9949 160.037 79.0217 160.029 79.0485 160.018H79.0676H79.0867C79.1097 160.018 79.1365 160.014 79.1632 160.01C79.1862 160.002 79.213 160.002 79.2397 160.002C79.4999 159.941 79.737 159.865 79.9513 159.777C79.9895 159.765 80.0239 159.75 80.0545 159.738C80.0851 159.727 80.1119 159.715 80.1387 159.7C80.1502 159.7 80.1616 159.696 80.1655 159.692C80.1731 159.685 80.1808 159.685 80.1922 159.685L80.2114 159.665C80.2573 159.635 80.2879 159.62 80.3032 159.62ZM81.8333 155.748C81.7836 156.074 81.7492 156.399 81.73 156.733C81.7109 157.062 81.7224 157.391 81.7568 157.717C81.7683 157.854 81.7836 157.988 81.8027 158.119C81.8218 158.249 81.8563 158.39 81.906 158.54C82.0055 158.452 82.1011 158.364 82.1852 158.279C82.2732 158.191 82.365 158.103 82.4645 158.019C82.8241 157.659 83.1645 157.276 83.482 156.878C83.7995 156.48 84.1017 156.066 84.3886 155.641C84.7138 155.193 85.0198 154.722 85.3029 154.228C85.5898 153.734 85.8002 153.214 85.9379 152.666C85.9761 152.49 86.0068 152.314 86.0297 152.134C86.0565 151.954 86.0565 151.77 86.0297 151.583V151.544V151.506C86.0182 151.483 86.0106 151.464 86.0106 151.449C86.0106 151.433 86.0029 151.418 85.9915 151.391C85.98 151.368 85.9685 151.334 85.9647 151.299C85.957 151.261 85.9494 151.23 85.9379 151.207C85.9379 151.196 85.9302 151.188 85.9188 151.188V151.169C85.9073 151.142 85.8882 151.119 85.8614 151.092C85.8614 151.081 85.8537 151.073 85.8423 151.073C85.8537 151.073 85.8537 151.066 85.8423 151.054L85.7849 150.997L85.7658 150.978C85.7543 150.978 85.7466 150.97 85.7466 150.958H85.7275H85.7084C85.6969 150.947 85.6854 150.939 85.6816 150.939C85.6739 150.939 85.6663 150.932 85.6548 150.92H85.6166H85.5783H85.5592C85.5324 150.92 85.5056 150.916 85.475 150.913C85.4444 150.905 85.4176 150.909 85.3909 150.92H85.2799H85.2034C85.1269 150.947 85.0657 150.958 85.016 150.958C84.9548 150.985 84.8898 151.004 84.8285 151.024C84.7673 151.043 84.7023 151.066 84.6411 151.089C84.6296 151.089 84.6182 151.092 84.6143 151.096C84.6067 151.104 84.599 151.104 84.5876 151.104L84.5684 151.123C84.5416 151.123 84.5263 151.127 84.5225 151.131C84.5149 151.138 84.5072 151.138 84.4957 151.138C84.446 151.165 84.3848 151.2 84.3083 151.249C84.2471 151.288 84.1859 151.326 84.1323 151.361C84.075 151.399 84.0176 151.441 83.9564 151.491C83.8454 151.579 83.7383 151.674 83.6389 151.782C83.5394 151.889 83.4438 151.992 83.3596 152.092C83.1492 152.341 82.9656 152.609 82.8088 152.896C82.6519 153.183 82.5142 153.478 82.388 153.777C82.1355 154.42 81.9481 155.075 81.8333 155.748ZM85.7811 150.974C85.7696 150.974 85.7619 150.966 85.7619 150.955H85.7428C85.7658 150.981 85.7811 150.989 85.7811 150.974Z" fill="#646463"/>
<path d="M94.9204 158.084C94.9586 158.046 95.0122 158.038 95.0887 158.057C95.1652 158.076 95.2302 158.107 95.2838 158.149C95.3411 158.191 95.3794 158.241 95.4062 158.291C95.4291 158.34 95.4176 158.383 95.3679 158.421L95.3105 158.478C95.1001 158.654 94.8821 158.815 94.6564 158.965C94.4307 159.114 94.2088 159.259 93.9832 159.393C93.5968 159.619 93.2028 159.822 92.8049 160.01C92.4071 160.197 91.994 160.358 91.5694 160.496C91.1448 160.622 90.7125 160.699 90.2688 160.73C89.825 160.76 89.3928 160.714 88.9681 160.588C88.708 160.511 88.4594 160.389 88.2299 160.213C88.0003 160.037 87.8588 159.807 87.8091 159.52C87.7708 159.282 87.7938 159.053 87.8741 158.827C87.9544 158.601 88.0654 158.398 88.2031 158.21C88.3408 158 88.4976 157.804 88.6812 157.632C88.861 157.456 89.0599 157.314 89.2703 157.203C89.3698 157.142 89.4731 157.092 89.5802 157.054C89.6873 157.016 89.7944 156.993 89.9092 156.977C90.1846 156.951 90.4256 157.019 90.6398 157.184C90.7393 157.245 90.8158 157.326 90.8655 157.418C90.9152 157.51 90.9229 157.613 90.8846 157.728C90.8579 157.827 90.8081 157.915 90.7354 157.988C90.6589 158.065 90.5863 158.134 90.5097 158.195C90.3108 158.371 90.0966 158.528 89.8633 158.674C89.6337 158.819 89.4004 158.957 89.1632 159.095C89.0255 159.171 88.8878 159.24 88.7539 159.309C88.6162 159.378 88.4785 159.443 88.3408 159.504V159.543V159.6V159.638C88.3408 159.677 88.3523 159.719 88.379 159.769C88.379 159.78 88.3829 159.792 88.3867 159.795C88.3943 159.803 88.3943 159.818 88.3943 159.841V159.86H88.4135L88.4517 159.937L88.4708 159.956V159.975L88.5282 160.033L88.5474 160.052C88.5588 160.052 88.5665 160.056 88.5665 160.06C88.5665 160.067 88.5741 160.067 88.5856 160.067L88.6047 160.086H88.6239C88.6239 160.098 88.6315 160.106 88.643 160.106C88.6659 160.117 88.6927 160.132 88.7195 160.151C88.7463 160.171 88.7577 160.174 88.7577 160.159C88.731 160.148 88.7157 160.14 88.7118 160.14C88.7042 160.14 88.7157 160.148 88.7386 160.159H88.7577C88.7692 160.171 88.7883 160.178 88.8151 160.178C88.8266 160.19 88.8381 160.197 88.8534 160.197C88.8649 160.197 88.8763 160.205 88.8916 160.217C88.9031 160.217 88.9222 160.22 88.949 160.224C88.972 160.232 88.9796 160.232 88.9681 160.232C88.9911 160.232 89.0102 160.236 89.014 160.24C89.0217 160.247 89.037 160.247 89.0599 160.247C89.1097 160.259 89.1977 160.278 89.3201 160.305H89.431H89.4693C89.4922 160.316 89.519 160.324 89.5458 160.324C89.9819 160.351 90.4065 160.312 90.8158 160.213C91.2289 160.113 91.6306 159.983 92.0322 159.818C92.3918 159.669 92.7437 159.497 93.088 159.305C93.4323 159.114 93.7651 158.911 94.0864 158.696C94.2241 158.597 94.3619 158.497 94.5072 158.398C94.6449 158.306 94.7826 158.199 94.9204 158.084ZM88.9031 158.218C88.8266 158.317 88.7577 158.413 88.6965 158.509C88.6353 158.601 88.578 158.7 88.5282 158.8C88.5168 158.811 88.5091 158.827 88.5091 158.838C88.5091 158.85 88.5015 158.865 88.49 158.876C88.578 158.827 88.6583 158.781 88.7348 158.735C88.8113 158.693 88.8916 158.651 88.9796 158.612C89.19 158.474 89.4081 158.337 89.6261 158.203C89.8441 158.065 90.0392 157.908 90.2152 157.735C90.2152 157.724 90.2228 157.709 90.2343 157.697H90.2535C90.2535 157.686 90.2649 157.667 90.2917 157.64C90.3032 157.613 90.3147 157.598 90.3185 157.594C90.3223 157.59 90.3338 157.571 90.3453 157.548C90.3567 157.536 90.3644 157.517 90.3644 157.49C90.3759 157.49 90.3835 157.483 90.3835 157.471V157.395C90.3567 157.395 90.3414 157.387 90.3261 157.376H90.307H90.2688H90.2496H90.1922H90.1349C90.0354 157.402 89.9589 157.425 89.9092 157.452C89.8824 157.452 89.8594 157.464 89.8327 157.49H89.7944C89.7676 157.517 89.7485 157.533 89.7294 157.536C89.7103 157.544 89.6873 157.552 89.6644 157.563C89.6146 157.59 89.5687 157.621 89.5228 157.655C89.4807 157.693 89.431 157.724 89.3813 157.747C89.3315 157.785 89.2895 157.823 89.2512 157.858C89.213 157.896 89.1709 157.935 89.1212 157.969C89.0829 158.019 89.0408 158.061 88.9911 158.099C88.9911 158.111 88.9834 158.126 88.972 158.137L88.9528 158.157L88.9031 158.218ZM88.5282 160.033L88.5474 160.052C88.5359 160.025 88.5282 160.021 88.5282 160.033ZM88.6392 160.106C88.6277 160.106 88.62 160.102 88.62 160.098C88.62 160.09 88.6124 160.09 88.6009 160.09C88.6162 160.086 88.6277 160.094 88.6392 160.106Z" fill="#646463"/>
<path d="M103.481 158.141C103.519 158.168 103.557 158.206 103.592 158.264C103.63 158.321 103.618 158.367 103.553 158.406L103.515 158.444C103.067 158.704 102.597 158.93 102.103 159.118C101.61 159.305 101.105 159.447 100.581 159.547C100.394 159.585 100.198 159.612 99.9919 159.631C99.7853 159.65 99.5864 159.65 99.3951 159.631C99.2 159.612 99.0164 159.562 98.8328 159.481C98.653 159.401 98.5 159.279 98.3738 159.118C98.2628 158.957 98.1863 158.773 98.1481 158.574C98.1366 158.536 98.1251 158.497 98.1213 158.451C98.1136 158.409 98.0983 158.367 98.0754 158.329V158.31H98.0563V158.291L98.0371 158.272V158.252C98.0371 158.264 98.0448 158.272 98.0563 158.272H98.0754L98.0563 158.252H98.0371H98.018H97.9989H97.9798H97.9033H97.8459L97.8076 158.272C97.7808 158.272 97.7617 158.275 97.7426 158.279C97.7235 158.287 97.7005 158.287 97.6776 158.287C97.5016 158.337 97.3295 158.413 97.1535 158.513C97.054 158.574 96.9584 158.631 96.8628 158.681C96.771 158.731 96.6715 158.788 96.572 158.85C96.3234 159.026 96.0786 159.206 95.8337 159.393C95.5889 159.581 95.3556 159.78 95.1337 159.991C95.0955 160.018 95.0496 160.025 94.9922 160.018C94.9348 160.01 94.8965 160.002 94.8698 159.991C94.8315 159.968 94.7894 159.937 94.7397 159.906C94.69 159.876 94.6594 159.834 94.6479 159.784C94.5867 159.424 94.5943 159.072 94.6747 158.727C94.755 158.383 94.8889 158.057 95.0763 157.743C95.2026 157.544 95.3441 157.356 95.5048 157.18C95.6654 157.004 95.8491 156.855 96.048 156.732C96.1092 156.694 96.178 156.656 96.2545 156.621C96.331 156.583 96.4037 156.579 96.4802 156.602C96.5912 156.629 96.6906 156.679 96.771 156.763C96.8513 156.843 96.8628 156.939 96.7977 157.054C96.748 157.13 96.6906 157.199 96.6294 157.261C96.5682 157.322 96.5032 157.387 96.442 157.448C96.3808 157.525 96.3081 157.594 96.2278 157.663C96.1474 157.732 96.0671 157.804 95.9944 157.877C95.895 157.977 95.7917 158.072 95.6846 158.157C95.5775 158.245 95.4742 158.333 95.3747 158.417C95.3747 158.429 95.3671 158.436 95.3556 158.436C95.2446 158.697 95.1681 158.972 95.1299 159.259C95.3403 159.083 95.5545 158.922 95.7649 158.773C95.9753 158.624 96.1933 158.478 96.419 158.344C96.5567 158.256 96.7097 158.168 96.8781 158.084C97.0464 157.996 97.2223 157.935 97.4021 157.896C97.5819 157.858 97.7617 157.854 97.9339 157.877C98.1098 157.904 98.2628 157.988 98.4005 158.138C98.4618 158.199 98.5115 158.275 98.5497 158.363C98.588 158.451 98.6186 158.543 98.6415 158.643C98.653 158.681 98.6645 158.72 98.6683 158.765C98.676 158.808 98.6913 158.85 98.7142 158.888C98.7142 158.899 98.7181 158.915 98.7219 158.926C98.7295 158.938 98.7295 158.953 98.7295 158.965L98.7487 158.984L98.806 159.095C98.8175 159.095 98.8252 159.102 98.8252 159.114H98.8443L98.8634 159.133L98.8825 159.152H98.9017V159.171H98.9399C98.9667 159.183 98.982 159.19 98.9858 159.19C98.9897 159.19 99.0088 159.198 99.0317 159.21C99.0585 159.21 99.0738 159.217 99.0891 159.229C99.1388 159.229 99.1809 159.236 99.2192 159.248H99.2383H99.2957H99.4257C99.4869 159.248 99.5481 159.248 99.6017 159.248C99.6591 159.248 99.7165 159.24 99.7777 159.229C100.026 159.217 100.306 159.167 100.619 159.079C100.918 159.018 101.212 158.934 101.499 158.827C101.786 158.72 102.073 158.601 102.36 158.463C102.486 158.402 102.608 158.337 102.735 158.275C102.861 158.214 102.983 158.145 103.11 158.069C103.171 158.03 103.236 158.026 103.297 158.049C103.377 158.072 103.435 158.103 103.481 158.141ZM98.0792 158.272C98.0677 158.272 98.0601 158.264 98.0601 158.252H98.041L98.0601 158.272H98.0792ZM98.0601 158.291C98.0601 158.302 98.0677 158.31 98.0792 158.31H98.0601V158.291ZM98.9208 159.152C98.9093 159.152 98.894 159.145 98.8825 159.133L98.9208 159.152Z" fill="#646463"/>
<path d="M110.382 158.069C110.431 158.031 110.489 158.023 110.558 158.042C110.627 158.061 110.688 158.092 110.745 158.134C110.803 158.176 110.841 158.226 110.868 158.276C110.894 158.325 110.879 158.368 110.829 158.406C110.73 158.467 110.638 158.528 110.558 158.582C110.477 158.639 110.386 158.697 110.286 158.758C109.686 159.133 109.066 159.474 108.416 159.777C107.765 160.083 107.088 160.309 106.377 160.458C105.952 160.558 105.512 160.615 105.049 160.627C104.586 160.638 104.158 160.558 103.76 160.382C103.473 160.244 103.225 160.052 103.014 159.811C102.804 159.566 102.723 159.279 102.769 158.942C102.796 158.766 102.846 158.609 102.93 158.463C103.01 158.322 103.102 158.18 103.202 158.042C103.362 157.831 103.554 157.632 103.772 157.445C103.99 157.257 104.231 157.138 104.491 157.089C104.678 157.05 104.858 157.058 105.034 157.108C105.21 157.158 105.367 157.234 105.512 157.334C105.657 157.433 105.784 157.56 105.895 157.709C106.006 157.858 106.101 158.015 106.174 158.176C106.201 158.237 106.182 158.279 106.128 158.299C106.071 158.318 106.017 158.322 105.971 158.306C105.822 158.283 105.715 158.207 105.654 158.08V158.042C105.642 158.042 105.635 158.034 105.635 158.023C105.635 158.011 105.623 157.992 105.596 157.965C105.585 157.927 105.55 157.874 105.504 157.797L105.466 157.759C105.466 157.747 105.459 157.736 105.447 157.72L105.466 157.74L105.428 157.701C105.416 157.69 105.409 157.678 105.409 157.663C105.382 157.652 105.367 157.64 105.363 157.625C105.355 157.613 105.34 157.598 105.317 157.586C105.29 157.563 105.275 157.548 105.26 157.548C105.26 157.537 105.252 157.529 105.24 157.529L105.221 157.51H105.202L105.164 157.472H105.145C105.133 157.472 105.122 157.468 105.118 157.464C105.11 157.456 105.103 157.456 105.091 157.456H105.072C105.045 157.456 105.022 157.449 105 157.437C105.022 157.449 105.034 157.452 105.026 157.445C105.019 157.437 105.003 157.437 104.98 157.437C104.942 157.437 104.919 157.445 104.908 157.456H104.889H104.869C104.843 157.456 104.793 157.468 104.72 157.495C104.609 157.533 104.495 157.586 104.384 157.663C104.036 157.889 103.741 158.207 103.504 158.616C103.427 158.754 103.374 158.884 103.335 159.011C103.335 159.022 103.328 159.038 103.316 159.049V159.087C103.316 159.114 103.313 159.129 103.309 159.133C103.301 159.141 103.297 159.156 103.297 159.179V159.367V159.459C103.297 159.42 103.301 159.417 103.309 159.44C103.316 159.466 103.316 159.482 103.316 159.497C103.339 159.574 103.358 159.623 103.374 159.646V159.666L103.393 159.704L103.45 159.761V159.78L103.469 159.8L103.527 159.857V159.876C103.538 159.876 103.546 159.884 103.546 159.895H103.565L103.622 159.953C103.634 159.953 103.642 159.957 103.642 159.96C103.642 159.968 103.649 159.968 103.661 159.968C103.687 159.995 103.71 160.006 103.737 160.006C103.749 160.018 103.76 160.025 103.764 160.025C103.772 160.025 103.779 160.033 103.791 160.045C103.814 160.056 103.829 160.06 103.829 160.052C103.829 160.045 103.821 160.045 103.81 160.045C103.837 160.045 103.86 160.056 103.886 160.083C103.909 160.083 103.948 160.094 103.997 160.121C104.024 160.121 104.039 160.129 104.055 160.14C104.104 160.152 104.146 160.163 104.185 160.167C104.223 160.175 104.261 160.175 104.296 160.175C104.334 160.186 104.384 160.194 104.445 160.194C104.456 160.205 104.475 160.213 104.502 160.213H104.521H104.54C104.739 160.225 104.938 160.225 105.137 160.213C105.386 160.186 105.631 160.156 105.868 160.11C106.105 160.068 106.35 160.014 106.598 159.953C107.283 159.742 107.937 159.474 108.561 159.149C109.173 158.827 109.781 158.467 110.382 158.069ZM103.446 159.788C103.446 159.777 103.45 159.773 103.454 159.78C103.462 159.788 103.462 159.796 103.462 159.807L103.446 159.788ZM103.557 159.899C103.546 159.899 103.538 159.895 103.538 159.891C103.538 159.884 103.531 159.884 103.519 159.884C103.519 159.868 103.534 159.876 103.557 159.899Z" fill="#646463"/>
<path d="M117.001 158.084C117.039 158.046 117.092 158.038 117.169 158.057C117.242 158.076 117.31 158.107 117.364 158.149C117.421 158.191 117.46 158.241 117.486 158.291C117.513 158.34 117.498 158.383 117.448 158.421L117.391 158.478C117.18 158.654 116.962 158.815 116.737 158.965C116.511 159.114 116.289 159.259 116.063 159.393C115.677 159.619 115.283 159.822 114.885 160.01C114.487 160.197 114.074 160.358 113.653 160.496C113.229 160.622 112.796 160.699 112.353 160.73C111.909 160.76 111.477 160.714 111.052 160.588C110.792 160.511 110.543 160.389 110.314 160.213C110.084 160.037 109.943 159.807 109.893 159.52C109.855 159.282 109.878 159.053 109.958 158.827C110.038 158.601 110.149 158.398 110.287 158.21C110.425 158 110.582 157.804 110.765 157.632C110.945 157.456 111.14 157.314 111.354 157.203C111.454 157.142 111.557 157.092 111.664 157.054C111.771 157.016 111.878 156.993 111.993 156.977C112.269 156.951 112.51 157.019 112.724 157.184C112.823 157.245 112.9 157.326 112.949 157.418C112.999 157.51 113.007 157.613 112.969 157.728C112.942 157.827 112.892 157.915 112.819 157.988C112.743 158.065 112.67 158.134 112.594 158.195C112.395 158.371 112.181 158.528 111.947 158.674C111.718 158.819 111.484 158.957 111.247 159.095C111.11 159.171 110.972 159.24 110.834 159.309C110.696 159.378 110.559 159.443 110.425 159.504V159.543V159.6V159.638C110.425 159.677 110.436 159.719 110.463 159.769C110.463 159.78 110.467 159.792 110.475 159.795C110.482 159.803 110.482 159.818 110.482 159.841V159.86H110.501L110.54 159.937L110.559 159.956V159.975L110.616 160.033L110.635 160.052C110.647 160.052 110.654 160.056 110.654 160.06C110.654 160.067 110.662 160.067 110.673 160.067L110.693 160.086H110.712C110.712 160.098 110.719 160.106 110.731 160.106C110.758 160.117 110.781 160.132 110.807 160.151C110.83 160.171 110.846 160.174 110.846 160.159C110.819 160.148 110.803 160.14 110.8 160.14C110.792 160.14 110.803 160.148 110.826 160.159H110.846C110.857 160.171 110.876 160.178 110.903 160.178C110.914 160.19 110.926 160.197 110.941 160.197C110.953 160.197 110.968 160.205 110.979 160.217C110.991 160.217 111.01 160.22 111.037 160.224C111.064 160.232 111.067 160.232 111.056 160.232C111.079 160.232 111.098 160.236 111.102 160.24C111.11 160.247 111.125 160.247 111.148 160.247C111.197 160.259 111.285 160.278 111.408 160.305H111.519H111.557C111.58 160.316 111.607 160.324 111.63 160.324C112.066 160.351 112.49 160.312 112.9 160.213C113.313 160.113 113.715 159.983 114.116 159.818C114.476 159.669 114.832 159.497 115.172 159.305C115.516 159.114 115.849 158.911 116.17 158.696C116.308 158.597 116.446 158.497 116.591 158.398C116.721 158.306 116.863 158.199 117.001 158.084ZM110.979 158.218C110.903 158.317 110.834 158.413 110.773 158.509C110.712 158.605 110.654 158.7 110.605 158.8C110.593 158.811 110.585 158.827 110.585 158.838C110.585 158.85 110.578 158.865 110.566 158.876C110.654 158.827 110.735 158.781 110.811 158.735C110.888 158.693 110.968 158.651 111.056 158.612C111.266 158.474 111.484 158.337 111.702 158.203C111.92 158.065 112.116 157.908 112.292 157.735C112.292 157.724 112.299 157.709 112.311 157.697H112.326C112.326 157.686 112.337 157.667 112.364 157.64C112.376 157.613 112.387 157.598 112.391 157.594C112.399 157.586 112.406 157.571 112.418 157.548C112.429 157.536 112.437 157.517 112.437 157.49C112.448 157.49 112.456 157.483 112.456 157.471V157.395C112.429 157.395 112.41 157.387 112.399 157.376H112.38H112.341H112.326H112.269H112.211C112.112 157.402 112.035 157.425 111.986 157.452C111.959 157.452 111.936 157.464 111.913 157.49H111.875C111.848 157.517 111.829 157.533 111.81 157.536C111.79 157.544 111.767 157.552 111.745 157.563C111.695 157.59 111.649 157.621 111.603 157.655C111.557 157.693 111.511 157.724 111.461 157.747C111.412 157.785 111.37 157.823 111.331 157.858C111.293 157.896 111.251 157.935 111.201 157.969C111.163 158.019 111.121 158.061 111.071 158.099C111.071 158.111 111.064 158.126 111.052 158.137L111.033 158.157L110.979 158.218ZM110.624 160.052L110.605 160.033C110.605 160.021 110.612 160.025 110.624 160.052ZM110.719 160.106C110.708 160.106 110.7 160.102 110.7 160.098C110.7 160.09 110.693 160.09 110.681 160.09C110.693 160.086 110.704 160.094 110.719 160.106Z" fill="#646463"/>
<path d="M129.991 158.069C130.04 158.031 130.098 158.023 130.167 158.042C130.235 158.061 130.297 158.092 130.354 158.134C130.411 158.176 130.45 158.226 130.476 158.276C130.503 158.325 130.488 158.368 130.438 158.406C130.339 158.467 130.247 158.528 130.167 158.582C130.086 158.639 129.994 158.697 129.895 158.758C129.298 159.133 128.675 159.474 128.024 159.777C127.378 160.083 126.697 160.309 125.985 160.458C125.561 160.558 125.121 160.615 124.658 160.627C124.195 160.638 123.767 160.558 123.369 160.382C123.082 160.244 122.833 160.052 122.623 159.811C122.413 159.566 122.328 159.279 122.378 158.942C122.405 158.766 122.455 158.609 122.539 158.463C122.619 158.322 122.711 158.18 122.81 158.042C122.971 157.831 123.162 157.632 123.38 157.445C123.598 157.257 123.839 157.138 124.1 157.089C124.287 157.05 124.467 157.058 124.643 157.108C124.819 157.158 124.976 157.234 125.121 157.334C125.262 157.433 125.393 157.56 125.503 157.709C125.614 157.858 125.71 158.015 125.783 158.176C125.809 158.237 125.79 158.279 125.737 158.299C125.683 158.318 125.626 158.322 125.58 158.306C125.431 158.283 125.324 158.207 125.262 158.08V158.042C125.251 158.042 125.243 158.034 125.243 158.023C125.243 158.011 125.232 157.992 125.205 157.965C125.194 157.927 125.159 157.874 125.113 157.797L125.075 157.759C125.075 157.747 125.067 157.736 125.056 157.72L125.075 157.74L125.037 157.701C125.025 157.69 125.018 157.678 125.018 157.663C124.991 157.652 124.976 157.64 124.972 157.625C124.964 157.613 124.949 157.598 124.926 157.586C124.899 157.563 124.88 157.548 124.868 157.548C124.868 157.537 124.861 157.529 124.849 157.529L124.83 157.51H124.811L124.773 157.472H124.754C124.742 157.472 124.731 157.468 124.727 157.464C124.719 157.456 124.712 157.456 124.7 157.456H124.681C124.654 157.456 124.631 157.449 124.608 157.437C124.635 157.449 124.643 157.452 124.635 157.445C124.627 157.437 124.612 157.437 124.589 157.437C124.551 157.437 124.528 157.445 124.517 157.456H124.497H124.478C124.451 157.456 124.402 157.468 124.329 157.495C124.218 157.533 124.103 157.586 123.992 157.663C123.644 157.889 123.35 158.207 123.113 158.616C123.036 158.754 122.983 158.884 122.944 159.011C122.944 159.022 122.937 159.038 122.925 159.049V159.087C122.925 159.114 122.921 159.129 122.918 159.133C122.91 159.141 122.91 159.156 122.91 159.179V159.367V159.459C122.91 159.42 122.914 159.417 122.918 159.44C122.925 159.466 122.925 159.482 122.925 159.497C122.952 159.574 122.967 159.623 122.983 159.646V159.666L123.002 159.704L123.059 159.761V159.78L123.078 159.8L123.136 159.857V159.876C123.147 159.876 123.155 159.884 123.155 159.895H123.174L123.231 159.953C123.243 159.953 123.25 159.957 123.25 159.96C123.25 159.968 123.258 159.968 123.269 159.968C123.296 159.995 123.319 160.006 123.346 160.006C123.357 160.018 123.369 160.025 123.373 160.025C123.38 160.025 123.388 160.033 123.4 160.045C123.426 160.056 123.438 160.06 123.438 160.052C123.438 160.045 123.43 160.045 123.419 160.045C123.445 160.045 123.468 160.056 123.495 160.083C123.522 160.083 123.556 160.094 123.606 160.121C123.633 160.121 123.648 160.129 123.663 160.14C123.713 160.152 123.755 160.163 123.794 160.167C123.832 160.175 123.87 160.175 123.904 160.175C123.943 160.186 123.992 160.194 124.054 160.194C124.065 160.205 124.084 160.213 124.111 160.213H124.13H124.149C124.348 160.225 124.547 160.225 124.746 160.213C124.995 160.186 125.24 160.156 125.477 160.11C125.714 160.068 125.955 160.014 126.207 159.953C126.892 159.742 127.546 159.474 128.17 159.149C128.782 158.827 129.394 158.467 129.991 158.069ZM123.055 159.788C123.055 159.777 123.059 159.773 123.063 159.78C123.071 159.788 123.071 159.796 123.071 159.807L123.055 159.788ZM123.166 159.899C123.155 159.899 123.147 159.895 123.147 159.891C123.147 159.884 123.139 159.884 123.128 159.884C123.128 159.868 123.143 159.876 123.166 159.899Z" fill="#646463"/>
<path d="M137.729 158.03C137.767 157.992 137.82 157.984 137.897 158.003C137.97 158.022 138.038 158.049 138.092 158.088C138.149 158.126 138.188 158.172 138.214 158.229C138.241 158.287 138.226 158.333 138.176 158.371L137.95 158.539C137.476 158.903 136.967 159.252 136.416 159.588C136.019 159.826 135.613 160.044 135.2 160.243C134.787 160.442 134.366 160.611 133.93 160.749C133.505 160.886 133.039 160.986 132.526 161.047C132.35 161.074 132.182 161.086 132.014 161.086C131.845 161.086 131.673 161.066 131.501 161.028C131.252 160.978 131.023 160.89 130.809 160.768C130.598 160.641 130.422 160.473 130.284 160.262C130.147 160.075 130.047 159.868 129.986 159.646C129.925 159.42 129.879 159.198 129.856 158.972C129.829 158.712 129.829 158.444 129.856 158.176C129.883 157.908 129.925 157.643 129.986 157.379C130.112 156.782 130.311 156.188 130.583 155.603C130.721 155.304 130.87 155.009 131.03 154.722C131.191 154.435 131.375 154.159 131.574 153.899C131.96 153.374 132.396 152.907 132.882 152.493C133.131 152.294 133.387 152.118 133.647 151.961C133.907 151.804 134.182 151.678 134.469 151.578C135.028 151.391 135.598 151.333 136.172 151.41C136.371 151.437 136.566 151.483 136.749 151.552C136.937 151.62 137.086 151.735 137.197 151.896C137.285 152.022 137.323 152.153 137.319 152.291C137.312 152.428 137.277 152.559 137.216 152.685C137.143 152.861 137.048 153.018 136.937 153.164C136.826 153.305 136.711 153.447 136.6 153.585C136.275 153.945 135.915 154.297 135.518 154.634C135.307 154.821 135.093 155.005 134.883 155.185C134.672 155.365 134.458 155.545 134.247 155.717L132.901 156.728C132.702 156.866 132.507 157.008 132.312 157.149C132.121 157.291 131.918 157.433 131.704 157.571C131.566 157.67 131.428 157.77 131.283 157.869C131.138 157.969 131 158.068 130.862 158.168C130.801 158.195 130.743 158.225 130.694 158.26C130.644 158.298 130.587 158.336 130.525 158.371C130.476 158.398 130.426 158.401 130.376 158.39C130.365 158.616 130.365 158.834 130.376 159.045V159.213C130.388 159.24 130.395 159.271 130.395 159.305V159.343V159.363C130.407 159.412 130.418 159.462 130.434 159.512C130.445 159.562 130.46 159.619 130.472 159.68C130.499 159.73 130.514 159.776 130.529 159.822C130.541 159.864 130.56 159.918 130.587 159.979V159.998C130.625 160.036 130.636 160.056 130.625 160.056C130.636 160.082 130.652 160.102 130.663 160.121C130.675 160.14 130.69 160.163 130.701 160.186C130.728 160.213 130.74 160.228 130.74 160.243C130.751 160.255 130.759 160.27 130.759 160.281C130.786 160.293 130.801 160.308 130.805 160.32C130.812 160.331 130.828 160.35 130.851 160.377L130.889 160.416C130.9 160.416 130.908 160.423 130.908 160.435C130.935 160.446 130.965 160.473 131 160.511H131.019C131.03 160.523 131.03 160.53 131.019 160.53C131.03 160.53 131.042 160.534 131.046 160.538C131.053 160.546 131.061 160.546 131.072 160.546C131.084 160.557 131.099 160.565 131.111 160.565C131.122 160.565 131.134 160.572 131.149 160.584C131.187 160.595 131.229 160.615 131.279 160.641H131.298H131.317C131.344 160.641 131.359 160.645 131.363 160.649C131.371 160.657 131.379 160.657 131.39 160.657C131.413 160.657 131.444 160.661 131.474 160.664C131.505 160.672 131.532 160.672 131.558 160.672H131.597C131.623 160.672 131.639 160.676 131.642 160.68C131.65 160.687 131.665 160.687 131.688 160.687C131.788 160.687 131.891 160.684 131.998 160.68C132.105 160.672 132.205 160.664 132.308 160.653C132.756 160.592 133.199 160.488 133.635 160.343C134.072 160.201 134.488 160.029 134.886 159.83C135.246 159.654 135.594 159.47 135.923 159.267C136.252 159.068 136.581 158.857 136.906 158.631C137.182 158.455 137.453 158.252 137.729 158.03ZM130.774 156.644C130.648 157.008 130.548 157.379 130.476 157.766C130.525 157.743 130.571 157.712 130.617 157.682C130.659 157.651 130.709 157.617 130.759 157.578C130.935 157.467 131.103 157.352 131.264 157.241C131.424 157.13 131.589 157.012 131.75 156.885C132.197 156.575 132.614 156.269 133 155.97C133.226 155.809 133.444 155.641 133.662 155.476C133.88 155.308 134.094 155.135 134.309 154.963C134.523 154.791 134.726 154.615 134.925 154.439C135.124 154.262 135.319 154.09 135.502 153.914L136.007 153.409L136.065 153.351C136.065 153.34 136.068 153.332 136.076 153.332C136.084 153.332 136.084 153.324 136.084 153.313H136.103C136.114 153.275 136.145 153.232 136.195 153.183C136.221 153.144 136.252 153.106 136.286 153.072C136.325 153.033 136.355 152.995 136.378 152.961C136.428 152.899 136.478 152.83 136.527 152.754C136.577 152.677 136.619 152.604 136.657 152.528C136.669 152.505 136.684 152.47 136.696 152.436C136.707 152.402 136.722 152.367 136.734 152.344C136.745 152.321 136.753 152.302 136.753 152.287C136.753 152.275 136.761 152.26 136.772 152.248V152.229C136.772 152.206 136.78 152.191 136.791 152.191V152.022V152.003C136.765 151.977 136.753 151.954 136.753 151.927V151.908C136.742 151.908 136.734 151.9 136.734 151.888H136.715L136.696 151.869H136.677C136.677 151.858 136.669 151.85 136.657 151.85C136.631 151.839 136.615 151.831 136.612 151.831C136.604 151.831 136.589 151.823 136.566 151.812H136.547H136.489C136.462 151.8 136.443 151.793 136.424 151.793C136.405 151.793 136.382 151.785 136.359 151.774H136.283H136.263C136.237 151.774 136.21 151.77 136.179 151.766C136.149 151.758 136.122 151.758 136.095 151.758C136.022 151.758 135.95 151.758 135.881 151.758C135.812 151.758 135.747 151.766 135.686 151.777H135.575C135.563 151.777 135.552 151.781 135.548 151.785C135.54 151.793 135.533 151.793 135.521 151.793C135.472 151.793 135.395 151.804 135.296 151.831C135.146 151.858 135.009 151.892 134.883 151.942C134.821 151.969 134.756 151.992 134.687 152.019C134.619 152.045 134.554 152.068 134.492 152.095C134.481 152.095 134.466 152.103 134.454 152.114C134.427 152.114 134.416 152.122 134.416 152.134C134.378 152.134 134.347 152.145 134.324 152.172C134.297 152.199 134.267 152.214 134.232 152.229C134.194 152.241 134.163 152.26 134.14 152.287C133.865 152.425 133.612 152.593 133.383 152.792C133.153 152.991 132.932 153.198 132.721 153.409C132.511 153.634 132.308 153.872 132.124 154.128C131.937 154.385 131.757 154.649 131.581 154.925C131.421 155.201 131.271 155.48 131.141 155.767C131.007 156.051 130.889 156.345 130.774 156.644ZM131.298 160.63H131.279C131.306 160.618 131.321 160.615 131.325 160.622C131.333 160.63 131.329 160.63 131.317 160.63H131.298ZM136.757 151.931C136.757 151.942 136.765 151.957 136.776 151.969C136.788 151.98 136.788 151.977 136.776 151.95L136.757 151.931Z" fill="#646463"/>
<path d="M147.449 158.069C147.487 158.096 147.526 158.138 147.572 158.199C147.617 158.261 147.606 158.307 147.545 158.33C147.533 158.33 147.526 158.337 147.526 158.349C147.464 158.387 147.399 158.421 147.331 158.452C147.262 158.483 147.197 158.517 147.135 158.555C147.009 158.617 146.887 158.686 146.761 158.762C146.634 158.839 146.504 158.904 146.367 158.969C146.018 159.145 145.666 159.306 145.311 159.455C144.955 159.605 144.592 159.742 144.217 159.869C143.869 159.995 143.505 160.087 143.134 160.148C142.958 160.175 142.782 160.19 142.602 160.194C142.423 160.202 142.243 160.171 142.071 160.11C141.921 160.049 141.788 159.961 141.669 159.85C141.55 159.739 141.474 159.601 141.436 159.436C141.397 159.337 141.382 159.229 141.39 159.118C141.397 159.007 141.413 158.892 141.436 158.781C141.386 158.82 141.325 158.873 141.248 158.95C140.95 159.199 140.648 159.44 140.342 159.67C140.036 159.899 139.71 160.102 139.359 160.278C139.072 160.455 138.762 160.558 138.425 160.596C138.238 160.623 138.054 160.604 137.874 160.55C137.694 160.493 137.534 160.405 137.396 160.278C137.285 160.167 137.213 160.041 137.182 159.903C137.151 159.765 137.144 159.624 137.163 159.474C137.182 159.325 137.216 159.18 137.266 159.034C137.316 158.892 137.373 158.762 137.434 158.651C137.595 158.303 137.809 157.958 138.069 157.621C138.108 157.56 138.157 157.533 138.219 157.545C138.28 157.556 138.337 157.575 138.387 157.602C138.425 157.629 138.471 157.667 138.528 157.725C138.586 157.782 138.593 157.836 138.555 157.885V157.924C138.505 157.985 138.456 158.05 138.406 158.119C138.356 158.188 138.314 158.253 138.276 158.314C138.115 158.575 137.981 158.827 137.882 159.061C137.805 159.199 137.752 159.337 137.714 159.474V159.494V159.551C137.702 159.562 137.694 159.578 137.694 159.589C137.694 159.601 137.687 159.62 137.675 159.647V159.834V159.926V159.964C137.675 160.003 137.683 160.026 137.694 160.041C137.694 160.053 137.698 160.064 137.702 160.068C137.71 160.076 137.71 160.083 137.71 160.095C137.71 160.106 137.717 160.121 137.729 160.133H137.748V160.171H137.767C137.779 160.171 137.79 160.175 137.794 160.179C137.802 160.187 137.817 160.187 137.84 160.187L137.859 160.206H137.916H137.993H138.012H138.089H138.18H138.199H138.238C138.276 160.194 138.31 160.183 138.341 160.179C138.372 160.171 138.406 160.164 138.444 160.152C138.483 160.141 138.517 160.125 138.548 160.114C138.578 160.102 138.613 160.091 138.651 160.076L138.762 160.018L138.8 159.999C138.827 159.999 138.838 159.991 138.838 159.98C138.926 159.942 139.007 159.903 139.083 159.857C139.16 159.815 139.232 159.765 139.309 159.716C139.619 159.528 139.921 159.321 140.208 159.099C140.495 158.873 140.774 158.64 141.049 158.387C141.325 158.15 141.596 157.893 141.872 157.621C141.91 157.583 141.964 157.579 142.04 157.602C142.117 157.629 142.17 157.652 142.208 157.679C142.247 157.705 142.281 157.74 142.319 157.782C142.358 157.824 142.361 157.874 142.338 157.924C142.277 158.05 142.228 158.169 142.189 158.28C142.162 158.341 142.143 158.402 142.124 158.456C142.105 158.513 142.082 158.571 142.059 158.632C142.032 158.693 142.013 158.751 142.002 158.8C141.99 158.85 141.971 158.919 141.944 159.007C141.933 159.069 141.925 159.134 141.925 159.195C141.925 159.256 141.925 159.321 141.925 159.382V159.474V159.513C141.937 159.539 141.948 159.562 141.952 159.589C141.96 159.616 141.967 159.639 141.979 159.666C141.99 159.677 141.998 159.693 141.998 159.704L142.017 159.723C142.029 159.723 142.036 159.731 142.036 159.742C142.048 159.742 142.055 159.75 142.055 159.762H142.075H142.094C142.094 159.773 142.105 159.781 142.132 159.781C142.159 159.792 142.189 159.8 142.224 159.8L142.262 159.819H142.3C142.4 159.819 142.476 159.811 142.526 159.8H142.637C142.648 159.8 142.66 159.796 142.664 159.792C142.671 159.785 142.679 159.785 142.69 159.785H142.729C142.817 159.773 142.897 159.758 142.973 159.746C143.05 159.735 143.13 159.716 143.218 159.689C143.394 159.651 143.57 159.601 143.75 159.539C143.93 159.478 144.11 159.413 144.282 159.352C144.768 159.176 145.246 158.977 145.72 158.743C146.194 158.513 146.653 158.264 147.105 158.004C147.166 157.966 147.231 157.962 147.292 157.985C147.346 158 147.399 158.031 147.449 158.069ZM137.786 160.164C137.809 160.19 137.817 160.194 137.805 160.183C137.794 160.171 137.779 160.164 137.767 160.164H137.786Z" fill="#646463"/>
<path d="M155.693 158.069C155.831 158.046 155.954 158.088 156.068 158.199C156.095 158.237 156.114 158.283 156.133 158.341C156.152 158.398 156.126 158.433 156.049 158.444C155.95 158.471 155.843 158.49 155.732 158.509C155.621 158.528 155.514 158.551 155.414 158.574C155.066 158.651 154.722 158.731 154.385 158.827C154.049 158.919 153.712 159.018 153.375 159.118C152.977 159.229 152.583 159.348 152.197 159.474C151.811 159.6 151.417 159.731 151.019 159.868C150.981 159.868 150.95 159.88 150.927 159.907C150.64 160.27 150.315 160.592 149.955 160.879C149.779 161.017 149.592 161.14 149.385 161.243C149.179 161.35 148.972 161.427 148.758 161.477C148.559 161.526 148.391 161.526 148.253 161.477C148.165 161.454 148.085 161.4 148.008 161.327C147.936 161.251 147.89 161.166 147.878 161.067C147.878 160.99 147.901 160.925 147.943 160.86C147.985 160.799 148.039 160.734 148.1 160.672C148.188 160.596 148.28 160.531 148.379 160.477C148.479 160.42 148.578 160.37 148.678 160.316C148.815 160.24 148.957 160.171 149.11 160.102C149.259 160.033 149.416 159.968 149.577 159.907C149.714 159.845 149.86 159.784 150.017 159.731C150.173 159.673 150.326 159.616 150.476 159.554C150.575 159.417 150.663 159.279 150.736 159.145C150.812 159.007 150.873 158.865 150.923 158.716C150.95 158.639 150.961 158.559 150.961 158.471C150.961 158.444 150.965 158.429 150.969 158.413C150.977 158.402 150.973 158.383 150.961 158.356V158.299C150.961 158.272 150.958 158.256 150.954 158.241C150.946 158.23 150.946 158.21 150.946 158.184C150.935 158.184 150.927 158.176 150.927 158.164C150.916 158.153 150.908 158.142 150.908 158.138C150.908 158.13 150.9 158.122 150.889 158.111V158.092C150.877 158.092 150.862 158.084 150.851 158.073C150.839 158.073 150.831 158.069 150.831 158.065C150.831 158.057 150.824 158.057 150.812 158.057C150.801 158.057 150.786 158.05 150.774 158.038H150.755H150.736C150.724 158.038 150.709 158.03 150.698 158.019H150.606C150.556 158.019 150.514 158.027 150.476 158.038H150.437C150.399 158.038 150.376 158.046 150.361 158.057C150.15 158.107 149.948 158.18 149.753 158.272C149.561 158.364 149.378 158.467 149.202 158.582C149.014 158.681 148.831 158.792 148.651 158.919C148.471 159.045 148.291 159.168 148.119 159.294C148.058 159.344 147.989 159.39 147.924 159.436C147.855 159.478 147.79 159.52 147.729 159.558C147.668 159.585 147.607 159.608 147.553 159.635C147.496 159.662 147.438 159.673 147.377 159.673C147.278 159.685 147.178 159.658 147.079 159.589C146.979 159.52 146.91 159.436 146.872 159.336C146.834 159.21 146.83 159.076 146.853 158.923C146.88 158.685 146.918 158.452 146.975 158.222C147.033 157.992 147.098 157.762 147.171 157.54C147.27 157.215 147.377 156.901 147.488 156.595C147.599 156.288 147.718 155.986 147.844 155.687C148.142 155.002 148.479 154.328 148.854 153.665C149.041 153.34 149.232 153.03 149.431 152.731C149.63 152.433 149.856 152.138 150.105 151.851C150.304 151.613 150.518 151.387 150.751 151.169C150.981 150.951 151.233 150.759 151.508 150.599C151.757 150.461 152.021 150.361 152.304 150.3C152.583 150.239 152.866 150.231 153.153 150.281C153.429 150.33 153.666 150.438 153.873 150.599C154.079 150.759 154.205 150.985 154.255 151.272C154.293 151.548 154.263 151.82 154.163 152.088C154.064 152.356 153.957 152.609 153.846 152.846C153.647 153.206 153.425 153.554 153.18 153.884C152.935 154.213 152.679 154.531 152.404 154.829C151.73 155.576 151.007 156.239 150.235 156.813C149.822 157.138 149.393 157.437 148.946 157.713C148.498 157.988 148.035 158.23 147.561 158.444C147.549 158.455 147.523 158.463 147.484 158.463V158.501C147.457 158.563 147.442 158.62 147.438 158.67C147.431 158.72 147.423 158.777 147.412 158.838C147.4 158.9 147.389 158.957 147.385 159.007C147.377 159.057 147.377 159.114 147.377 159.175C147.4 159.152 147.427 159.133 147.45 159.129C147.477 159.122 147.5 159.106 147.526 159.083C147.702 158.972 147.871 158.858 148.031 158.739C148.192 158.62 148.36 158.505 148.536 158.394C148.735 158.268 148.934 158.149 149.133 158.038C149.332 157.927 149.538 157.831 149.749 157.759C149.925 157.697 150.105 157.659 150.292 157.648C150.479 157.636 150.659 157.659 150.835 157.724C150.984 157.785 151.122 157.873 151.248 157.985C151.375 158.096 151.447 158.241 151.474 158.413C151.501 158.563 151.497 158.712 151.466 158.861C151.436 159.011 151.39 159.156 151.325 159.29C151.413 159.267 151.493 159.237 151.57 159.206C151.646 159.175 151.719 159.149 151.795 159.122C152.182 158.995 152.564 158.88 152.943 158.777C153.322 158.67 153.708 158.57 154.094 158.467C154.355 158.39 154.622 158.325 154.89 158.26C155.15 158.172 155.422 158.119 155.693 158.069ZM148.609 155.354C148.311 155.99 148.047 156.644 147.825 157.318L147.656 157.824C147.794 157.747 147.928 157.674 148.058 157.598C148.188 157.521 148.322 157.448 148.46 157.372C149.359 156.824 150.173 156.204 150.908 155.519C151.245 155.209 151.566 154.887 151.872 154.554C152.178 154.225 152.465 153.876 152.74 153.516C152.84 153.355 152.939 153.195 153.039 153.038C153.138 152.881 153.238 152.724 153.337 152.559C153.364 152.482 153.394 152.41 153.429 152.333C153.463 152.256 153.501 152.184 153.54 152.107C153.567 152.008 153.589 151.939 153.616 151.9C153.616 151.874 153.62 151.858 153.624 151.843C153.632 151.831 153.632 151.812 153.632 151.785C153.643 151.774 153.651 151.755 153.651 151.728V151.709C153.674 151.621 153.7 151.502 153.723 151.353V151.184V151.108V151.089L153.704 151.069C153.704 151.047 153.693 150.993 153.666 150.92C153.666 150.909 153.662 150.897 153.658 150.893C153.651 150.886 153.651 150.878 153.651 150.867L153.632 150.847C153.632 150.836 153.62 150.817 153.593 150.79V150.771C153.567 150.771 153.555 150.759 153.555 150.733C153.544 150.733 153.536 150.729 153.536 150.725C153.536 150.717 153.528 150.717 153.517 150.717C153.505 150.706 153.494 150.698 153.49 150.698C153.482 150.698 153.475 150.69 153.463 150.679H153.444L153.371 150.641H153.333C153.306 150.641 153.291 150.637 153.287 150.633C153.28 150.625 153.264 150.625 153.241 150.625C153.203 150.625 153.173 150.618 153.15 150.606H153.092H152.886C152.859 150.606 152.844 150.61 152.84 150.614C152.832 150.621 152.817 150.621 152.794 150.621H152.775H152.736C152.675 150.633 152.61 150.648 152.549 150.66C152.488 150.671 152.423 150.69 152.362 150.717C152.335 150.729 152.308 150.744 152.277 150.756C152.247 150.767 152.22 150.782 152.193 150.794H152.174H152.155L152.117 150.832C152.105 150.832 152.071 150.844 152.025 150.87C151.964 150.909 151.903 150.947 151.849 150.981C151.792 151.02 151.734 151.058 151.673 151.092C151.535 151.181 151.413 151.272 151.298 151.372C151.187 151.472 151.072 151.579 150.961 151.69C150.724 151.939 150.499 152.203 150.288 152.486C150.078 152.766 149.875 153.057 149.691 153.355C149.481 153.681 149.286 154.006 149.114 154.339C148.938 154.684 148.773 155.017 148.609 155.354ZM148.536 161.063C148.624 161.052 148.712 161.021 148.796 160.971C149.095 160.833 149.393 160.634 149.695 160.374C149.669 160.401 149.642 160.416 149.611 160.42C149.581 160.427 149.546 160.443 149.508 160.466L149.47 160.485C149.458 160.485 149.447 160.489 149.443 160.492C149.435 160.5 149.428 160.5 149.416 160.5C149.389 160.512 149.374 160.523 149.37 160.527C149.362 160.535 149.347 160.542 149.324 160.554C149.275 160.565 149.213 160.596 149.137 160.646C148.938 160.734 148.743 160.852 148.559 161.002C148.532 161.029 148.521 161.048 148.521 161.059C148.509 161.059 148.502 161.067 148.502 161.078L148.536 161.063ZM150.908 158.122C150.908 158.111 150.9 158.103 150.889 158.103L150.908 158.122ZM153.712 151.089C153.723 151.089 153.731 151.096 153.731 151.108C153.731 151.092 153.727 151.089 153.712 151.089Z" fill="#646463"/>
<defs>
<linearGradient id="paint0_linear_113_1258" x1="105.162" y1="45.0368" x2="105.162" y2="113.7" gradientUnits="userSpaceOnUse">
<stop offset="0.00167411" stop-color="#BA5430"/>
<stop offset="0.6577" stop-color="#EAC13D"/>
</linearGradient>
</defs>
</svg>
