<svg width="208" height="208" viewBox="0 0 208 208" fill="none" xmlns="http://www.w3.org/2000/svg">
<circle cx="104" cy="104" r="104" fill="#F2F2F2"/>
<path d="M78.7549 119.57H83.2692L74.8939 142.477C74.8939 142.477 71.4339 141.474 75.7689 131.024C80.104 120.573 79.5568 121.646 79.5568 121.646C79.5568 121.646 80.2833 119.936 78.7549 119.57Z" fill="#223E8E"/>
<path d="M93.0995 119.57H97.6138L89.2385 142.477C89.2385 142.477 87.7856 140.92 88.1111 137.486C88.3022 135.458 90.0286 131.649 90.3683 130.132C90.9862 127.365 89.5664 127.358 89.0498 127.38C88.1394 127.415 85.7242 129.814 84.4695 132.535C83.2642 135.151 82.2901 138.241 84.0001 139.371C86.2643 140.864 88.4012 138.434 86.6912 140.22C85.6983 141.255 84.9082 142.003 83.2689 142.003C81.7406 142.003 79.665 140.055 79.665 137.415C79.665 133.446 83.085 128.38 86.0002 126.092C88.8776 123.835 91.8589 126.804 91.8589 126.804L93.9014 121.651C93.9014 121.646 94.6279 119.936 93.0995 119.57Z" fill="#223E8E"/>
<path d="M54.5938 149.531H57.2825C57.7637 149.531 57.9807 149.694 57.9807 150.109V150.814C57.9807 151.225 57.7613 151.387 57.2825 151.387H56.8721L58.292 152.517H57.2472L55.9971 151.387H55.3131V152.517H54.5938V149.531ZM55.3131 150.045V150.871H56.9712C57.1905 150.871 57.3038 150.828 57.3038 150.63V150.284C57.3038 150.086 57.1905 150.043 56.9712 150.043H55.3131V150.045Z" fill="black"/>
<path d="M60.0752 149.531H63.2805V150.06H60.8087V150.708H62.2498V151.225H60.8087V151.958H63.3159V152.515H60.0752V149.531Z" fill="black"/>
<path d="M65.9647 150.067V150.694H67.9058C68.4978 150.694 68.6818 150.836 68.6818 151.402V151.812C68.6818 152.369 68.4978 152.517 67.9058 152.517H65.9647C65.3727 152.517 65.1816 152.369 65.1816 151.812V151.727L65.8302 151.607V151.961H68.0261V151.274H66.0921C65.5071 151.274 65.309 151.133 65.309 150.569V150.236C65.309 149.673 65.5071 149.531 66.0921 149.531H67.8633C68.4129 149.531 68.6464 149.659 68.6464 150.18V150.251L68.019 150.385V150.067H65.9647Z" fill="black"/>
<path d="M70.833 149.531H71.5595V152.517H70.833V149.531Z" fill="black"/>
<path d="M73.7783 149.531H75.7902C76.9695 149.531 77.5827 150.088 77.5827 151.015C77.5827 152.024 76.9199 152.52 75.6062 152.52H73.7783V149.531ZM75.4506 151.958C76.3751 151.958 76.835 151.753 76.835 150.977C76.835 150.357 76.4883 150.067 75.7973 150.067H74.5118V151.958H75.4506Z" fill="black"/>
<path d="M79.5713 149.531H82.7766V150.06H80.3048V150.708H81.7459V151.225H80.3048V151.958H82.812V152.515H79.5713V149.531Z" fill="black"/>
<path d="M84.7559 149.531H85.2582L87.7937 151.515V149.531H88.4494V152.517H87.947L85.4186 150.505V152.517H84.7559V149.531Z" fill="black"/>
<path d="M91.3309 150.081V151.944H93.2933V151.31L94.0268 151.458V151.812C94.0268 152.369 93.8357 152.517 93.2437 152.517H91.3805C90.7814 152.517 90.6045 152.362 90.6045 151.812V150.236C90.6045 149.68 90.7885 149.531 91.3805 149.531H93.2437C93.8357 149.531 94.0268 149.673 94.0268 150.236V150.527L93.2933 150.633V150.083H91.3309V150.081Z" fill="black"/>
<path d="M96.1143 149.531H99.3196V150.06H96.8478V150.708H98.2889V151.225H96.8478V151.958H99.3549V152.515H96.1143V149.531Z" fill="black"/>
<path d="M106.242 149.531H106.941L108.74 152.517H107.922L107.547 151.862H105.57L105.195 152.517H104.469L106.242 149.531ZM107.252 151.317L106.554 150.074L105.884 151.317H107.252Z" fill="black"/>
<path d="M110.374 149.531H113.063C113.544 149.531 113.761 149.687 113.761 150.109V150.774C113.761 151.189 113.542 151.352 113.063 151.352H111.093V152.517H110.374V149.531ZM111.096 150.045V150.836H112.754C112.973 150.836 113.086 150.793 113.086 150.595V150.284C113.086 150.086 112.973 150.043 112.754 150.043H111.096V150.045Z" fill="black"/>
<path d="M116.627 149.531H117.325L119.125 152.517H118.306L117.931 151.862H115.955L115.58 152.517H114.854L116.627 149.531ZM117.637 151.317L116.939 150.074L116.269 151.317H117.637Z" fill="black"/>
<path d="M120.759 149.531H123.448C123.929 149.531 124.146 149.694 124.146 150.109V150.814C124.146 151.225 123.926 151.387 123.448 151.387H123.037L124.457 152.517H123.412L122.162 151.387H121.478V152.517H120.759V149.531ZM121.478 150.045V150.871H123.136C123.356 150.871 123.469 150.828 123.469 150.63V150.284C123.469 150.086 123.356 150.043 123.136 150.043H121.478V150.045Z" fill="black"/>
<path d="M127.759 152.517H127.033V150.067H125.592V149.531H129.207V150.067H127.759V152.517Z" fill="black"/>
<path d="M134.66 149.531H135.394V150.668H137.667V149.531H138.394V152.517H137.667V151.26H135.394V152.517H134.66V149.531Z" fill="black"/>
<path d="M141.329 149.531H143.638C144.223 149.531 144.414 149.666 144.414 150.236V151.812C144.414 152.376 144.223 152.517 143.638 152.517H141.329C140.737 152.517 140.553 152.376 140.553 151.812V150.236C140.553 149.663 140.744 149.531 141.329 149.531ZM143.687 151.944V150.081H141.279V151.944H143.687Z" fill="black"/>
<path d="M148.342 152.517H147.616V150.067H146.175V149.531H149.791V150.067H148.342V152.517Z" fill="black"/>
<path d="M151.621 149.531H154.826V150.06H152.355V150.708H153.796V151.225H152.355V151.958H154.862V152.515H151.621V149.531Z" fill="black"/>
<path d="M156.806 149.531H157.539V151.961H159.884V152.517H156.806V149.531Z" fill="black"/>
<path d="M60.9828 119.808C60.9828 119.808 56.0557 116.19 49.6263 119.207C47.5507 120.181 45.1096 121.973 43.0175 124.723C41.0906 127.252 39.0834 131.877 40.449 136.974C42.3736 144.16 50.973 141.67 50.973 141.67C50.973 141.67 55.6336 140.177 55.8883 133.259C55.8883 133.259 58.3271 132.495 60.1856 134.023C60.1856 134.023 58.2917 129.242 53.3033 128.999C52.7396 128.971 51.8763 128.797 51.0862 129.431C49.5484 130.667 48.6993 133.174 53.4118 133.221C53.4118 133.221 50.9353 140.066 46.6191 138.12C44.5506 137.188 43.7251 134.059 45.0365 128.87C45.6308 126.521 47.822 123.572 52.3009 121.714C53.2679 121.313 55.7963 120.185 56.4709 121.277C58.1714 124.039 60.7092 122.155 60.9828 119.808Z" fill="#223E8E"/>
<path d="M67.9502 125.514C67.9502 125.514 60.24 129.613 61.0419 138.976C61.3862 143.007 64.2543 143.085 66.4218 141.762C68.3653 140.575 69.863 138.403 69.863 138.403C69.863 138.403 64.2543 141.403 65.0302 135.535C65.3133 133.398 66.2661 130.273 69.2356 128.08C69.2356 128.08 73.507 125.044 70.0823 138.075C70.0823 138.075 74.8608 135.589 73.7806 127.676C73.7782 127.676 72.1814 123.712 67.9502 125.514Z" fill="#223E8E"/>
<path d="M98.8169 126.488C97.423 127.716 93.8639 131.023 93.5172 136.552C93.1988 141.606 95.5762 146.333 102.166 138.976C102.166 138.976 94.845 142.026 97.614 134.165C97.614 134.165 104.624 135.613 105.197 129.337C105.671 124.167 100.966 124.596 98.8169 126.488ZM100.534 131.986C96.0857 134.207 99.5363 128.358 101.112 127.615C104.206 126.16 103.194 130.658 100.534 131.986Z" fill="#223E8E"/>
<path d="M167.3 126.488C165.906 127.716 162.347 131.023 162.001 136.552C161.682 141.606 164.06 146.333 170.649 138.976C170.649 138.976 163.328 142.026 166.097 134.165C166.097 134.165 173.107 135.613 173.68 129.337C174.157 124.167 169.449 124.596 167.3 126.488ZM169.017 131.986C164.569 134.207 168.02 128.358 169.595 127.615C172.69 126.16 171.678 130.658 169.017 131.986Z" fill="#223E8E"/>
<path d="M105.233 141.765C106.27 140.864 108.476 136.821 110.579 132.889C111.143 131.835 112.41 129.95 112.874 129.448C113.556 128.71 114.896 129.092 114.785 130.075C114.705 130.795 113.631 133.113 113.091 133.979C112.339 135.187 111.4 136.637 110.452 138.104C109.235 139.991 108.473 143.017 111.452 142.776C112.818 142.666 113.528 139.991 114.693 137.121C115.823 134.342 117.28 131.024 117.28 131.024C119.099 124.813 112.579 127.33 112.579 127.33C112.579 127.33 112.563 126.851 111.723 126.498C110.483 125.976 108.711 126.125 108.122 126.681C108.122 126.681 109.664 126.726 107.789 130.649C107.537 131.177 105.624 136.729 104.841 138.13C102.195 142.871 103.393 143.361 105.233 141.765Z" fill="#223E8E"/>
<path d="M125.761 137.554C125.761 137.554 134.099 136.467 134.719 139.743C135.339 143.019 131.386 143.677 127.801 141.927C124.742 140.434 123.141 142.613 123.141 142.613C123.141 142.613 120.009 142.908 123.287 136.465C126.565 130.021 127.065 128.719 128.603 124.594C130.787 118.733 130.969 118.021 132.681 118.039C134.339 118.058 133.766 118.497 131.806 123.356C129.509 129.049 126.452 134.13 125.761 137.554Z" fill="#223E8E"/>
<path d="M143.559 125.882C143.559 125.882 132.907 131.934 136.757 140.507C138.686 144.805 142.231 139.399 142.231 139.399C142.231 139.399 137.823 141.5 139.49 135.821C139.49 135.821 140.636 130.196 145.252 127.955C145.252 127.955 148.191 125.552 143.283 137.665C142.485 139.632 142.983 140.25 144.549 142.274C144.549 142.274 145.495 140.359 147.134 135.953C147.712 134.396 149.207 130.651 149.865 128.681C150.257 127.505 151.868 125.903 149.514 125.917C148.431 125.924 147.026 126.247 147.026 127.141C147.026 127.144 146.078 124.74 143.559 125.882Z" fill="#223E8E"/>
<path d="M153.434 124.632H158.168L155.21 132.507C155.21 132.507 154.828 133.429 156.257 134.755C157.194 135.623 158.194 137.179 159.17 138.741C160.173 140.345 161.354 141.755 161.06 142.392C160.828 142.892 159.286 142.732 158.552 142.675C156.84 142.543 154.455 136.941 154.455 136.941C154.455 136.941 153.55 135.557 153.003 137.014C152.455 138.472 150.887 142.545 150.887 142.545C150.887 142.545 146.271 143.774 149.493 137.3C149.936 136.411 152.545 129.705 153.196 128.12C153.503 127.361 154.866 124.632 153.434 124.632Z" fill="#223E8E"/>
<path d="M155.437 132.488L157.548 129.731C157.548 129.731 160.97 124.907 163.447 124.924C166.626 124.945 165.093 126.452 160.607 129.693C154.781 133.901 155.437 132.488 155.437 132.488Z" fill="#223E8E"/>
<path d="M54.5938 149.531H57.2825C57.7637 149.531 57.9807 149.694 57.9807 150.109V150.814C57.9807 151.225 57.7613 151.387 57.2825 151.387H56.8721L58.292 152.517H57.2472L55.9971 151.387H55.3131V152.517H54.5938V149.531ZM55.3131 150.045V150.871H56.9712C57.1905 150.871 57.3038 150.828 57.3038 150.63V150.284C57.3038 150.086 57.1905 150.043 56.9712 150.043H55.3131V150.045Z" fill="black"/>
<path d="M60.0752 149.531H63.2805V150.06H60.8087V150.708H62.2498V151.225H60.8087V151.958H63.3159V152.515H60.0752V149.531Z" fill="black"/>
<path d="M65.9647 150.067V150.694H67.9058C68.4978 150.694 68.6818 150.836 68.6818 151.402V151.812C68.6818 152.369 68.4978 152.517 67.9058 152.517H65.9647C65.3727 152.517 65.1816 152.369 65.1816 151.812V151.727L65.8302 151.607V151.961H68.0261V151.274H66.0921C65.5071 151.274 65.309 151.133 65.309 150.569V150.236C65.309 149.673 65.5071 149.531 66.0921 149.531H67.8633C68.4129 149.531 68.6464 149.659 68.6464 150.18V150.251L68.019 150.385V150.067H65.9647Z" fill="black"/>
<path d="M70.833 149.531H71.5595V152.517H70.833V149.531Z" fill="black"/>
<path d="M73.7783 149.531H75.7902C76.9695 149.531 77.5827 150.088 77.5827 151.015C77.5827 152.024 76.9199 152.52 75.6062 152.52H73.7783V149.531ZM75.4506 151.958C76.3751 151.958 76.835 151.753 76.835 150.977C76.835 150.357 76.4883 150.067 75.7973 150.067H74.5118V151.958H75.4506Z" fill="black"/>
<path d="M79.5713 149.531H82.7766V150.06H80.3048V150.708H81.7459V151.225H80.3048V151.958H82.812V152.515H79.5713V149.531Z" fill="black"/>
<path d="M84.7559 149.531H85.2582L87.7937 151.515V149.531H88.4494V152.517H87.947L85.4186 150.505V152.517H84.7559V149.531Z" fill="black"/>
<path d="M91.3309 150.081V151.944H93.2933V151.31L94.0268 151.458V151.812C94.0268 152.369 93.8357 152.517 93.2437 152.517H91.3805C90.7814 152.517 90.6045 152.362 90.6045 151.812V150.236C90.6045 149.68 90.7885 149.531 91.3805 149.531H93.2437C93.8357 149.531 94.0268 149.673 94.0268 150.236V150.527L93.2933 150.633V150.083H91.3309V150.081Z" fill="black"/>
<path d="M96.1143 149.531H99.3196V150.06H96.8478V150.708H98.2889V151.225H96.8478V151.958H99.3549V152.515H96.1143V149.531Z" fill="black"/>
<path d="M106.242 149.531H106.941L108.74 152.517H107.922L107.547 151.862H105.57L105.195 152.517H104.469L106.242 149.531ZM107.252 151.317L106.554 150.074L105.884 151.317H107.252Z" fill="black"/>
<path d="M110.374 149.531H113.063C113.544 149.531 113.761 149.687 113.761 150.109V150.774C113.761 151.189 113.542 151.352 113.063 151.352H111.093V152.517H110.374V149.531ZM111.096 150.045V150.836H112.754C112.973 150.836 113.086 150.793 113.086 150.595V150.284C113.086 150.086 112.973 150.043 112.754 150.043H111.096V150.045Z" fill="black"/>
<path d="M116.627 149.531H117.325L119.125 152.517H118.306L117.931 151.862H115.955L115.58 152.517H114.854L116.627 149.531ZM117.637 151.317L116.939 150.074L116.269 151.317H117.637Z" fill="black"/>
<path d="M120.759 149.531H123.448C123.929 149.531 124.146 149.694 124.146 150.109V150.814C124.146 151.225 123.926 151.387 123.448 151.387H123.037L124.457 152.517H123.412L122.162 151.387H121.478V152.517H120.759V149.531ZM121.478 150.045V150.871H123.136C123.356 150.871 123.469 150.828 123.469 150.63V150.284C123.469 150.086 123.356 150.043 123.136 150.043H121.478V150.045Z" fill="black"/>
<path d="M127.759 152.517H127.033V150.067H125.592V149.531H129.207V150.067H127.759V152.517Z" fill="black"/>
<path d="M134.66 149.531H135.394V150.668H137.667V149.531H138.394V152.517H137.667V151.26H135.394V152.517H134.66V149.531Z" fill="black"/>
<path d="M141.329 149.531H143.638C144.223 149.531 144.414 149.666 144.414 150.236V151.812C144.414 152.376 144.223 152.517 143.638 152.517H141.329C140.737 152.517 140.553 152.376 140.553 151.812V150.236C140.553 149.663 140.744 149.531 141.329 149.531ZM143.687 151.944V150.081H141.279V151.944H143.687Z" fill="black"/>
<path d="M148.342 152.517H147.616V150.067H146.175V149.531H149.791V150.067H148.342V152.517Z" fill="black"/>
<path d="M151.621 149.531H154.826V150.06H152.355V150.708H153.796V151.225H152.355V151.958H154.862V152.515H151.621V149.531Z" fill="black"/>
<path d="M156.806 149.531H157.539V151.961H159.884V152.517H156.806V149.531Z" fill="black"/>
<path d="M131.467 67.1228C126.005 65.9577 122.582 73.5311 122.582 73.5311C122.582 73.5311 121.868 63.4387 113.712 61.1226C106.794 59.1556 99.9352 63.3373 98.4044 64.9388C98.4044 64.9388 100.081 57.014 111.587 55.8488C123.092 54.6837 124.474 65.2289 124.474 65.2289C124.474 65.2289 127.936 61.2854 132.696 62.9293C126.943 55.0752 117.495 49.9453 106.808 49.9453C89.2673 49.9453 75.0498 63.743 75.0498 80.7649C75.0498 97.7844 89.2673 111.584 106.806 111.584C124.344 111.584 138.562 97.7867 138.562 80.7649C138.562 77.4558 138.019 74.2717 137.024 71.2834C135.903 69.538 134.127 67.6913 131.467 67.1228Z" fill="url(#paint0_linear_113_921)"/>
<path d="M91.6758 76.1537C91.6758 76.1537 105.002 72.8399 107.771 86.239C110.54 99.638 93.9353 106.702 93.9353 106.702C93.9353 106.702 111.849 102.478 117.457 94.9775C123.066 87.4772 127.434 67.96 104.568 66.1392C104.565 66.1415 95.5344 65.8514 91.6758 76.1537Z" fill="url(#paint1_linear_113_921)"/>
<path d="M111.9 84.6664C111.9 84.6664 119.702 82.5626 121.622 90.4402C123.351 97.5301 107.904 107.431 107.904 107.431C107.904 107.431 123.834 102.924 127.785 97.6386C131.735 92.353 138.672 78.895 122.561 77.6119C122.561 77.6119 114.619 77.4067 111.9 84.6664Z" fill="url(#paint2_linear_113_921)"/>
<path d="M124.623 92.7042C124.623 92.7042 128.937 89.6004 130.316 95.2657C131.559 100.365 120.307 106.705 120.307 106.705C120.307 106.705 130.849 103.436 134.67 100.624C138.63 97.7091 141.279 89.5909 134.508 87.8432C132.47 87.3172 126.578 87.48 124.623 92.7042Z" fill="url(#paint3_linear_113_921)"/>
<path d="M124.476 65.2317C124.476 65.2317 123.093 54.6865 111.588 55.8516C100.083 57.0168 98.4062 64.9416 98.4062 64.9416C99.9346 63.3401 106.796 59.1583 113.713 61.1254C121.869 63.4439 122.584 73.5339 122.584 73.5339C122.584 73.5339 126.006 65.9605 131.469 67.1256C134.129 67.694 135.903 69.5385 137.028 71.2838C136.023 68.2695 134.554 65.4605 132.702 62.9321C127.938 61.2881 124.476 65.2317 124.476 65.2317Z" fill="white"/>
<defs>
<linearGradient id="paint0_linear_113_921" x1="75.0501" y1="80.7639" x2="138.564" y2="80.7639" gradientUnits="userSpaceOnUse">
<stop stop-color="#415C8E"/>
<stop offset="1" stop-color="#0E74B9"/>
</linearGradient>
<linearGradient id="paint1_linear_113_921" x1="91.6759" y1="86.4222" x2="121.939" y2="86.4222" gradientUnits="userSpaceOnUse">
<stop stop-color="#5BBEB9"/>
<stop offset="1" stop-color="#177BBC"/>
</linearGradient>
<linearGradient id="paint2_linear_113_921" x1="107.904" y1="92.5201" x2="132.71" y2="92.5201" gradientUnits="userSpaceOnUse">
<stop stop-color="#5BBEB9"/>
<stop offset="1" stop-color="#177BBC"/>
</linearGradient>
<linearGradient id="paint3_linear_113_921" x1="120.308" y1="97.173" x2="138.668" y2="97.173" gradientUnits="userSpaceOnUse">
<stop stop-color="#5BBEB9"/>
<stop offset="1" stop-color="#177BBC"/>
</linearGradient>
</defs>
</svg>
